<svg width="40" height="40" viewBox="0 0 40 40" fill="none" xmlns="http://www.w3.org/2000/svg">
<path d="M36.25 21.25H3.75C3.41848 21.25 3.10054 21.1183 2.86612 20.8839C2.6317 20.6495 2.5 20.3315 2.5 20C2.5 19.6685 2.6317 19.3505 2.86612 19.1161C3.10054 18.8817 3.41848 18.75 3.75 18.75H36.25C36.5815 18.75 36.8995 18.8817 37.1339 19.1161C37.3683 19.3505 37.5 19.6685 37.5 20C37.5 20.3315 37.3683 20.6495 37.1339 20.8839C36.8995 21.1183 36.5815 21.25 36.25 21.25ZM37.5 28.75C37.5 28.4185 37.3683 28.1005 37.1339 27.8661C36.8995 27.6317 36.5815 27.5 36.25 27.5H3.75C3.41848 27.5 3.10054 27.6317 2.86612 27.8661C2.6317 28.1005 2.5 28.4185 2.5 28.75C2.5 29.0815 2.6317 29.3995 2.86612 29.6339C3.10054 29.8683 3.41848 30 3.75 30H36.25C36.5815 30 36.8995 29.8683 37.1339 29.6339C37.3683 29.3995 37.5 29.0815 37.5 28.75ZM37.5 11.25C37.5 10.9185 37.3683 10.6005 37.1339 10.3661C36.8995 10.1317 36.5815 10 36.25 10H3.75C3.41848 10 3.10054 10.1317 2.86612 10.3661C2.6317 10.6005 2.5 10.9185 2.5 11.25C2.5 11.5815 2.6317 11.8995 2.86612 12.1339C3.10054 12.3683 3.41848 12.5 3.75 12.5H36.25C36.5815 12.5 36.8995 12.3683 37.1339 12.1339C37.3683 11.8995 37.5 11.5815 37.5 11.25Z" fill="#384054"/>
</svg>
