<svg width="40" height="40" viewBox="0 0 40 40" fill="none" xmlns="http://www.w3.org/2000/svg">
<path d="M8.26975 33C8.01863 33 7.77313 32.9256 7.56432 32.7861C7.35551 32.6466 7.19275 32.4483 7.09665 32.2163C7.00054 31.9843 6.9754 31.729 7.02441 31.4827C7.07341 31.2364 7.19436 31.0102 7.37195 30.8327L30.8325 7.37188C31.0706 7.13377 31.3935 7 31.7303 7C32.067 7 32.3899 7.13377 32.6281 7.37188C32.8662 7.61 32.9999 7.93295 32.9999 8.26969C32.9999 8.60643 32.8662 8.92938 32.6281 9.1675L9.16754 32.6283C9.04975 32.7463 8.9098 32.8399 8.75573 32.9037C8.60166 32.9675 8.4365 33.0002 8.26975 33Z" fill="#384054"/>
<path d="M31.7303 33C31.5635 33.0002 31.3983 32.9675 31.2443 32.9037C31.0902 32.8399 30.9503 32.7463 30.8325 32.6283L7.37195 9.1675C7.13384 8.92938 7.00007 8.60643 7.00007 8.26969C7.00007 7.93295 7.13384 7.61 7.37195 7.37188C7.61006 7.13377 7.93301 7 8.26975 7C8.60648 7 8.92943 7.13377 9.16754 7.37188L32.6281 30.8327C32.8056 31.0102 32.9266 31.2364 32.9756 31.4827C33.0246 31.729 32.9995 31.9843 32.9034 32.2163C32.8072 32.4483 32.6445 32.6466 32.4357 32.7861C32.2269 32.9256 31.9814 33 31.7303 33Z" fill="#384054"/>
</svg>
