<svg width="30" height="30" viewBox="0 0 30 30" fill="none" xmlns="http://www.w3.org/2000/svg">
<path d="M22.2222 0.555664H7.77778C3.80591 0.555664 0.555557 3.80461 0.555557 7.77789V22.2223C0.555557 26.1942 3.80591 29.4446 7.77778 29.4446H22.2222C26.1941 29.4446 29.4444 26.1942 29.4444 22.2223V7.77789C29.4444 3.80461 26.1941 0.555664 22.2222 0.555664ZM15 21.0184C11.6756 21.0184 8.98137 18.323 8.98137 15.0001C8.98137 11.6757 11.6756 8.98147 15 8.98147C18.3229 8.98147 21.0186 11.6757 21.0186 15.0001C21.0186 18.323 18.3229 21.0184 15 21.0184ZM22.8242 8.98147C21.8261 8.98147 21.0186 8.17292 21.0186 7.17592C21.0186 6.17891 21.8261 5.37036 22.8242 5.37036C23.8223 5.37036 24.6297 6.17891 24.6297 7.17592C24.6297 8.17292 23.8223 8.98147 22.8242 8.98147Z" fill="#EBF0F4"/>
</svg>
