<svg width="33" height="32" viewBox="0 0 33 32" fill="none" xmlns="http://www.w3.org/2000/svg">
<g clip-path="url(#clip0_357_8531)">
<path d="M32.1636 23.3596C32.1249 23.2761 32.0887 23.2068 32.0552 23.1513C31.5 22.1514 30.439 20.924 28.8729 19.4689L28.8398 19.4356L28.8232 19.4193L28.8065 19.4025H28.7897C28.0789 18.7249 27.6288 18.2693 27.4403 18.0361C27.0954 17.5918 27.0182 17.142 27.2067 16.6863C27.3398 16.342 27.8401 15.6149 28.7062 14.504C29.1618 13.9152 29.5226 13.4434 29.789 13.0879C31.7108 10.533 32.5439 8.90046 32.2883 8.18951L32.1891 8.02337C32.1223 7.92335 31.9502 7.83185 31.6728 7.7484C31.3948 7.66512 31.0395 7.65135 30.6062 7.70685L25.8079 7.73999C25.7302 7.71245 25.6192 7.71502 25.4746 7.7484C25.3302 7.78178 25.2579 7.79852 25.2579 7.79852L25.1744 7.84025L25.1081 7.89038C25.0526 7.92352 24.9915 7.98182 24.9248 8.06515C24.8584 8.14819 24.8029 8.24565 24.7586 8.3567C24.2362 9.7007 23.6422 10.9503 22.9756 12.1054C22.5646 12.7942 22.1872 13.3911 21.8425 13.8965C21.4982 14.4017 21.2094 14.774 20.9763 15.0126C20.7429 15.2515 20.5323 15.4428 20.3431 15.5874C20.1542 15.732 20.01 15.7931 19.9101 15.7707C19.81 15.7484 19.7158 15.7262 19.6266 15.704C19.4712 15.604 19.3462 15.468 19.2519 15.2958C19.1573 15.1237 19.0935 14.907 19.0602 14.646C19.0271 14.3848 19.0075 14.1601 19.0019 13.9712C18.9967 13.7825 18.9991 13.5157 19.0103 13.1714C19.0219 12.8269 19.0271 12.5938 19.0271 12.4716C19.0271 12.0495 19.0353 11.5913 19.0518 11.097C19.0686 10.6028 19.0822 10.2111 19.0936 9.92263C19.1049 9.63382 19.1102 9.32827 19.1102 9.00614C19.1102 8.68402 19.0906 8.4314 19.0518 8.24804C19.0135 8.06492 18.9548 7.88717 18.8773 7.71484C18.7994 7.54269 18.6854 7.40952 18.5358 7.31499C18.3859 7.22057 18.1995 7.14564 17.9777 7.08997C17.3889 6.95674 16.6392 6.88467 15.7282 6.87346C13.6624 6.85129 12.3349 6.98469 11.7462 7.27349C11.513 7.39552 11.3019 7.56224 11.1132 7.77314C10.9132 8.01759 10.8853 8.151 11.0297 8.17294C11.6962 8.27278 12.1681 8.51164 12.4458 8.88926L12.5459 9.08936C12.6237 9.23373 12.7015 9.48933 12.7793 9.85581C12.8569 10.2223 12.9071 10.6277 12.9291 11.0718C12.9845 11.8827 12.9845 12.577 12.9291 13.1544C12.8735 13.7322 12.821 14.1819 12.7708 14.504C12.7207 14.8262 12.6458 15.0872 12.5459 15.2871C12.4458 15.487 12.3792 15.6092 12.3458 15.6535C12.3125 15.6979 12.2847 15.7258 12.2627 15.7368C12.1183 15.7921 11.9682 15.8203 11.8128 15.8203C11.6571 15.8203 11.4684 15.7425 11.2463 15.5869C11.0243 15.4313 10.7938 15.2176 10.555 14.9454C10.3161 14.6732 10.0467 14.2928 9.74672 13.8041C9.44695 13.3154 9.13591 12.7379 8.81378 12.0715L8.54727 11.5882C8.38066 11.2772 8.15308 10.8245 7.86427 10.2304C7.57529 9.63604 7.31987 9.06112 7.09782 8.50574C7.00906 8.27249 6.87572 8.09492 6.69803 7.97272L6.61464 7.92259C6.5592 7.87824 6.47021 7.83115 6.34812 7.78096C6.22587 7.73083 6.0983 7.69488 5.9649 7.67277L1.39977 7.70591C0.933269 7.70591 0.616746 7.8116 0.450081 8.02267L0.38338 8.12252C0.350058 8.17813 0.333252 8.26695 0.333252 8.3892C0.333252 8.5114 0.366573 8.66138 0.433274 8.83895C1.0997 10.4052 1.82442 11.9158 2.60744 13.3708C3.39047 14.8259 4.0709 15.998 4.64833 16.886C5.22588 17.7747 5.81458 18.6135 6.41442 19.4019C7.01426 20.1905 7.41131 20.696 7.60558 20.918C7.80008 21.1405 7.95286 21.3068 8.06391 21.4178L8.48051 21.8176C8.74708 22.0843 9.13853 22.4036 9.65504 22.7756C10.1717 23.1479 10.7436 23.5143 11.3712 23.8756C11.9989 24.2363 12.7291 24.5307 13.5622 24.7583C14.3952 24.9862 15.206 25.0776 15.9947 25.0335H17.9108C18.2994 25 18.5938 24.8778 18.7939 24.6669L18.8602 24.5834C18.9048 24.5171 18.9465 24.4141 18.985 24.2755C19.024 24.1366 19.0434 23.9837 19.0434 23.8173C19.032 23.3398 19.0683 22.9094 19.1514 22.5262C19.2345 22.1432 19.3291 21.8544 19.435 21.6599C19.5408 21.4656 19.6602 21.3016 19.7931 21.1687C19.9262 21.0354 20.0211 20.9547 20.0768 20.9269C20.1321 20.899 20.1763 20.88 20.2096 20.8686C20.4762 20.7798 20.7899 20.8658 21.1512 21.1271C21.5123 21.3881 21.8509 21.7104 22.1677 22.0935C22.4843 22.4769 22.8646 22.907 23.3088 23.3845C23.7533 23.8622 24.142 24.2173 24.4751 24.4509L24.8082 24.6509C25.0306 24.7843 25.3194 24.9065 25.6749 25.0175C26.0298 25.1285 26.3407 25.1563 26.6077 25.1008L30.8728 25.0343C31.2946 25.0343 31.6229 24.9644 31.8557 24.8258C32.089 24.687 32.2276 24.534 32.2723 24.3677C32.3169 24.2011 32.3193 24.0122 32.2808 23.8009C32.2413 23.5902 32.2024 23.4428 32.1636 23.3596Z" fill="#EBF0F4"/>
</g>
<defs>
<clipPath id="clip0_357_8531">
<rect width="32" height="32" fill="white" transform="translate(0.333252)"/>
</clipPath>
</defs>
</svg>
