<svg width="41" height="24" viewBox="0 0 41 24" fill="none" xmlns="http://www.w3.org/2000/svg">
<path d="M40.6598 21.1995C40.6114 21.0951 40.5662 21.0085 40.5243 20.9391C39.8303 19.6892 38.5041 18.155 36.5465 16.3361L36.5051 16.2945L36.4844 16.2741L36.4635 16.2531H36.4424C35.554 15.4062 34.9913 14.8367 34.7557 14.5451C34.3246 13.9897 34.2281 13.4275 34.4637 12.8579C34.6301 12.4275 35.2554 11.5186 36.3381 10.13C36.9075 9.39404 37.3586 8.8042 37.6916 8.35982C40.0938 5.16629 41.1352 3.12558 40.8157 2.23689L40.6916 2.02921C40.6083 1.90419 40.3931 1.78981 40.0464 1.6855C39.6989 1.5814 39.2547 1.56419 38.7131 1.63356L32.7152 1.67499C32.6181 1.64056 32.4793 1.64377 32.2986 1.6855C32.118 1.72722 32.0277 1.74816 32.0277 1.74816L31.9234 1.80031L31.8405 1.86297C31.771 1.9044 31.6947 1.97728 31.6113 2.08144C31.5284 2.18524 31.459 2.30706 31.4035 2.44587C30.7505 4.12587 30.0081 5.68784 29.1749 7.13172C28.6611 7.99269 28.1893 8.73884 27.7584 9.37062C27.3281 10.0022 26.9671 10.4675 26.6758 10.7658C26.384 11.0643 26.1206 11.3035 25.8842 11.4842C25.648 11.665 25.4678 11.7413 25.343 11.7134C25.2179 11.6855 25.1001 11.6577 24.9885 11.63C24.7943 11.505 24.638 11.335 24.5202 11.1198C24.4019 10.9046 24.3223 10.6337 24.2806 10.3075C24.2392 9.98095 24.2147 9.70012 24.2077 9.46399C24.2012 9.22816 24.2042 8.89458 24.2182 8.46421C24.2327 8.03361 24.2392 7.74227 24.2392 7.58952C24.2392 7.06184 24.2495 6.48915 24.2701 5.8713C24.2911 5.25346 24.3081 4.76392 24.3223 4.40328C24.3365 4.04228 24.3431 3.66034 24.3431 3.25768C24.3431 2.85502 24.3185 2.53924 24.2701 2.31005C24.2223 2.08115 24.1488 1.85896 24.052 1.64355C23.9546 1.42836 23.8121 1.2619 23.6251 1.14373C23.4377 1.02571 23.2047 0.932046 22.9274 0.862457C22.1915 0.695923 21.2543 0.605836 20.1156 0.59183C17.5333 0.564111 15.874 0.730863 15.1381 1.09187C14.8466 1.2444 14.5827 1.4528 14.3468 1.71642C14.0968 2.02199 14.062 2.18874 14.2424 2.21617C15.0756 2.34098 15.6654 2.63954 16.0126 3.11157L16.1377 3.3617C16.235 3.54217 16.3322 3.86167 16.4294 4.31976C16.5265 4.77786 16.5891 5.2846 16.6167 5.83972C16.686 6.85343 16.686 7.72119 16.6167 8.44305C16.5472 9.16521 16.4815 9.7274 16.4189 10.1301C16.3562 10.5327 16.2626 10.859 16.1377 11.1088C16.0126 11.3587 15.9293 11.5115 15.8876 11.5669C15.846 11.6224 15.8113 11.6573 15.7837 11.671C15.6032 11.7402 15.4155 11.7754 15.2213 11.7754C15.0267 11.7754 14.7908 11.6781 14.5132 11.4836C14.2356 11.2891 13.9476 11.022 13.649 10.6818C13.3504 10.3415 13.0137 9.86599 12.6387 9.25515C12.264 8.64431 11.8752 7.92237 11.4726 7.08934L11.1394 6.48521C10.9312 6.09656 10.6467 5.53065 10.2857 4.78799C9.92444 4.04505 9.60516 3.32639 9.3276 2.63218C9.21665 2.34061 9.04998 2.11864 8.82786 1.9659L8.72362 1.90324C8.65432 1.8478 8.54308 1.78893 8.39048 1.7262C8.23766 1.66354 8.0782 1.6186 7.91145 1.59096L2.20503 1.63239C1.62191 1.63239 1.22625 1.76449 1.01792 2.02834L0.934547 2.15315C0.892895 2.22266 0.871887 2.33369 0.871887 2.48651C0.871887 2.63925 0.913539 2.82672 0.996915 3.04869C1.82995 5.00654 2.73585 6.89472 3.71463 8.71353C4.69341 10.5323 5.54394 11.9974 6.26574 13.1075C6.98767 14.2184 7.72354 15.2668 8.47334 16.2523C9.22315 17.2382 9.71946 17.87 9.9623 18.1475C10.2054 18.4256 10.3964 18.6335 10.5352 18.7723L11.056 19.272C11.3892 19.6053 11.8785 20.0045 12.5241 20.4695C13.1699 20.9348 13.8848 21.3929 14.6693 21.8445C15.4539 22.2954 16.3667 22.6633 17.4081 22.9479C18.4494 23.2327 19.4629 23.347 20.4487 23.2919H22.8438C23.3296 23.2499 23.6976 23.0972 23.9477 22.8336L24.0306 22.7292C24.0863 22.6463 24.1384 22.5176 24.1866 22.3443C24.2353 22.1708 24.2595 21.9796 24.2595 21.7716C24.2453 21.1747 24.2907 20.6368 24.3946 20.1578C24.4984 19.679 24.6167 19.318 24.7491 19.0749C24.8813 18.832 25.0306 18.627 25.1967 18.4608C25.3631 18.2943 25.4817 18.1934 25.5513 18.1587C25.6205 18.1237 25.6757 18.1 25.7173 18.0858C26.0505 17.9748 26.4427 18.0823 26.8944 18.4089C27.3457 18.7352 27.769 19.138 28.1649 19.6168C28.5607 20.0961 29.0361 20.6338 29.5914 21.2307C30.147 21.8278 30.6328 22.2717 31.0492 22.5637L31.4655 22.8136C31.7436 22.9803 32.1046 23.1331 32.549 23.2719C32.9926 23.4106 33.3812 23.4454 33.715 23.376L39.0463 23.2928C39.5736 23.2928 39.9839 23.2055 40.275 23.0323C40.5666 22.8587 40.7399 22.6676 40.7957 22.4596C40.8515 22.2514 40.8545 22.0152 40.8063 21.7511C40.7569 21.4877 40.7083 21.3036 40.6598 21.1995Z" fill="#EBF0F4"/>
</svg>
