<svg width="33" height="32" viewBox="0 0 33 32" fill="none" xmlns="http://www.w3.org/2000/svg">
<path d="M29.5899 7.85855C28.6135 8.28685 27.5731 8.57075 26.4884 8.7086C27.6043 8.04234 28.456 6.99537 28.8564 5.73342C27.816 6.35373 26.6672 6.79188 25.443 7.03639C24.4551 5.9845 23.0471 5.33301 21.5111 5.33301C18.531 5.33301 16.1319 7.75188 16.1319 10.7172C16.1319 11.1439 16.168 11.5541 16.2566 11.9447C11.7815 11.7264 7.8217 9.58162 5.1616 6.31434C4.69719 7.12008 4.42478 8.04234 4.42478 9.03516C4.42478 10.8994 5.38478 12.5519 6.81575 13.5086C5.95093 13.4922 5.10252 13.2411 4.38375 12.8456C4.38375 12.862 4.38375 12.8834 4.38375 12.9047C4.38375 15.5205 6.2496 17.6932 8.69637 18.1937C8.25821 18.3135 7.78068 18.371 7.28509 18.371C6.94047 18.371 6.59257 18.3513 6.26601 18.2791C6.96344 20.4108 8.94252 21.9779 11.2958 22.0288C9.46437 23.4614 7.13903 24.3246 4.6217 24.3246C4.18027 24.3246 3.75688 24.3049 3.3335 24.2507C5.71791 25.7884 8.54375 26.6663 11.5911 26.6663C21.4964 26.6663 26.9118 18.4612 26.9118 11.349C26.9118 11.1111 26.9035 10.8813 26.8921 10.6532C27.9604 9.89506 28.858 8.94819 29.5899 7.85855Z" fill="#EBF0F4"/>
</svg>
