<svg width="140" height="40" viewBox="0 0 140 40" fill="none" xmlns="http://www.w3.org/2000/svg">
<path d="M134.815 40H5.18519C2.33463 40 0 37.7487 0 35V5C0 2.25125 2.33463 0 5.18519 0H134.815C137.665 0 140 2.25125 140 5V35C140 37.7487 137.665 40 134.815 40Z" fill="#151516"/>
<path d="M47.7168 10.244C47.7168 11.079 47.4652 11.7477 46.9696 12.2465C46.3998 12.8377 45.6576 13.1352 44.7482 13.1352C43.879 13.1352 43.1368 12.8327 42.528 12.2365C41.9179 11.6315 41.6135 10.889 41.6135 10.0002C41.6135 9.11148 41.9179 8.36898 42.528 7.76898C43.1368 7.16773 43.879 6.86523 44.7482 6.86523C45.1809 6.86523 45.5935 6.95398 45.9872 7.11898C46.3797 7.28523 46.6992 7.51023 46.9306 7.78773L46.4048 8.31524C46.001 7.84149 45.4513 7.60774 44.7482 7.60774C44.1142 7.60774 43.5645 7.82773 43.0978 8.27148C42.6362 8.71648 42.4047 9.29273 42.4047 10.0002C42.4047 10.7077 42.6362 11.289 43.0978 11.734C43.5645 12.1727 44.1142 12.3977 44.7482 12.3977C45.4212 12.3977 45.9872 12.1727 46.4338 11.729C46.7281 11.4352 46.8954 11.0302 46.9394 10.5127H44.7482V9.79023H47.6715C47.7067 9.94648 47.7168 10.0977 47.7168 10.244Z" fill="white" stroke="white" stroke-width="0.16" stroke-miterlimit="10"/>
<path d="M52.3546 7.73918H49.6087V9.63918H52.0842V10.3617H49.6087V12.2617H52.3546V12.9979H48.8313V7.00293H52.3546V7.73918Z" fill="white" stroke="white" stroke-width="0.16" stroke-miterlimit="10"/>
<path d="M55.6275 12.9979H54.8501V7.73918H53.1658V7.00293H57.313V7.73918H55.6275V12.9979Z" fill="white" stroke="white" stroke-width="0.16" stroke-miterlimit="10"/>
<path d="M60.3145 12.9979V7.00293H61.0906V12.9979H60.3145Z" fill="white" stroke="white" stroke-width="0.16" stroke-miterlimit="10"/>
<path d="M64.5308 12.9979H63.7597V7.73918H62.0691V7.00293H66.2214V7.73918H64.5308V12.9979Z" fill="white" stroke="white" stroke-width="0.16" stroke-miterlimit="10"/>
<path d="M74.0732 12.2265C73.4782 12.8327 72.7411 13.1352 71.8618 13.1352C70.9775 13.1352 70.2404 12.8327 69.6454 12.2265C69.0517 11.6215 68.7561 10.879 68.7561 10.0002C68.7561 9.12148 69.0517 8.37898 69.6454 7.77398C70.2404 7.16773 70.9775 6.86523 71.8618 6.86523C72.7361 6.86523 73.4732 7.16773 74.0682 7.77898C74.6669 8.38898 74.9625 9.12648 74.9625 10.0002C74.9625 10.879 74.6669 11.6215 74.0732 12.2265ZM70.2203 11.724C70.6681 12.1727 71.2128 12.3977 71.8618 12.3977C72.5059 12.3977 73.0556 12.1727 73.4983 11.724C73.9449 11.2752 74.1713 10.699 74.1713 10.0002C74.1713 9.30148 73.9449 8.72523 73.4983 8.27648C73.0556 7.82774 72.5059 7.60273 71.8618 7.60273C71.2128 7.60273 70.6681 7.82774 70.2203 8.27648C69.7737 8.72523 69.5473 9.30148 69.5473 10.0002C69.5473 10.699 69.7737 11.2752 70.2203 11.724Z" fill="white" stroke="white" stroke-width="0.16" stroke-miterlimit="10"/>
<path d="M76.053 12.9979V7.00293H76.9964L79.9298 11.6654H79.9637L79.9298 10.5129V7.00293H80.7059V12.9979H79.8958L76.8241 8.10543H76.7901L76.8241 9.26293V12.9979H76.053Z" fill="white" stroke="white" stroke-width="0.16" stroke-miterlimit="10"/>
<path d="M68.565 21.7522C66.2015 21.7522 64.2706 23.5397 64.2706 26.0059C64.2706 28.4522 66.2015 30.2584 68.565 30.2584C70.9336 30.2584 72.8645 28.4522 72.8645 26.0059C72.8645 23.5397 70.9336 21.7522 68.565 21.7522ZM68.565 28.5834C67.2681 28.5834 66.1524 27.5197 66.1524 26.0059C66.1524 24.4722 67.2681 23.4272 68.565 23.4272C69.8619 23.4272 70.9827 24.4722 70.9827 26.0059C70.9827 27.5197 69.8619 28.5834 68.565 28.5834ZM59.195 21.7522C56.8264 21.7522 54.9006 23.5397 54.9006 26.0059C54.9006 28.4522 56.8264 30.2584 59.195 30.2584C61.5624 30.2584 63.4895 28.4522 63.4895 26.0059C63.4895 23.5397 61.5624 21.7522 59.195 21.7522ZM59.195 28.5834C57.8969 28.5834 56.7774 27.5197 56.7774 26.0059C56.7774 24.4722 57.8969 23.4272 59.195 23.4272C60.4919 23.4272 61.6077 24.4722 61.6077 26.0059C61.6077 27.5197 60.4919 28.5834 59.195 28.5834ZM48.0451 23.0559V24.8634H52.3886C52.2616 25.8734 51.9219 26.6159 51.4012 27.1334C50.7672 27.7584 49.7797 28.4521 48.0451 28.4521C45.3721 28.4521 43.279 26.3084 43.279 23.6522C43.279 20.9959 45.3721 18.8522 48.0451 18.8522C49.4904 18.8522 50.542 19.4134 51.3181 20.1409L52.5999 18.8672C51.5144 17.8372 50.0703 17.0459 48.0451 17.0459C44.3796 17.0459 41.2991 20.0097 41.2991 23.6522C41.2991 27.2947 44.3796 30.2584 48.0451 30.2584C50.0263 30.2584 51.5144 29.6134 52.6842 28.4034C53.883 27.2121 54.2566 25.5371 54.2566 24.1847C54.2566 23.7647 54.2213 23.3784 54.1585 23.0559H48.0451ZM93.6385 24.4572C93.285 23.5059 92.1944 21.7522 89.973 21.7522C87.7717 21.7522 85.939 23.4759 85.939 26.0059C85.939 28.3884 87.7528 30.2584 90.1843 30.2584C92.1504 30.2584 93.285 29.0671 93.7517 28.3734L92.2926 27.4072C91.8058 28.1147 91.1428 28.5834 90.1843 28.5834C89.2321 28.5834 88.5491 28.1497 88.1113 27.2947L93.836 24.9409L93.6385 24.4572ZM87.8019 25.8734C87.7528 24.2334 89.0837 23.3934 90.0372 23.3934C90.7844 23.3934 91.4183 23.7647 91.6296 24.2959L87.8019 25.8734ZM83.149 29.9996H85.0308V17.4997H83.149V29.9996ZM80.0671 22.6997H80.0043C79.5816 22.2022 78.7753 21.7522 77.7539 21.7522C75.6105 21.7522 73.6507 23.6222 73.6507 26.0197C73.6507 28.4034 75.6105 30.2584 77.7539 30.2584C78.7753 30.2584 79.5816 29.8046 80.0043 29.2921H80.0671V29.9022C80.0671 31.5284 79.1929 32.4021 77.7828 32.4021C76.6331 32.4021 75.9199 31.5771 75.6256 30.8834L73.989 31.5621C74.4607 32.6896 75.7098 34.0771 77.7828 34.0771C79.9892 34.0771 81.8508 32.7871 81.8508 29.6484V22.0109H80.0671V22.6997ZM77.9149 28.5834C76.618 28.5834 75.5325 27.5046 75.5325 26.0197C75.5325 24.5209 76.618 23.4272 77.9149 23.4272C79.1929 23.4272 80.2005 24.5209 80.2005 26.0197C80.2005 27.5046 79.1929 28.5834 77.9149 28.5834ZM102.449 17.4997H97.948V29.9996H99.8248V25.2634H102.449C104.533 25.2634 106.577 23.7646 106.577 21.3809C106.577 18.9984 104.528 17.4997 102.449 17.4997ZM102.498 23.5247H99.8248V19.2384H102.498C103.899 19.2384 104.699 20.3947 104.699 21.3809C104.699 22.3484 103.899 23.5247 102.498 23.5247ZM114.099 21.7284C112.743 21.7284 111.333 22.3234 110.753 23.6422L112.419 24.3359C112.777 23.6422 113.436 23.4171 114.133 23.4171C115.107 23.4171 116.094 23.9984 116.109 25.0247V25.1559C115.77 24.9609 115.043 24.6722 114.148 24.6722C112.355 24.6722 110.527 25.6534 110.527 27.4847C110.527 29.1597 111.996 30.2384 113.648 30.2384C114.911 30.2384 115.607 29.6722 116.045 29.0134H116.109V29.9796H117.922V25.1847C117.922 22.9684 116.257 21.7284 114.099 21.7284ZM113.873 28.5784C113.259 28.5784 112.404 28.2759 112.404 27.5197C112.404 26.5522 113.47 26.1809 114.394 26.1809C115.22 26.1809 115.607 26.3622 116.109 26.6009C115.962 27.7584 114.96 28.5784 113.873 28.5784ZM124.526 22.0021L122.369 27.4209H122.304L120.074 22.0021H118.05L121.401 29.5746L119.489 33.7884H121.45L126.614 22.0021H124.526ZM107.609 29.9996H109.49V17.4997H107.609V29.9996Z" fill="white"/>
<path d="M10.5009 7.5382C10.2053 7.8457 10.0342 8.32445 10.0342 8.94445V31.0595C10.0342 31.6795 10.2053 32.1582 10.5009 32.4657L10.5738 32.5332L23.0445 20.1457V19.8532L10.5738 7.4657L10.5009 7.5382Z" fill="url(#paint0_linear_357_8535)"/>
<path d="M27.1967 24.2773L23.0444 20.1461V19.8536L27.2018 15.7223L27.2948 15.7761L32.2182 18.5598C33.6233 19.3498 33.6233 20.6498 32.2182 21.4448L27.2948 24.2236L27.1967 24.2773Z" fill="url(#paint1_linear_357_8535)"/>
<path d="M27.295 24.2235L23.0446 19.9997L10.501 32.466C10.9677 32.9535 11.7287 33.0122 12.5941 32.5247L27.295 24.2235Z" fill="url(#paint2_linear_357_8535)"/>
<path d="M27.295 15.7763L12.5941 7.475C11.7287 6.9925 10.9677 7.05125 10.501 7.53875L23.0446 20L27.295 15.7763Z" fill="url(#paint3_linear_357_8535)"/>
<defs>
<linearGradient id="paint0_linear_357_8535" x1="21.9373" y1="31.2898" x2="5.15519" y2="14.4018" gradientUnits="userSpaceOnUse">
<stop stop-color="#00A0FF"/>
<stop offset="0.0066" stop-color="#00A1FF"/>
<stop offset="0.2601" stop-color="#00BEFF"/>
<stop offset="0.5122" stop-color="#00D2FF"/>
<stop offset="0.7604" stop-color="#00DFFF"/>
<stop offset="1" stop-color="#00E3FF"/>
</linearGradient>
<linearGradient id="paint1_linear_357_8535" x1="34.0478" y1="19.9984" x2="9.69825" y2="19.9984" gradientUnits="userSpaceOnUse">
<stop stop-color="#FFE000"/>
<stop offset="0.4087" stop-color="#FFBD00"/>
<stop offset="0.7754" stop-color="#FFA500"/>
<stop offset="1" stop-color="#FF9C00"/>
</linearGradient>
<linearGradient id="paint2_linear_357_8535" x1="24.9838" y1="17.7036" x2="2.22594" y2="-5.19782" gradientUnits="userSpaceOnUse">
<stop stop-color="#FF3A44"/>
<stop offset="1" stop-color="#C31162"/>
</linearGradient>
<linearGradient id="paint3_linear_357_8535" x1="7.34348" y1="39.8238" x2="17.5059" y2="29.5974" gradientUnits="userSpaceOnUse">
<stop stop-color="#32A071"/>
<stop offset="0.0685" stop-color="#2DA771"/>
<stop offset="0.4762" stop-color="#15CF74"/>
<stop offset="0.8009" stop-color="#06E775"/>
<stop offset="1" stop-color="#00F076"/>
</linearGradient>
</defs>
</svg>
