<svg width="48" height="48" viewBox="0 0 48 48" fill="none" xmlns="http://www.w3.org/2000/svg">
<rect width="48" height="48" rx="24" fill="#EBF0F4"/>
<path d="M13 14H15.0958L17.8832 27.0737C17.9855 27.5525 18.2507 27.9805 18.6332 28.2841C19.0158 28.5876 19.4917 28.7477 19.979 28.7368H30.2275C30.7045 28.7361 31.167 28.5719 31.5385 28.2714C31.91 27.9709 32.1684 27.5521 32.271 27.0842L34 19.2632H16.2171M20.2829 33.9474C20.2829 34.5287 19.8138 35 19.235 35C18.6563 35 18.1871 34.5287 18.1871 33.9474C18.1871 33.366 18.6563 32.8947 19.235 32.8947C19.8138 32.8947 20.2829 33.366 20.2829 33.9474ZM31.8099 33.9474C31.8099 34.5287 31.3407 35 30.762 35C30.1832 35 29.7141 34.5287 29.7141 33.9474C29.7141 33.366 30.1832 32.8947 30.762 32.8947C31.3407 32.8947 31.8099 33.366 31.8099 33.9474Z" stroke="#384054" stroke-width="2" stroke-linecap="round" stroke-linejoin="round"/>
</svg>
