<svg width="250" height="60" viewBox="0 0 250 60" fill="none" xmlns="http://www.w3.org/2000/svg">
<path d="M0.549377 59.4498V16.0072H3.09577L3.22187 57.0665L121.446 56.6882V59.8281L0.549377 59.4498Z" fill="#EBF0F4"/>
<path d="M53.9022 30.0242C53.9022 28.0406 53.5764 26.2891 52.9244 24.7683C52.2861 23.2462 51.3356 21.97 50.0723 20.9385C48.8093 19.8918 47.234 19.105 45.3462 18.5741C43.472 18.0318 41.2923 17.7607 38.8069 17.7607C36.3215 17.7607 34.128 18.0318 32.2267 18.5741C30.3388 19.1176 28.7567 19.912 27.4802 20.9587C26.2036 21.9902 25.2392 23.2739 24.5874 24.8086C23.9354 26.3294 23.6096 28.0684 23.6096 30.0242C23.6096 32.0066 23.9354 33.7582 24.5874 35.279C25.2392 36.801 26.2036 38.0835 27.4802 39.1302C28.7567 40.1617 30.3388 40.9498 32.2267 41.4933C34.128 42.023 36.3215 42.2878 38.8069 42.2878C41.2923 42.2878 43.472 42.023 45.3462 41.4933C47.234 40.9498 48.8093 40.1617 50.0723 39.1302C51.3356 38.0835 52.2861 36.801 52.9244 35.279C53.5764 33.7582 53.9022 32.0066 53.9022 30.0242ZM56.5303 30.0242C56.5303 32.5362 56.0752 34.709 55.1654 36.5425C54.2556 38.3622 53.006 39.8704 51.4168 41.0646C49.8279 42.2474 47.9538 43.1226 45.7943 43.6938C43.635 44.2638 41.3058 44.5488 38.8069 44.5488C36.2943 44.5488 33.9517 44.2638 31.7785 43.6938C29.6056 43.1226 27.7177 42.2474 26.1152 41.0646C24.5127 39.8704 23.2563 38.3622 22.3465 36.5425C21.4365 34.709 20.9816 32.5362 20.9816 30.0242C20.9816 28.3534 21.1922 26.8389 21.6131 25.4808C22.0342 24.1088 22.6249 22.8868 23.3855 21.8137C24.1459 20.7279 25.0626 19.791 26.1357 19.0028C27.222 18.2147 28.4242 17.5627 29.7415 17.047C31.0723 16.5173 32.4983 16.1302 34.0195 15.8856C35.5406 15.627 37.1365 15.4984 38.8069 15.4984C41.3058 15.4984 43.635 15.7834 45.7943 16.3547C47.9538 16.9246 49.8279 17.8074 51.4168 19.0028C53.006 20.1844 54.2556 21.6913 55.1654 23.5249C56.0752 25.3445 56.5303 27.511 56.5303 30.0242Z" fill="#EBF0F4"/>
<path d="M97.8923 30.0242C97.8923 28.0406 97.5662 26.2891 96.9145 24.7683C96.2763 23.2462 95.3254 21.97 94.0624 20.9385C92.7995 19.8918 91.2239 19.105 89.336 18.5741C87.462 18.0318 85.2822 17.7607 82.7967 17.7607C80.3113 17.7607 78.1181 18.0318 76.2165 18.5741C74.329 19.1176 72.7468 19.912 71.4701 20.9587C70.1936 21.9902 69.2292 23.2739 68.5773 24.8086C67.9253 26.3294 67.5994 28.0684 67.5994 30.0242C67.5994 32.0066 67.9253 33.7582 68.5773 35.279C69.2292 36.801 70.1936 38.0835 71.4701 39.1302C72.7468 40.1617 74.329 40.9498 76.2165 41.4933C78.1181 42.023 80.3113 42.2878 82.7967 42.2878C85.2822 42.2878 87.462 42.023 89.336 41.4933C91.2239 40.9498 92.7995 40.1617 94.0624 39.1302C95.3254 38.0835 96.2763 36.801 96.9145 35.279C97.5662 33.7582 97.8923 32.0066 97.8923 30.0242ZM100.52 30.0242C100.52 32.5362 100.065 34.709 99.1552 36.5425C98.2454 38.3622 96.9961 39.8704 95.407 41.0646C93.8177 42.2474 91.9436 43.1226 89.7841 43.6938C87.6248 44.2638 85.2956 44.5488 82.7967 44.5488C80.2843 44.5488 77.9415 44.2638 75.7686 43.6938C73.5954 43.1226 71.7078 42.2474 70.105 41.0646C68.5026 39.8704 67.2464 38.3622 66.3366 36.5425C65.4264 34.709 64.9714 32.5362 64.9714 30.0242C64.9714 28.3534 65.182 26.8389 65.603 25.4808C66.024 24.1088 66.6148 22.8868 67.3755 21.8137C68.1359 20.7279 69.0526 19.791 70.1257 19.0028C71.2121 18.2147 72.414 17.5627 73.7313 17.047C75.0622 16.5173 76.4883 16.1302 78.0093 15.8856C79.5305 15.627 81.1263 15.4984 82.7967 15.4984C85.2956 15.4984 87.6248 15.7834 89.7841 16.3547C91.9436 16.9246 93.8177 17.8074 95.407 19.0028C96.9961 20.1844 98.2454 21.6913 99.1552 23.5249C100.065 25.3445 100.52 27.511 100.52 30.0242Z" fill="#EBF0F4"/>
<path d="M113.504 29.1882L134.325 16.0079H137.87L117.355 29.4328L139.132 43.999H134.793L113.504 29.738V43.999H110.917V16.0079H113.504V29.1882Z" fill="#EBF0F4"/>
<path d="M159.776 18.4732L151.505 34.2815H168.027L159.776 18.4732ZM173.119 43.999L169.269 36.6245H150.263L146.412 43.999H143.621L158.268 16.0079H161.263L175.911 43.999H173.119Z" fill="#EBF0F4"/>
<path d="M207.678 24.0545C207.678 22.8591 207.467 21.8956 207.046 21.1617C206.625 20.4152 205.939 19.8376 204.988 19.4303C204.038 19.023 202.789 18.7519 201.24 18.6157C199.706 18.4656 197.818 18.3912 195.577 18.3912H186.898V29.6371H195.495C197.736 29.6371 199.631 29.5753 201.178 29.453C202.727 29.3181 203.983 29.052 204.948 28.6586C205.912 28.2512 206.605 27.6875 207.026 26.9675C207.46 26.2348 207.678 25.2638 207.678 24.0545ZM186.898 32.0205V43.999H184.351V16.0079H198.286C200.418 16.0079 202.245 16.1781 203.766 16.5173C205.287 16.8427 206.53 17.3458 207.494 18.0243C208.472 18.6901 209.185 19.5261 209.634 20.5299C210.081 21.535 210.306 22.7103 210.306 24.0545C210.306 26.1466 209.756 27.8238 208.655 29.0873C207.555 30.3357 205.782 31.192 203.339 31.6535L212.892 43.999H209.694L200.669 31.9385C200.289 31.9662 199.902 31.9864 199.509 32.0003C199.114 32.0129 198.707 32.0205 198.286 32.0205H186.898Z" fill="#EBF0F4"/>
<path d="M230.409 3.13021V43.999H227.631V3.13021L122.204 2.878V0.555164L240.268 0.302959V3.13021H230.409Z" fill="#EBF0F4"/>
<path d="M123.509 60H0.549534V59.4502L121.446 59.8285V59.4502H122.959V57.0668H121.446V56.6885L3.22203 57.0668L3.09593 16.0076H0.549534V59.4502V60H0V15.4578H3.64532V56.5183H123.509V60Z" fill="#EBF0F4"/>
<path d="M121.446 59.8281L0.549545 59.4498H121.446V59.8281ZM0.549545 59.4498V16.0072H3.09594L3.22204 57.0665L121.446 56.6882V57.0665H3.09594V16.0072H0.549545V59.4498Z" fill="#EBF0F4"/>
<path d="M122.959 59.4502H121.446V58.9016H122.41V57.6166H121.446V57.0668H122.959V59.4502Z" fill="#EBF0F4"/>
<path d="M121.446 59.4502H0.549545H1.09888H0.549545V16.0076H3.09594V57.0668H121.446V57.6166H2.54661V16.5574H1.09888V58.9016H121.446V59.4502Z" fill="#EBF0F4"/>
<path d="M38.8092 45.0986H38.807C36.2529 45.0986 33.8626 44.8086 31.6392 44.2247C29.4083 43.6396 27.4535 42.7354 25.7893 41.5072L25.7878 41.5059H25.7868C24.1166 40.2613 22.8005 38.6812 21.8551 36.7884L21.8554 36.7897L21.8544 36.7872C20.8994 34.8628 20.4319 32.6018 20.4321 30.0242C20.4321 28.3067 20.6485 26.7367 21.0883 25.3181L21.0879 25.3193C21.5242 23.8982 22.1403 22.6207 22.9372 21.4959L22.9353 21.4984C23.7297 20.3635 24.6903 19.3824 25.8105 18.5602L25.8114 18.5589L25.8131 18.5577C26.939 17.7418 28.1831 17.0671 29.5411 16.535L29.5382 16.5362C30.9091 15.9915 32.3747 15.593 33.9324 15.3433L33.9276 15.3446C35.4815 15.081 37.1081 14.9486 38.807 14.9486C41.3474 14.9486 43.7246 15.2386 45.9346 15.8225C48.1533 16.4089 50.0961 17.3219 51.7473 18.564L51.7446 18.5615C53.4034 19.7935 54.7127 21.3748 55.6576 23.2815L55.6567 23.279C56.6125 25.1907 57.0801 27.4454 57.0799 30.0242C57.0801 32.6018 56.6122 34.8628 55.6576 36.7872L55.6567 36.7884C54.7118 38.68 53.4037 40.2588 51.747 41.5047L51.7446 41.5059C50.0939 42.7342 48.1523 43.6383 45.9346 44.2247C43.7254 44.8073 41.3489 45.0986 38.8092 45.0986ZM21.6132 25.4808C21.192 26.8389 20.9815 28.3534 20.9815 30.0242C20.9815 32.5362 21.4366 34.709 22.3464 36.5425C23.2564 38.3622 24.5128 39.8704 26.1153 41.0646C27.7178 42.2474 29.6056 43.1226 31.7786 43.6938C33.9517 44.2638 36.2943 44.5488 38.807 44.5488C41.3058 44.5488 43.6351 44.2638 45.7943 43.6938C45.8449 43.68 45.8953 43.6661 45.9457 43.6522C48.0415 43.0823 49.8653 42.2197 51.4169 41.0646C51.4789 41.0179 51.5405 40.9713 51.6015 40.9234C53.1031 39.7519 54.2912 38.2916 55.1654 36.5425C56.0469 34.767 56.5015 32.6724 56.529 30.2575C56.5299 30.1806 56.5304 30.1024 56.5304 30.0242C56.5304 27.511 56.0753 25.3445 55.1654 23.5249C54.2556 21.6913 53.0061 20.1844 51.4169 19.0028C49.828 17.8074 47.9538 16.9246 45.7943 16.3547C45.3856 16.2462 44.971 16.1491 44.5502 16.0608C42.7472 15.6863 40.8329 15.4984 38.807 15.4984C37.1363 15.4984 35.5406 15.627 34.0194 15.8856C32.4984 16.1302 31.0724 16.5173 29.7413 17.047C28.4241 17.5627 27.2221 18.2147 26.1356 19.0028C25.0626 19.791 24.1459 20.7279 23.3854 21.8137C22.6486 22.8528 22.0713 24.0331 21.653 25.3521C21.6396 25.395 21.6263 25.4379 21.6132 25.4808Z" fill="#EBF0F4"/>
<path d="M38.8069 44.5488C41.3057 44.5488 43.6349 44.2638 45.7943 43.6938C43.635 44.2638 41.3058 44.5488 38.8069 44.5488ZM45.9456 43.6522C48.0415 43.0823 49.865 42.2197 51.4169 41.0646C49.8653 42.2197 48.0415 43.0823 45.9456 43.6522ZM51.6015 40.9234C53.1031 39.7519 54.2909 38.2916 55.1653 36.5425C56.0466 34.767 56.5015 32.6724 56.529 30.2575C56.5015 32.6724 56.0469 34.767 55.1654 36.5425C54.2911 38.2916 53.1031 39.7519 51.6015 40.9234ZM56.5303 30.0242C56.5303 27.511 56.0751 25.3445 55.1653 23.5249C54.2553 21.6913 53.006 20.1844 51.4169 19.0028C49.8278 17.8074 47.9538 16.9246 45.7943 16.3547C45.3857 16.2462 44.9708 16.1491 44.5502 16.0608C44.971 16.1491 45.3856 16.2462 45.7943 16.3547C47.9538 16.9246 49.828 17.8074 51.4169 19.0028C53.006 20.1844 54.2556 21.6913 55.1654 23.5249C56.0752 25.3445 56.5303 27.511 56.5303 30.0242Z" fill="#EBF0F4"/>
<path d="M38.807 42.2881C36.3216 42.2881 34.128 42.0233 32.2268 41.4936C32.0179 41.4331 31.8129 41.3701 31.6115 41.3045C31.0067 41.1052 30.4357 40.8808 29.8984 40.6273C28.9975 40.2049 28.1915 39.7055 27.4802 39.1305C26.2037 38.0838 25.2393 36.8013 24.5874 35.2793C23.9355 33.7585 23.6096 32.0069 23.6096 30.0245C23.6096 28.1292 23.9154 26.4382 24.5271 24.9527C24.5469 24.9048 24.567 24.8568 24.5874 24.8089C24.6027 24.7723 24.6181 24.737 24.6337 24.7017C25.2846 23.2137 26.2336 21.9665 27.4802 20.959C27.6738 20.8001 27.8744 20.6475 28.0821 20.5C28.0928 20.4924 28.1034 20.4848 28.114 20.4773C29.269 19.6664 30.6399 19.0321 32.2266 18.5756C34.128 18.0321 36.3216 17.761 38.807 17.761C41.2923 17.761 43.4718 18.0321 45.3462 18.5756C47.2341 19.1053 48.8092 19.8921 50.0724 20.9388C51.3354 21.9703 52.286 23.2465 52.9245 24.7686C53.5764 26.2894 53.9023 28.0409 53.9023 30.0245C53.9023 32.0069 53.5764 33.7585 52.9245 35.2793C52.286 36.8013 51.3354 38.0838 50.0724 39.1305C49.758 39.3877 49.4242 39.6286 49.0713 39.8555C49.0696 39.8568 49.0681 39.8568 49.0666 39.8581C49.0643 39.8606 49.0619 39.8619 49.0597 39.8631C47.9967 40.5428 46.759 41.0863 45.3462 41.4936C45.1603 41.5453 44.9715 41.5958 44.7796 41.6424C43.0366 42.0725 41.0458 42.2881 38.807 42.2881ZM32.3742 40.964C34.2158 41.4772 36.3605 41.7383 38.807 41.7383C38.8078 41.7383 38.8085 41.7383 38.8093 41.7383C41.2546 41.7383 43.3845 41.4772 45.1969 40.964L45.1943 40.9653C47.025 40.4381 48.5294 39.6815 49.7248 38.7042L49.7221 38.7068C50.9188 37.7156 51.8113 36.51 52.4179 35.0674L52.4188 35.0649L52.4194 35.0636C53.0371 33.6223 53.3527 31.9476 53.3528 30.0245C53.3527 28.1002 53.0371 26.4256 52.4194 24.9842L52.4187 24.983L52.4179 24.9804C51.8116 23.5378 50.9199 22.3411 49.7248 21.3638L49.723 21.3625L49.7221 21.3612C48.5279 20.3726 47.0264 19.6172 45.1979 19.104H45.1957L45.1933 19.1027C43.3816 18.5769 41.2525 18.3096 38.807 18.3096C38.8061 18.3096 38.8056 18.3096 38.8047 18.3096C36.3604 18.3096 34.2173 18.5782 32.3777 19.104L32.3788 19.1027C30.5487 19.6299 29.038 20.3928 27.8284 21.384H27.8281L27.8256 21.3865C26.6176 22.3638 25.7126 23.5668 25.0931 25.0233H25.0932L25.0923 25.0258C24.4744 26.4672 24.1592 28.1292 24.1591 30.0245C24.1592 31.9476 24.4748 33.6223 25.0923 35.0636C25.7118 36.5062 26.6178 37.7118 27.8284 38.7055L27.8256 38.703C29.0356 39.6815 30.5476 40.4381 32.3786 40.9653L32.3742 40.964Z" fill="#EBF0F4"/>
<path d="M38.8069 42.2881C36.3215 42.2881 34.128 42.0233 32.2266 41.4936C32.0177 41.4331 31.8127 41.3701 31.6114 41.3045C31.8128 41.3701 32.0179 41.4331 32.2267 41.4936C34.128 42.0233 36.3215 42.2881 38.8069 42.2881C41.0457 42.2881 43.0365 42.0725 44.7795 41.6424C43.0365 42.0725 41.0457 42.2881 38.8069 42.2881ZM29.8983 40.6273C28.9974 40.2049 28.1914 39.7055 27.4802 39.1305C26.2034 38.0838 25.2392 36.8013 24.5874 35.2793C23.9354 33.7585 23.6094 32.0069 23.6094 30.0245C23.6094 28.1292 23.9154 26.4382 24.5271 24.9527C23.9154 26.4382 23.6096 28.1292 23.6096 30.0245C23.6096 32.0069 23.9354 33.7585 24.5874 35.2793C25.2392 36.8013 26.2036 38.0838 27.4802 39.1305C28.1914 39.7055 28.9974 40.2049 29.8983 40.6273ZM49.0596 39.8631C49.0619 39.8619 49.0643 39.8606 49.0665 39.8581C49.0643 39.8606 49.0619 39.8619 49.0596 39.8631ZM49.0712 39.8555C49.4242 39.6286 49.758 39.3877 50.0723 39.1305C49.758 39.3877 49.4243 39.6286 49.0712 39.8555ZM52.9244 35.2793C53.5764 33.7585 53.9022 32.0069 53.9022 30.0245C53.9022 32.0069 53.5764 33.7585 52.9244 35.2793ZM24.6336 24.7017C25.2846 23.2137 26.2333 21.9665 27.4802 20.959C26.2335 21.9665 25.2846 23.2137 24.6336 24.7017ZM28.0821 20.5C28.0928 20.4924 28.1034 20.4848 28.114 20.4773C28.1034 20.4848 28.0928 20.4924 28.0821 20.5Z" fill="#EBF0F4"/>
<path d="M38.807 44.5488C36.2944 44.5488 33.9517 44.2638 31.7786 43.6938C29.6056 43.1226 27.7178 42.2474 26.1153 41.0646C24.5128 39.8704 23.2564 38.3622 22.3464 36.5425C21.4366 34.709 20.9815 32.5362 20.9815 30.0242C20.9815 28.3534 21.192 26.8389 21.6132 25.4808C21.1922 26.8389 20.9816 28.3534 20.9816 30.0242C20.9816 32.5362 21.4366 34.709 22.3466 36.5425C23.2564 38.3622 24.5128 39.8704 26.1153 41.0646C27.7178 42.2474 29.6057 43.1226 31.7786 43.6938C33.9517 44.2638 36.2944 44.5488 38.807 44.5488ZM21.653 25.3521C22.0713 24.0331 22.6486 22.8528 23.3854 21.8137C24.1459 20.7279 25.0626 19.791 26.1356 19.0028C27.2221 18.2147 28.4241 17.5627 29.7413 17.047C31.0724 16.5173 32.4984 16.1302 34.0194 15.8856C35.5406 15.627 37.1363 15.4984 38.807 15.4984C40.8329 15.4984 42.7472 15.6863 44.5502 16.0608C42.7474 15.6863 40.8328 15.4984 38.807 15.4984C37.1366 15.4984 35.5406 15.627 34.0196 15.8856C32.4984 16.1302 31.0724 16.5173 29.7415 17.047C28.4242 17.5627 27.2221 18.2147 26.1357 19.0028C25.0627 19.791 24.1459 20.7279 23.3855 21.8137C22.6487 22.8528 22.0713 24.0331 21.653 25.3521Z" fill="#EBF0F4"/>
<path d="M38.8069 44.5488C36.2943 44.5488 33.9517 44.2638 31.7786 43.6938C29.6057 43.1226 27.7178 42.2474 26.1153 41.0646C24.5127 39.8704 23.2564 38.3622 22.3465 36.5425C21.4366 34.709 20.9816 32.5362 20.9816 30.0242C20.9816 28.3534 21.1922 26.8389 21.6131 25.4808C21.6262 25.4379 21.6396 25.395 21.653 25.3521C22.0713 24.0331 22.6487 22.8528 23.3855 21.8137C24.1459 20.7279 25.0627 19.791 26.1357 19.0028C27.2221 18.2147 28.4242 17.5627 29.7415 17.047C31.0724 16.5173 32.4984 16.1302 34.0195 15.8856C35.5406 15.627 37.1366 15.4984 38.8069 15.4984C40.8328 15.4984 42.7474 15.6863 44.5502 16.0608C44.9708 16.1491 45.3857 16.2462 45.7943 16.3547C47.9538 16.9246 49.8278 17.8074 51.4169 19.0028C53.006 20.1844 54.2553 21.6913 55.1653 23.5249C56.0751 25.3445 56.5304 27.511 56.5304 30.0242C56.5304 30.1024 56.5299 30.1806 56.529 30.2575C56.5015 32.6724 56.0466 34.767 55.1653 36.5425C54.2909 38.2916 53.1031 39.7519 51.6015 40.9234C51.5404 40.9713 51.4789 41.0179 51.4169 41.0646C49.865 42.2197 48.0415 43.0823 45.9456 43.6522C45.8953 43.6661 45.8449 43.68 45.7943 43.6938C43.6349 44.2638 41.3057 44.5488 38.8069 44.5488ZM26.4414 40.6232C27.9822 41.7594 29.8029 42.6068 31.918 43.1617C34.0407 43.7191 36.3359 43.999 38.8069 43.999C41.264 43.999 43.5454 43.7191 45.6539 43.1617C47.7555 42.6068 49.562 41.7594 51.089 40.6245L51.0866 40.6258C52.6085 39.4807 53.7991 38.0457 54.6739 36.2966L54.6732 36.2979C55.538 34.5551 55.9808 32.4706 55.9809 30.0242C55.9808 27.5766 55.538 25.4997 54.6739 23.7708L54.6732 23.7695C53.7982 22.0079 52.6088 20.5741 51.089 19.4429H51.0881L51.0866 19.4417C49.5599 18.2941 47.7543 17.4404 45.6539 16.8855C43.5454 16.3282 41.264 16.0482 38.8069 16.0482C37.1648 16.0482 35.5997 16.1743 34.1115 16.4278H34.1091H34.1067C32.6221 16.6674 31.2357 17.0432 29.9445 17.5577H29.943L29.9419 17.5589C28.6652 18.0583 27.5054 18.6888 26.4581 19.448L26.4609 19.4454C25.4352 20.1983 24.5624 21.0911 23.8356 22.1289L23.8351 22.1302L23.8337 22.1314C23.1095 23.1529 22.544 24.3206 22.1383 25.6422L22.1378 25.6434C21.7358 26.941 21.531 28.3988 21.531 30.0242C21.5312 32.4706 21.9738 34.5551 22.8387 36.2979L22.8378 36.2966C23.7124 38.0444 24.9088 39.4795 26.4438 40.6245L26.4414 40.6232Z" fill="#EBF0F4"/>
<path d="M44.7795 41.6426C44.9715 41.5959 45.1602 41.5455 45.3461 41.4938C46.759 41.0865 47.9967 40.543 49.0596 39.8633C47.9968 40.543 46.7591 41.0865 45.3462 41.4938C45.1604 41.5455 44.9715 41.5959 44.7795 41.6426ZM31.6115 41.3046C31.0067 41.1054 30.4355 40.8797 29.8983 40.6274C30.4357 40.8809 31.0067 41.1054 31.6115 41.3046ZM49.0665 39.8582C49.0681 39.857 49.0696 39.8569 49.0712 39.8557C49.0696 39.8569 49.0681 39.857 49.0665 39.8582ZM50.0723 39.1306C51.3354 38.0839 52.286 36.8015 52.9244 35.2794C52.2861 36.8015 51.3356 38.0839 50.0723 39.1306ZM53.9022 30.0247C53.9022 28.0411 53.5764 26.2895 52.9244 24.7687C52.286 23.2466 51.3354 21.9705 50.0723 20.9389C48.8092 19.8923 47.234 19.1054 45.3461 18.5758C43.4717 18.0323 41.2923 17.7611 38.8069 17.7611C36.3215 17.7611 34.128 18.0323 32.2266 18.5758C30.6398 19.0322 29.269 19.6666 28.114 20.4774C29.269 19.6666 30.6398 19.0323 32.2267 18.5745C34.128 18.0323 36.3215 17.7611 38.8069 17.7611C41.2923 17.7611 43.472 18.0323 45.3462 18.5745C47.234 19.1054 48.8093 19.8923 50.0723 20.9389C51.3356 21.9705 52.2861 23.2466 52.9244 24.7687C53.5764 26.2895 53.9022 28.0411 53.9022 30.0247ZM27.4802 20.9591C27.6738 20.8002 27.8744 20.6477 28.0821 20.5001C27.8744 20.6477 27.6738 20.8002 27.4802 20.9591Z" fill="#EBF0F4"/>
<path d="M38.8069 42.8359C36.2827 42.8359 34.0403 42.5686 32.0793 42.0226L32.0773 42.0213L32.0747 42.0201C30.1301 41.4614 28.4781 40.643 27.1348 39.5573L27.1338 39.556L27.132 39.5547C25.7893 38.4551 24.7667 37.0945 24.0823 35.4955C23.3962 33.8952 23.0599 32.0655 23.06 30.0238C23.0599 28.0075 23.3966 26.1916 24.0823 24.5913L24.0816 24.5938C24.7655 22.981 25.7885 21.6191 27.1329 20.5321C28.4764 19.4312 30.1293 18.6065 32.0747 18.0466H32.0722H32.0758C34.0382 17.4854 36.2818 17.2105 38.8069 17.2105C41.3321 17.2105 43.5622 17.4854 45.4991 18.0466L45.4946 18.0453C47.4418 18.5913 49.0907 19.411 50.4226 20.5144L50.42 20.5119C51.751 21.5989 52.7606 22.9558 53.4311 24.5548L53.4294 24.551C54.1157 26.1525 54.4516 27.981 54.4516 30.0238C54.4516 32.0655 54.1157 33.894 53.4294 35.4955L53.4311 35.4917C52.7607 37.0907 51.7523 38.4526 50.4229 39.5522L50.4216 39.5535L50.42 39.5547C49.0892 40.6418 47.4429 41.4614 45.4981 42.0201H45.4986L45.4957 42.0213C43.5598 42.5686 41.3311 42.8359 38.8069 42.8359ZM31.6114 41.3038C31.8127 41.3694 32.0177 41.4324 32.2266 41.4929C34.128 42.0226 36.3215 42.2874 38.8069 42.2874C41.0457 42.2874 43.0365 42.0718 44.7795 41.6417C44.9714 41.5951 45.1603 41.5446 45.3462 41.4929C46.7591 41.0856 47.9968 40.5421 49.0596 39.8624C49.0619 39.8612 49.0643 39.8599 49.0665 39.8574C49.068 39.8561 49.0696 39.8561 49.0712 39.8549C49.4243 39.6279 49.7579 39.387 50.0723 39.1298C51.3356 38.0831 52.2861 36.8007 52.9244 35.2786C53.5764 33.7578 53.9022 32.0062 53.9022 30.0238C53.9022 28.0402 53.5764 26.2887 52.9244 24.7679C52.2861 23.2458 51.3356 21.9696 50.0723 20.9381C48.8093 19.8915 47.234 19.1046 45.3462 18.5737C43.472 18.0314 41.2923 17.7603 38.8069 17.7603C36.3215 17.7603 34.128 18.0314 32.2267 18.5737C30.6398 19.0314 29.2689 19.6657 28.114 20.4766C28.1034 20.4841 28.0928 20.4917 28.0821 20.4993C27.8744 20.6468 27.6737 20.7994 27.4802 20.9583C26.2333 21.9658 25.2846 23.213 24.6336 24.701C24.618 24.7363 24.6026 24.7717 24.5874 24.8082C24.5669 24.8561 24.5469 24.9041 24.5271 24.952C23.9154 26.4375 23.6094 28.1285 23.6094 30.0238C23.6094 32.0062 23.9354 33.7578 24.5874 35.2786C25.2392 36.8007 26.2034 38.0831 27.4802 39.1298C28.1914 39.7048 28.9974 40.2042 29.8983 40.6266C30.4355 40.8788 31.0066 41.1045 31.6114 41.3038Z" fill="#EBF0F4"/>
<path d="M82.7991 45.0986H82.7968C80.2429 45.0986 77.8526 44.8086 75.6293 44.2247C73.3985 43.6396 71.4435 42.7354 69.7791 41.5072L69.7777 41.5059H69.7767C68.1066 40.2613 66.7906 38.6812 65.8452 36.7884H65.845L65.8445 36.7872C64.8894 34.8628 64.422 32.6018 64.4222 30.0242C64.4222 28.3067 64.6383 26.7367 65.0783 25.3181L65.0778 25.3193C65.514 23.8982 66.1304 22.6195 66.9274 21.4959L66.9255 21.4984C67.7196 20.3635 68.6803 19.3824 69.8008 18.5602L69.8014 18.5589L69.8033 18.5577C70.929 17.7418 72.1731 17.0671 73.531 16.535L73.5283 16.5362C74.8991 15.9915 76.3646 15.593 77.9223 15.3433L77.9177 15.3446C79.4714 15.081 81.0982 14.9486 82.7968 14.9486C85.3376 14.9486 87.7147 15.2386 89.9247 15.8225C92.1432 16.4089 94.086 17.3219 95.7373 18.564L95.7349 18.5615C97.3933 19.7935 98.7026 21.3748 99.6475 23.2815L99.6466 23.279C100.603 25.1907 101.07 27.4454 101.07 30.0242C101.07 32.6018 100.603 34.8628 99.6475 36.7872L99.6468 36.7884C98.702 38.68 97.3937 40.2588 95.7374 41.5047H95.7369L95.7349 41.5059C94.0838 42.7342 92.1422 43.6383 89.9245 44.2247C87.7153 44.8073 85.3391 45.0986 82.7991 45.0986ZM64.9715 30.0242C64.9715 32.5362 65.4265 34.709 66.3365 36.5425C67.2465 38.3622 68.5027 39.8704 70.1051 41.0646C71.7077 42.2474 73.5956 43.1226 75.7686 43.6938C77.9416 44.2638 80.2842 44.5488 82.7968 44.5488C85.2957 44.5488 87.625 44.2638 89.7842 43.6938C89.8348 43.68 89.8852 43.6661 89.9355 43.6522C92.0314 43.0823 93.8552 42.2197 95.4072 41.0646C96.9962 39.8704 98.2455 38.3622 99.1553 36.5425C100.066 34.709 100.52 32.5362 100.52 30.0242C100.52 27.511 100.066 25.3445 99.1553 23.5249C98.2455 21.6913 96.9962 20.1844 95.4072 19.0028C93.8179 17.8074 91.9437 16.9246 89.7842 16.3547C89.6999 16.332 89.6152 16.3105 89.5304 16.2891C87.4427 15.762 85.1981 15.4984 82.7968 15.4984C81.1265 15.4984 79.5305 15.627 78.0095 15.8856C76.4884 16.1302 75.0623 16.5173 73.7314 17.047C73.5771 17.1075 73.4242 17.1693 73.273 17.2336C72.1341 17.7178 71.0849 18.3067 70.1256 19.0028C69.0527 19.791 68.1358 20.7279 67.3757 21.8137C67.3637 21.8301 67.352 21.8477 67.3401 21.8641C66.5965 22.9246 66.0173 24.1302 65.6032 25.4808C65.1885 26.8175 64.9782 28.3055 64.9716 29.9448C64.9716 29.9713 64.9715 29.9978 64.9715 30.0242Z" fill="#EBF0F4"/>
<path d="M89.9355 43.6523C92.0313 43.0824 93.8549 42.2198 95.4071 41.0647C93.8552 42.2198 92.0313 43.0824 89.9355 43.6523ZM95.4071 41.0647C96.9959 39.8705 98.2455 38.3623 99.1552 36.5426C100.065 34.7091 100.52 32.5363 100.52 30.0243C100.52 27.5111 100.065 25.3447 99.1552 23.525C98.2455 21.6914 96.9959 20.1845 95.4071 19.0029C93.8177 17.8075 91.9437 16.9247 89.7842 16.3548C89.6998 16.3321 89.6152 16.3106 89.5303 16.2892C89.6152 16.3106 89.6998 16.3321 89.7842 16.3548C91.9437 16.9247 93.8178 17.8075 95.4071 19.0029C96.9961 20.1845 98.2455 21.6914 99.1553 23.525C100.066 25.3447 100.52 27.5111 100.52 30.0243C100.52 32.5363 100.066 34.7091 99.1553 36.5426C98.2455 38.3623 96.9961 39.8705 95.4071 41.0647Z" fill="#EBF0F4"/>
<path d="M82.7968 42.2881C80.3115 42.2881 78.1183 42.0233 76.2166 41.4936C75.4756 41.2805 74.7816 41.0296 74.1347 40.7408C73.1339 40.2944 72.2456 39.7572 71.4702 39.1305C70.1937 38.0838 69.2294 36.8013 68.5774 35.2793C67.9255 33.7585 67.5995 32.0069 67.5995 30.0245C67.5995 28.0989 67.9154 26.3839 68.547 24.8808C68.5571 24.8568 68.5672 24.8329 68.5774 24.8089C68.5927 24.7723 68.6082 24.737 68.6238 24.7017C69.2746 23.2137 70.2236 21.9665 71.4702 20.959C72.1983 20.3625 73.0258 19.848 73.9527 19.4142C74.6509 19.0889 75.4057 18.8089 76.2166 18.5756C78.0586 18.0485 80.1745 17.7774 82.5643 17.761C82.603 17.761 82.6417 17.761 82.6806 17.761C82.7193 17.761 82.758 17.761 82.7968 17.761C85.2822 17.761 87.462 18.0321 89.3362 18.5756C91.2239 19.1053 92.7995 19.8921 94.0623 20.9388C95.3256 21.9703 96.2761 23.2465 96.9143 24.7686C97.5663 26.2894 97.8924 28.0409 97.8924 30.0245C97.8924 30.8051 97.8417 31.5504 97.7406 32.2604C97.5848 33.3512 97.3094 34.3575 96.9143 35.2793C96.2761 36.8013 95.3256 38.0838 94.0623 39.1305C92.7995 40.162 91.2239 40.9501 89.3362 41.4936C87.5077 42.0107 85.388 42.2742 82.9774 42.2868C82.9174 42.2881 82.8572 42.2881 82.7968 42.2881ZM76.364 40.964C78.2059 41.4772 80.3504 41.7383 82.7968 41.7383C82.7977 41.7383 82.7983 41.7383 82.7992 41.7383C85.2442 41.7383 87.3739 41.4772 89.1857 40.9653C91.0159 40.4381 92.5199 39.6815 93.7147 38.7042L93.7119 38.7068C94.9088 37.7156 95.8016 36.51 96.4078 35.0674L96.4087 35.0649L96.4095 35.0636C97.0271 33.6223 97.343 31.9476 97.3431 30.0245C97.343 28.1015 97.0271 26.4256 96.4095 24.9842L96.4089 24.983L96.4078 24.9804C95.8017 23.5378 94.91 22.3411 93.7147 21.3638L93.7137 21.3625L93.7119 21.3612C92.5181 20.3726 91.0162 19.6172 89.1877 19.104L89.1848 19.1027H89.1832C87.3718 18.5769 85.2423 18.3096 82.7968 18.3096C82.7959 18.3096 82.7954 18.3096 82.7945 18.3096C80.3503 18.3096 78.2075 18.5782 76.3677 19.104L76.3687 19.1027C74.5389 19.6299 73.0279 20.3928 71.8184 21.384L71.8158 21.3865C70.6077 22.3638 69.7028 23.5668 69.0831 25.0233L69.0825 25.0258C68.4646 26.4672 68.149 28.1292 68.1489 30.0245C68.149 31.9476 68.4648 33.6223 69.0825 35.0636C69.7019 36.5062 70.6078 37.7118 71.8184 38.7055L71.8158 38.703C73.0255 39.6815 74.5378 40.4381 76.3687 40.9653L76.364 40.964Z" fill="#EBF0F4"/>
<path d="M82.7968 42.2881C80.3114 42.2881 78.1181 42.0233 76.2166 41.4936C78.1182 42.0233 80.3114 42.2881 82.7968 42.2881ZM82.9774 42.2868C85.388 42.2742 87.5076 42.0107 89.3361 41.4936C87.5075 42.0107 85.3878 42.2742 82.9774 42.2868ZM74.1346 40.7408C73.1336 40.2944 72.2455 39.7572 71.4701 39.1305C70.1935 38.0838 69.2293 36.8013 68.5774 35.2793C67.9254 33.7585 67.5993 32.0069 67.5993 30.0245C67.5993 28.0989 67.9154 26.3839 68.547 24.8808C67.9154 26.3839 67.5995 28.0989 67.5995 30.0245C67.5995 32.0069 67.9254 33.7585 68.5774 35.2793C69.2293 36.8013 70.1937 38.0838 71.4702 39.1305C72.2456 39.7572 73.1339 40.2944 74.1346 40.7408ZM97.7405 32.2604C97.8417 31.5504 97.8924 30.8051 97.8924 30.0245C97.8924 30.8051 97.8418 31.5504 97.7405 32.2604ZM68.6238 24.7017C69.2746 23.2137 70.2234 21.9665 71.4701 20.959C72.1982 20.3625 73.0257 19.848 73.9527 19.4142C73.0258 19.848 72.1983 20.3625 71.4702 20.959C70.2235 21.9665 69.2746 23.2137 68.6238 24.7017ZM82.5643 17.761C82.603 17.761 82.6417 17.761 82.6805 17.761C82.6417 17.761 82.603 17.761 82.5643 17.761Z" fill="#EBF0F4"/>
<path d="M82.7969 44.5488C80.2842 44.5488 77.9416 44.2638 75.7686 43.6938C73.5956 43.1226 71.7077 42.2474 70.1051 41.0646C68.5027 39.8704 67.2466 38.3622 66.3365 36.5425C65.4265 34.709 64.9715 32.5362 64.9715 30.0242C64.9715 32.5362 65.4265 34.709 66.3367 36.5425C67.2466 38.3622 68.5028 39.8704 70.1052 41.0646C71.708 42.2474 73.5956 43.1226 75.7687 43.6938C77.9416 44.2638 80.2845 44.5488 82.7969 44.5488C85.2957 44.5488 87.625 44.2638 89.7842 43.6938C89.8348 43.68 89.8852 43.6661 89.9356 43.6522C89.8852 43.6661 89.8348 43.68 89.7842 43.6938C87.625 44.2638 85.2957 44.5488 82.7969 44.5488ZM64.9717 29.9448C64.9782 28.3055 65.1885 26.8175 65.6032 25.4808C65.1887 26.8175 64.9782 28.3055 64.9717 29.9448ZM65.6032 25.4808C66.0173 24.1302 66.5965 22.9246 67.3401 21.8641C66.5965 22.9246 66.0176 24.1302 65.6032 25.4808ZM67.3757 21.8137C68.1358 20.7279 69.0527 19.791 70.1256 19.0028C71.0849 18.3067 72.1341 17.7178 73.273 17.2336C72.1341 17.7178 71.0849 18.3067 70.1259 19.0028C69.0527 19.791 68.1361 20.7279 67.3757 21.8137ZM89.5304 16.2891C87.4427 15.762 85.1981 15.4984 82.7969 15.4984C81.1265 15.4984 79.5306 15.627 78.0095 15.8856C79.5305 15.627 81.1265 15.4984 82.7969 15.4984C85.1981 15.4984 87.4427 15.762 89.5304 16.2891Z" fill="#EBF0F4"/>
<path d="M82.7969 44.5488C80.2845 44.5488 77.9416 44.2638 75.7687 43.6938C73.5956 43.1226 71.708 42.2474 70.1052 41.0646C68.5028 39.8704 67.2466 38.3622 66.3367 36.5425C65.4265 34.709 64.9715 32.5362 64.9715 30.0242C64.9715 29.9978 64.9717 29.9713 64.9717 29.9448C64.9782 28.3055 65.1887 26.8175 65.6032 25.4808C66.0176 24.1302 66.5965 22.9246 67.3401 21.8641C67.352 21.8477 67.3637 21.8301 67.3757 21.8137C68.1361 20.7279 69.0527 19.791 70.1259 19.0028C71.0849 18.3067 72.1341 17.7178 73.273 17.2336C73.4242 17.1693 73.5771 17.1075 73.7314 17.047C75.0623 16.5173 76.4884 16.1302 78.0095 15.8856C79.5306 15.627 81.1265 15.4984 82.7969 15.4984C85.1981 15.4984 87.4427 15.762 89.5304 16.2891C89.6153 16.3105 89.6999 16.332 89.7842 16.3547C91.9438 16.9246 93.8178 17.8074 95.4072 19.0028C96.996 20.1844 98.2455 21.6913 99.1552 23.5249C100.065 25.3445 100.52 27.511 100.52 30.0242C100.52 32.5362 100.065 34.709 99.1552 36.5425C98.2455 38.3622 96.996 39.8704 95.4072 41.0646C93.855 42.2197 92.0314 43.0823 89.9356 43.6522C89.8852 43.6661 89.8348 43.68 89.7842 43.6938C87.625 44.2638 85.2957 44.5488 82.7969 44.5488ZM70.4312 40.6232C71.9723 41.7594 73.793 42.6068 75.9082 43.1617C78.0308 43.7191 80.326 43.999 82.7969 43.999C85.254 43.999 87.5353 43.7191 89.6441 43.1617C91.7454 42.6068 93.5519 41.7594 95.0793 40.6245L95.0769 40.6258C96.5981 39.4807 97.7886 38.0457 98.6634 36.2979C99.5285 34.5551 99.9707 32.4706 99.971 30.0242C99.9707 27.5766 99.5284 25.4997 98.6639 23.7708L98.6632 23.7695C97.7884 22.0079 96.5987 20.5741 95.0793 19.4429H95.0779L95.0769 19.4417C93.5499 18.2941 91.7444 17.4404 89.6439 16.8855C87.5354 16.3282 85.2541 16.0482 82.7969 16.0482C81.1547 16.0482 79.5897 16.1743 78.1014 16.4278H78.0999H78.0966C76.6122 16.6674 75.2256 17.0432 73.9344 17.5577H73.9332L73.9318 17.5589C72.6551 18.0583 71.4955 18.6888 70.4482 19.448L70.451 19.4454C69.4251 20.1983 68.5524 21.0911 67.8259 22.1289L67.8251 22.1302L67.8239 22.1314C67.0996 23.1529 66.5339 24.3206 66.1284 25.6422L66.1294 25.6396L66.128 25.6434C65.7258 26.941 65.5211 28.3988 65.5211 30.0242C65.5212 32.4706 65.9636 34.5551 66.8286 36.2979C67.7029 38.0444 68.8993 39.4795 70.4337 40.6245L70.4312 40.6232Z" fill="#EBF0F4"/>
<path d="M82.7968 42.2881C82.8572 42.2881 82.9174 42.2881 82.9774 42.2868C82.9174 42.2881 82.8572 42.2881 82.7968 42.2881ZM89.3362 41.4936C91.2239 40.9501 92.7995 40.162 94.0623 39.1305C95.3256 38.0838 96.2761 36.8013 96.9143 35.2793C97.3094 34.3575 97.5848 33.3512 97.7406 32.2604C97.5848 33.3512 97.3095 34.3575 96.9146 35.2793C96.2764 36.8013 95.3256 38.0838 94.0625 39.1305C92.7996 40.162 91.224 40.9501 89.3362 41.4936ZM76.2166 41.4936C75.4755 41.2805 74.7816 41.0296 74.1347 40.7408C74.7816 41.0296 75.4756 41.2805 76.2166 41.4936ZM97.8924 30.0245C97.8924 28.0409 97.5663 26.2894 96.9143 24.7686C96.2761 23.2465 95.3256 21.9703 94.0623 20.9388C92.7995 19.8921 91.2239 19.1053 89.3362 18.5756C87.462 18.0321 85.2822 17.761 82.7968 17.761C82.758 17.761 82.7193 17.761 82.6806 17.761C82.7193 17.761 82.758 17.761 82.7968 17.761C85.2823 17.761 87.4621 18.0321 89.3362 18.5744C91.224 19.1053 92.7996 19.8921 94.0625 20.9388C95.3256 21.9703 96.2764 23.2465 96.9146 24.7686C97.5663 26.2894 97.8924 28.0409 97.8924 30.0245ZM73.9527 19.4142C74.6509 19.0889 75.4057 18.8089 76.2166 18.5744C78.0587 18.0485 80.1745 17.7774 82.5643 17.761C80.1745 17.7774 78.0586 18.0485 76.2166 18.5756C75.4057 18.8089 74.6509 19.0889 73.9527 19.4142Z" fill="#EBF0F4"/>
<path d="M82.7968 42.8359C80.2727 42.8359 78.0306 42.5686 76.0692 42.0226L76.0664 42.0213L76.0647 42.0201C74.1204 41.4614 72.4681 40.643 71.1248 39.5573L71.1228 39.5547H71.1219C69.7794 38.4551 68.7569 37.0945 68.0724 35.4955C67.3862 33.8952 67.05 32.0655 67.05 30.0238C67.0498 28.0075 67.3866 26.1916 68.0724 24.5913L68.0717 24.5938C68.7556 22.981 69.7785 21.6191 71.1228 20.5321C72.4664 19.4312 74.1197 18.6065 76.0647 18.0466H76.0657C78.0282 17.4854 80.2717 17.2105 82.7968 17.2105C85.3222 17.2105 87.5524 17.4854 89.4892 18.0466L89.4846 18.0453C91.4317 18.5913 93.0809 19.411 94.4128 20.5144L94.41 20.5119C95.7411 21.5989 96.7509 22.9545 97.4211 24.5548L97.4194 24.551C98.1056 26.1525 98.4419 27.981 98.4418 30.0238C98.4419 32.0655 98.1056 33.8952 97.4194 35.4955L97.4211 35.4917C96.751 37.0907 95.7422 38.4526 94.4128 39.5522L94.41 39.5547C93.0793 40.6418 91.4331 41.4614 89.4882 42.0201H89.4885L89.4856 42.0213C87.5502 42.5686 85.321 42.8359 82.7968 42.8359ZM76.2166 41.4929C78.1181 42.0226 80.3114 42.2874 82.7968 42.2874C82.8572 42.2874 82.9174 42.2874 82.9774 42.2861C85.3879 42.2735 87.5075 42.01 89.3362 41.4929C91.224 40.9494 92.7996 40.1613 94.0625 39.1298C95.3256 38.0831 96.2764 36.8007 96.9146 35.2786C97.3095 34.3568 97.5848 33.3505 97.7406 32.2597C97.8418 31.5497 97.8924 30.8044 97.8924 30.0238C97.8924 28.0402 97.5663 26.2887 96.9146 24.7679C96.2764 23.2458 95.3256 21.9696 94.0625 20.9381C92.7996 19.8915 91.224 19.1046 89.3362 18.5737C87.4621 18.0314 85.2823 17.7603 82.7968 17.7603C82.758 17.7603 82.7193 17.7603 82.6805 17.7603C82.6417 17.7603 82.603 17.7603 82.5643 17.7603C80.1745 17.7767 78.0587 18.0478 76.2166 18.5737C75.4057 18.8082 74.6509 19.0882 73.9527 19.4135C73.0257 19.8473 72.1982 20.3618 71.4701 20.9583C70.2234 21.9658 69.2746 23.213 68.6238 24.701C68.6082 24.7363 68.5927 24.7717 68.5774 24.8082C68.5672 24.8322 68.5571 24.8561 68.547 24.8801C67.9154 26.3832 67.5994 28.0983 67.5994 30.0238C67.5994 32.0062 67.9255 33.7578 68.5774 35.2786C69.2294 36.8007 70.1936 38.0831 71.4701 39.1298C72.2455 39.7565 73.1336 40.2937 74.1347 40.7401C74.7816 41.0289 75.4755 41.2798 76.2166 41.4929Z" fill="#EBF0F4"/>
<path d="M140.941 44.5469H134.626L114.054 30.7676V44.5469H110.368V15.4574H114.054V28.19L134.164 15.4574H139.712L118.35 29.4372L140.941 44.5469ZM113.504 29.7373L134.792 43.9983H139.132L131.92 39.1749L117.355 29.4321L137.869 16.0072H134.325L113.504 29.1875V16.0072H110.917V43.9983H113.504V29.7373Z" fill="#EBF0F4"/>
<path d="M139.132 43.998H134.792L113.504 29.737L134.792 43.998H139.132ZM113.504 43.998H110.917V16.0069H113.504H110.917V43.998H113.504ZM131.92 39.1746L117.355 29.4318L137.869 16.0069L117.355 29.4318L131.92 39.1746Z" fill="#EBF0F4"/>
<path d="M139.132 43.998H134.792L113.504 29.737V43.998H110.917V16.0069H113.504V29.1872L134.325 16.0069H137.869L117.355 29.4318L131.92 39.1746L139.132 43.998ZM114.089 29.4684L134.96 43.4482H137.322L116.359 29.4268L136.026 16.5567H134.483L114.089 29.4684ZM111.466 16.5567V43.4482H112.955V28.708V16.5567H111.466Z" fill="#EBF0F4"/>
<path d="M176.818 44.5469H173.119V43.9983H175.911L161.263 16.0072H158.268L143.621 43.9983H146.412L150.263 36.6238H169.269L171.799 41.4687L173.119 43.9983V44.5469H172.786L168.936 37.1736H150.596L146.745 44.5469H142.713L157.936 15.4574H161.596L176.818 44.5469Z" fill="#EBF0F4"/>
<path d="M175.911 43.998H173.119H173.12H175.911ZM173.119 43.998L171.799 41.4684L173.119 43.998H173.12H173.119ZM146.412 43.998H143.621H146.412Z" fill="#EBF0F4"/>
<path d="M168.027 34.2812H151.505L159.776 18.473L168.027 34.2812ZM159.775 19.6583L152.413 33.7314H167.12L159.775 19.6583Z" fill="#EBF0F4"/>
<path d="M168.027 34.2812L159.776 18.473L168.027 34.2812ZM151.505 34.2812L159.776 18.473L151.505 34.2812Z" fill="#EBF0F4"/>
<path d="M175.911 43.998L161.263 16.0069L175.911 43.998ZM146.412 43.998L150.263 36.6235H169.269L171.799 41.4684L169.269 36.6235H150.263L146.412 43.998ZM143.621 43.998L158.268 16.0069L143.621 43.998Z" fill="#EBF0F4"/>
<path d="M175.911 43.998H173.12L173.606 43.7433L173.12 43.998H173.119L171.799 41.4684L169.269 36.6235H150.263L146.412 43.998H143.621L158.268 16.0069H161.263L175.911 43.998ZM173.452 43.4482H175.003L160.93 16.5567H158.601L144.529 43.4482H146.079L149.93 36.0737H169.602L173.452 43.4482Z" fill="#EBF0F4"/>
<path d="M168.934 34.8311H150.597L159.289 18.2182L159.776 17.2863L168.934 34.8311ZM151.505 34.2812H168.027L159.776 18.4729L159.289 18.7264L159.776 18.4729L151.505 34.2812Z" fill="#EBF0F4"/>
<path d="M214.012 44.5469H209.419L200.408 32.5065C200.118 32.5242 199.824 32.5381 199.526 32.5481H199.528C199.127 32.562 198.713 32.5683 198.286 32.5683H187.447V44.5469H183.803V15.4574H198.286C200.448 15.4586 202.311 15.6289 203.886 15.9807L203.881 15.9794C205.452 16.3161 206.762 16.8395 207.804 17.5709C208.855 18.2846 209.645 19.2052 210.135 20.306C210.62 21.3943 210.854 22.649 210.854 24.0538C210.854 25.1471 210.71 26.1484 210.415 27.0513C210.119 27.9542 209.669 28.7587 209.07 29.4473H209.069L209.067 29.4485C208.462 30.137 207.68 30.7058 206.739 31.1597C206.022 31.5065 205.211 31.7865 204.307 32.0059L214.012 44.5469ZM205.832 38.8357L209.694 43.9983H212.892L203.338 31.6528C205.782 31.1913 207.555 30.335 208.655 29.0866C209.756 27.8231 210.306 26.1459 210.306 24.0538C210.306 22.7096 210.081 21.5343 209.634 20.5292C209.185 19.5254 208.472 18.6894 207.494 18.0236C206.53 17.3451 205.287 16.842 203.766 16.5166C202.245 16.1774 200.418 16.0072 198.286 16.0072H184.351V43.9983H186.898V32.0198H198.286C198.707 32.0198 199.114 32.0122 199.509 31.9996C199.558 31.9971 199.607 31.9958 199.655 31.9933C199.999 31.9807 200.337 31.9618 200.669 31.9378L205.832 38.8357Z" fill="#EBF0F4"/>
<path d="M212.892 43.998H209.694L205.832 38.8354L209.694 43.998H212.892ZM186.898 43.998H184.351V16.0069H198.286C200.418 16.0069 202.245 16.1771 203.766 16.5164C205.287 16.8417 206.53 17.3449 207.494 18.0233C208.472 18.6891 209.185 19.5252 209.634 20.5289C210.081 21.534 210.306 22.7093 210.306 24.0535C210.306 22.7093 210.081 21.534 209.634 20.5289C209.185 19.5252 208.472 18.6891 207.494 18.0245C206.53 17.3448 205.287 16.8417 203.766 16.5164C202.245 16.1771 200.418 16.0069 198.286 16.0069H184.351V43.998H186.898ZM199.655 31.993C199.999 31.9804 200.337 31.9615 200.669 31.9375C200.337 31.9615 199.999 31.9804 199.655 31.993Z" fill="#EBF0F4"/>
<path d="M195.495 29.6367H186.898V18.3908H195.577C197.818 18.3908 199.705 18.4652 201.24 18.6153C202.789 18.7515 204.038 19.0226 204.988 19.4299C205.939 19.8372 206.625 20.4148 207.046 21.1613C207.467 21.8952 207.678 22.8587 207.678 24.0541C207.678 25.2634 207.46 26.2344 207.026 26.9671C206.605 27.6871 205.912 28.2508 204.948 28.6582C203.983 29.0516 202.727 29.3177 201.178 29.4526C199.63 29.5749 197.736 29.6367 195.495 29.6367ZM187.447 18.9406V29.0869H195.495C197.726 29.0869 199.608 29.0264 201.135 28.9053H201.13C202.64 28.7742 203.845 28.5144 204.733 28.1525C205.176 27.9658 205.544 27.7477 205.843 27.5043C206.143 27.2597 206.375 26.9911 206.552 26.6897L206.553 26.6872C206.736 26.3782 206.881 26.0075 206.978 25.5686C207.076 25.1311 207.128 24.6266 207.128 24.0541C207.128 23.4892 207.077 22.9873 206.983 22.5522C206.887 22.1159 206.747 21.7452 206.569 21.435L206.568 21.4324L206.567 21.4312C206.389 21.1159 206.158 20.8385 205.862 20.5888C205.565 20.3404 205.205 20.121 204.772 19.9356C203.901 19.5611 202.702 19.2937 201.192 19.1626H201.19L201.187 19.1613C199.678 19.015 197.805 18.9406 195.577 18.9406H187.447Z" fill="#EBF0F4"/>
<path d="M201.178 29.4521C202.727 29.3172 203.983 29.0511 204.948 28.6577C205.912 28.2504 206.605 27.6867 207.026 26.9666C207.46 26.234 207.678 25.263 207.678 24.0536C207.678 25.263 207.461 26.234 207.026 26.9666C206.605 27.6867 205.912 28.2504 204.948 28.6577C203.983 29.0511 202.727 29.3172 201.178 29.4521Z" fill="#EBF0F4"/>
<path d="M212.892 43.998L203.338 31.6525L212.892 43.998ZM186.898 43.998V32.0195H198.286C198.707 32.0195 199.114 32.0119 199.509 31.9993C199.558 31.9968 199.607 31.9955 199.655 31.993C199.607 31.9955 199.558 31.9968 199.509 31.9993C199.114 32.0119 198.707 32.0195 198.286 32.0195H186.898V43.998ZM186.898 32.0195V32.568V32.0195ZM205.832 38.8354L200.669 31.9375L205.832 38.8354Z" fill="#EBF0F4"/>
<path d="M212.892 43.998H209.694L205.832 38.8354L200.669 31.9375C200.337 31.9615 199.999 31.9804 199.655 31.993C199.607 31.9955 199.558 31.9968 199.509 31.9993C199.114 32.0119 198.707 32.0195 198.286 32.0195H186.898V43.998H184.351V16.0069H198.286C200.418 16.0069 202.245 16.1771 203.766 16.5164C205.287 16.8417 206.53 17.3448 207.494 18.0245C208.472 18.6891 209.185 19.5252 209.634 20.5289C210.081 21.534 210.306 22.7093 210.306 24.0535C210.306 26.1456 209.756 27.8228 208.655 29.0863C207.555 30.3348 205.782 31.191 203.338 31.6525L212.892 43.998ZM200.93 31.3688L209.969 43.4482H211.772L202.355 31.2793L203.236 31.1128C204.422 30.8883 205.431 30.5718 206.262 30.1695C207.094 29.7673 207.748 29.2831 208.243 28.7219L208.24 28.7244C208.741 28.1494 209.117 27.4836 209.371 26.7093C209.625 25.935 209.756 25.051 209.756 24.0535C209.756 22.7698 209.541 21.674 209.132 20.7534C208.724 19.8442 208.089 19.0939 207.185 18.4785L207.181 18.476L207.177 18.4735C206.292 17.848 205.119 17.3675 203.651 17.0535L203.647 17.0523H203.646C202.178 16.7244 200.389 16.5567 198.286 16.5567H184.901V43.4482H186.349V32.0195V31.4697H198.286C198.702 31.4697 199.103 31.4634 199.489 31.4495H199.49C199.877 31.4369 200.257 31.4167 200.63 31.3902L200.93 31.3688Z" fill="#EBF0F4"/>
<path d="M195.495 29.6367C197.736 29.6367 199.63 29.5749 201.178 29.4526C199.631 29.5749 197.736 29.6367 195.495 29.6367ZM186.898 29.6367V18.3908H195.577C197.818 18.3908 199.705 18.4652 201.24 18.6153C202.789 18.7515 204.038 19.0226 204.988 19.4299C205.939 19.8372 206.625 20.4148 207.046 21.1613C207.467 21.8952 207.678 22.8587 207.678 24.0541C207.678 22.8587 207.467 21.8952 207.046 21.1613C206.625 20.4148 205.939 19.8372 204.988 19.4299C204.038 19.0226 202.789 18.7515 201.24 18.6153C199.705 18.4652 197.818 18.3908 195.577 18.3908H186.898V29.6367Z" fill="#EBF0F4"/>
<path d="M195.495 30.1846H186.349V17.8416H195.577C197.83 17.8416 199.733 17.916 201.293 18.0673H201.288C202.874 18.2073 204.175 18.4834 205.205 18.9248C205.722 19.1467 206.18 19.4191 206.569 19.747C206.959 20.0749 207.282 20.4595 207.525 20.8908L207.523 20.887C207.765 21.3107 207.941 21.7886 208.056 22.317C208.172 22.8454 208.226 23.4242 208.226 24.0534C208.226 24.6902 208.17 25.2754 208.051 25.8088C207.931 26.3409 207.75 26.8227 207.499 27.2464L207.5 27.2438C207.254 27.6638 206.93 28.0358 206.537 28.3561C206.144 28.6751 205.684 28.9437 205.162 29.1644L205.158 29.1656L205.156 29.1669C204.117 29.5893 202.811 29.8592 201.226 29.9992L201.224 30.0005H201.223C199.653 30.124 197.746 30.1846 195.495 30.1846ZM186.898 29.636H195.495C197.736 29.636 199.631 29.5742 201.178 29.4519C202.727 29.317 203.983 29.0509 204.948 28.6575C205.912 28.2502 206.605 27.6864 207.026 26.9664C207.461 26.2337 207.678 25.2627 207.678 24.0534C207.678 22.858 207.467 21.8945 207.046 21.1606C206.625 20.4141 205.939 19.8365 204.988 19.4292C204.038 19.0219 202.789 18.7508 201.24 18.6146C199.706 18.4645 197.818 18.3901 195.577 18.3901H186.898V29.636Z" fill="#EBF0F4"/>
<path d="M230.833 44.5469H227.207V3.42712H116.61V0.00592422H240.818V3.42712H230.833V44.5469ZM122.204 2.87731L227.631 3.12952V43.9983H230.409V3.12952H240.268V0.302265L122.204 0.554474H117.16V2.87731H122.204Z" fill="#EBF0F4"/>
<path d="M230.409 43.998H227.631V3.12923L122.204 2.87703H227.757V43.998H230.283V2.87703V3.42683V2.87703H240.268V0.554188H122.204L240.268 0.301983V3.12923H230.409V43.998Z" fill="#EBF0F4"/>
<path d="M122.204 2.87695H117.16V0.554116H122.204V1.10395H117.709V2.32715H122.204V2.87695Z" fill="#EBF0F4"/>
<path d="M230.283 43.998H227.757V2.87703H122.204V2.32722H228.307V43.4482H229.733V2.87703V2.32722H239.719V1.10402H122.204V0.554192H240.268V2.87703H230.283V43.998Z" fill="#EBF0F4"/>
<path d="M23.7422 56.5197H123.547V59.9951H23.7422V56.5197Z" fill="url(#paint0_linear_1247_2628)"/>
<path d="M214.635 -4.19617e-05H114.918V3.42871H214.635V-4.19617e-05Z" fill="url(#paint1_linear_1247_2628)"/>
<path d="M230.921 0.00486946H249.616V3.4248H230.921V0.00486946Z" fill="url(#paint2_linear_1247_2628)"/>
<defs>
<linearGradient id="paint0_linear_1247_2628" x1="23.7422" y1="58.2574" x2="123.547" y2="58.2574" gradientUnits="userSpaceOnUse">
<stop stop-color="#EBF0F4"/>
<stop offset="1" stop-color="#384054"/>
</linearGradient>
<linearGradient id="paint1_linear_1247_2628" x1="214.635" y1="1.71497" x2="114.917" y2="1.71498" gradientUnits="userSpaceOnUse">
<stop stop-color="#EBF0F4"/>
<stop offset="1" stop-color="#384054"/>
</linearGradient>
<linearGradient id="paint2_linear_1247_2628" x1="230.921" y1="1.71484" x2="249.615" y2="1.71484" gradientUnits="userSpaceOnUse">
<stop stop-color="#EBF0F4"/>
<stop offset="1" stop-color="#384054"/>
</linearGradient>
</defs>
</svg>
