<svg width="208" height="58" viewBox="0 0 208 58" fill="none" xmlns="http://www.w3.org/2000/svg">
<path d="M199.949 58H8.28239C4.06764 58 0.615723 54.7357 0.615723 50.75V7.25C0.615723 3.26431 4.06764 -1.6589e-06 8.28239 -1.6589e-06H199.949C204.164 -1.6589e-06 207.616 3.26431 207.616 7.25V50.75C207.616 54.7357 204.164 58 199.949 58Z" fill="#151516"/>
<path d="M45.0071 27.304C44.9636 22.6306 48.9636 20.357 49.1465 20.2512C46.8811 17.0568 43.3699 16.6204 42.136 16.5856C39.1869 16.2854 36.3263 18.2922 34.8241 18.2922C33.2918 18.2922 30.9785 16.6146 28.4852 16.6639C25.2768 16.7117 22.2753 18.5083 20.6291 21.2981C17.2318 26.9864 19.7655 35.3457 23.0204 39.9436C24.6486 42.1955 26.5512 44.7098 29.0414 44.6213C31.4777 44.5242 32.3878 43.1191 35.3278 43.1191C38.2409 43.1191 39.0955 44.6213 41.6352 44.5648C44.2499 44.5242 45.8961 42.3028 47.4673 40.0306C49.3489 37.4496 50.1045 34.9078 50.1345 34.7773C50.073 34.757 45.0565 32.9053 45.0071 27.304Z" fill="white"/>
<path d="M40.2094 13.5609C41.5198 11.976 42.4163 9.81989 42.1675 7.63184C40.2709 7.71304 37.8991 8.90059 36.5332 10.4506C35.3248 11.8165 34.2454 14.0553 34.5242 16.1607C36.6547 16.3144 38.8421 15.1211 40.2094 13.5609Z" fill="white"/>
<path d="M80.265 44.2976H76.8601L74.9951 38.6295H68.5123L66.7356 44.2976H63.4208L69.8436 25.001H73.8106L80.265 44.2976ZM74.4328 36.2515L72.7462 31.2128C72.5678 30.698 72.2334 29.4858 71.7402 27.5776H71.6802C71.4838 28.3983 71.1674 29.6105 70.7327 31.2128L69.076 36.2515H74.4328Z" fill="white"/>
<path d="M96.7823 37.1693C96.7823 39.5357 96.1211 41.4062 94.7987 42.7794C93.6143 44.0017 92.1436 44.6122 90.3879 44.6122C88.4929 44.6122 87.1315 43.9539 86.3024 42.6373H86.2425V49.967H83.0461V34.9639C83.0461 33.4762 83.0056 31.9493 82.9276 30.3833H85.7387L85.9171 32.5888H85.9771C87.0431 30.9271 88.6608 30.0977 90.8317 30.0977C92.5289 30.0977 93.9457 30.7458 95.0791 32.0436C96.2155 33.3428 96.7823 35.0509 96.7823 37.1693ZM93.5259 37.2824C93.5259 35.9281 93.211 34.8116 92.5783 33.9329C91.8872 33.0165 90.9591 32.5583 89.7957 32.5583C89.0071 32.5583 88.2905 32.8135 87.6503 33.3167C87.0086 33.8242 86.5888 34.4868 86.3924 35.3075C86.2934 35.6903 86.244 36.0035 86.244 36.25V38.57C86.244 39.5821 86.5648 40.4362 87.2065 41.1336C87.8482 41.8311 88.6818 42.1791 89.7073 42.1791C90.9112 42.1791 91.8482 41.7296 92.5184 40.8335C93.19 39.9359 93.5259 38.7527 93.5259 37.2824Z" fill="white"/>
<path d="M113.33 37.1693C113.33 39.5357 112.668 41.4062 111.345 42.7794C110.162 44.0017 108.691 44.6122 106.935 44.6122C105.04 44.6122 103.679 43.9539 102.851 42.6373H102.791V49.967H99.5949V34.9639C99.5949 33.4762 99.5544 31.9493 99.4764 30.3833H102.288L102.466 32.5888H102.526C103.59 30.9271 105.208 30.0977 107.381 30.0977C109.076 30.0977 110.493 30.7458 111.629 32.0436C112.761 33.3428 113.33 35.0509 113.33 37.1693ZM110.073 37.2824C110.073 35.9281 109.757 34.8116 109.124 33.9329C108.433 33.0165 107.508 32.5583 106.343 32.5583C105.553 32.5583 104.838 32.8135 104.196 33.3167C103.554 33.8242 103.136 34.4868 102.94 35.3075C102.842 35.6903 102.791 36.0035 102.791 36.25V38.57C102.791 39.5821 103.112 40.4362 103.751 41.1336C104.393 41.8296 105.226 42.1791 106.255 42.1791C107.459 42.1791 108.396 41.7296 109.066 40.8335C109.737 39.9359 110.073 38.7527 110.073 37.2824Z" fill="white"/>
<path d="M131.83 38.8857C131.83 40.5271 131.241 41.8626 130.058 42.8935C128.758 44.0202 126.949 44.5828 124.623 44.5828C122.477 44.5828 120.755 44.1826 119.453 43.3807L120.193 40.8041C121.596 41.6248 123.136 42.0366 124.814 42.0366C126.018 42.0366 126.955 41.7727 127.628 41.2478C128.298 40.7229 128.632 40.0182 128.632 39.1395C128.632 38.3565 128.357 37.6967 127.803 37.1617C127.253 36.6266 126.334 36.1293 125.051 35.6696C121.557 34.4096 119.812 32.5637 119.812 30.1364C119.812 28.5501 120.424 27.2495 121.649 26.2374C122.869 25.2238 124.498 24.7178 126.534 24.7178C128.349 24.7178 129.857 25.0237 131.061 25.6342L130.262 28.1543C129.138 27.5627 127.866 27.2669 126.444 27.2669C125.319 27.2669 124.441 27.5351 123.811 28.0687C123.279 28.5458 123.012 29.1272 123.012 29.816C123.012 30.5787 123.316 31.2094 123.928 31.7053C124.46 32.1635 125.427 32.6594 126.83 33.1945C128.547 33.8629 129.808 34.6445 130.619 35.5406C131.427 36.4338 131.83 37.5517 131.83 38.8857Z" fill="white"/>
<path d="M142.399 32.703H138.875V39.4585C138.875 41.1768 139.496 42.0352 140.741 42.0352C141.312 42.0352 141.786 41.9873 142.16 41.8916L142.249 44.2392C141.619 44.4668 140.79 44.5814 139.763 44.5814C138.501 44.5814 137.514 44.2087 136.802 43.4649C136.093 42.7196 135.736 41.4697 135.736 39.7137V32.7001H133.637V30.3801H135.736V27.8324L138.875 26.916V30.3801H142.399V32.703Z" fill="white"/>
<path d="M158.295 37.2254C158.295 39.3641 157.663 41.1201 156.4 42.4932C155.076 43.907 153.319 44.6117 151.129 44.6117C149.018 44.6117 147.337 43.9345 146.084 42.5802C144.83 41.2259 144.204 39.5164 144.204 37.4559C144.204 35.2998 144.848 33.5337 146.142 32.1605C147.433 30.7859 149.175 30.0986 151.366 30.0986C153.477 30.0986 155.175 30.7758 156.457 32.1315C157.684 33.4467 158.295 35.1446 158.295 37.2254ZM154.979 37.3254C154.979 36.0422 154.696 34.9416 154.121 34.0238C153.451 32.9131 152.493 32.3592 151.252 32.3592C149.967 32.3592 148.991 32.9145 148.321 34.0238C147.746 34.9431 147.463 36.061 147.463 37.3834C147.463 38.6667 147.746 39.7672 148.321 40.6836C149.012 41.7943 149.977 42.3482 151.223 42.3482C152.444 42.3482 153.402 41.7827 154.093 40.6546C154.682 39.7194 154.979 38.6072 154.979 37.3254Z" fill="white"/>
<path d="M168.685 33.1021C168.369 33.0455 168.032 33.0165 167.678 33.0165C166.553 33.0165 165.684 33.4269 165.072 34.249C164.54 34.974 164.273 35.8904 164.273 36.9968V44.2975H161.078L161.108 34.7652C161.108 33.1615 161.067 31.7014 160.988 30.3848H163.772L163.889 33.047H163.978C164.315 32.132 164.847 31.3954 165.576 30.843C166.288 30.3456 167.057 30.0977 167.886 30.0977C168.182 30.0977 168.448 30.118 168.685 30.1542V33.1021Z" fill="white"/>
<path d="M182.981 36.6818C182.981 37.2357 182.943 37.7026 182.864 38.084H173.275C173.312 39.4586 173.775 40.5098 174.666 41.2348C175.474 41.883 176.519 42.2078 177.802 42.2078C179.222 42.2078 180.517 41.9888 181.682 41.5495L182.183 43.6955C180.822 44.2697 179.215 44.5553 177.36 44.5553C175.129 44.5553 173.378 43.9202 172.104 42.6515C170.832 41.3827 170.195 39.679 170.195 37.5417C170.195 35.4435 170.787 33.6963 171.973 32.3028C173.215 30.8151 174.892 30.0713 177.003 30.0713C179.077 30.0713 180.646 30.8151 181.712 32.3028C182.556 33.4846 182.981 34.9462 182.981 36.6818ZM179.933 35.88C179.954 34.9636 179.745 34.1719 179.312 33.5034C178.759 32.6436 177.909 32.2144 176.765 32.2144C175.72 32.2144 174.87 32.6334 174.221 33.4744C173.688 34.1429 173.372 34.9447 173.275 35.8785H179.933V35.88Z" fill="white"/>
<path d="M73.3758 13.1303C73.3758 14.8369 72.8465 16.1216 71.7895 16.9844C70.8105 17.7804 69.4192 18.1792 67.6171 18.1792C66.7235 18.1792 65.9589 18.1415 65.3187 18.0661V8.74114C66.1538 8.61064 67.0534 8.54395 68.0249 8.54395C69.7415 8.54395 71.0354 8.90499 71.908 9.6271C72.8855 10.4434 73.3758 11.6107 73.3758 13.1303ZM71.7191 13.1723C71.7191 12.066 71.4162 11.2177 70.8105 10.6261C70.2048 10.036 69.3203 9.7402 68.1553 9.7402C67.6606 9.7402 67.2393 9.77209 66.89 9.83879V16.9278C67.0834 16.9568 67.4372 16.9699 67.9514 16.9699C69.1538 16.9699 70.0819 16.6465 70.7356 15.9998C71.3892 15.3531 71.7191 14.4106 71.7191 13.1723Z" fill="white"/>
<path d="M82.16 14.6204C82.16 15.6717 81.8497 16.533 81.229 17.2087C80.5783 17.9032 79.7162 18.2498 78.6397 18.2498C77.6023 18.2498 76.7762 17.9177 76.16 17.2507C75.5453 16.5852 75.2379 15.7456 75.2379 14.7335C75.2379 13.675 75.5543 12.8065 76.1899 12.1322C76.8256 11.458 77.6802 11.1201 78.7567 11.1201C79.7942 11.1201 80.6278 11.4522 81.2589 12.1177C81.8586 12.7644 82.16 13.5996 82.16 14.6204ZM80.5303 14.6697C80.5303 14.039 80.3894 13.4981 80.109 13.0472C79.7792 12.502 79.3099 12.2294 78.6997 12.2294C78.0685 12.2294 77.5888 12.502 77.2589 13.0472C76.9771 13.4981 76.8376 14.0477 76.8376 14.6973C76.8376 15.328 76.9786 15.8689 77.2589 16.3198C77.5993 16.865 78.073 17.1376 78.6847 17.1376C79.2844 17.1376 79.7552 16.8607 80.094 16.3053C80.3849 15.8457 80.5303 15.3005 80.5303 14.6697Z" fill="white"/>
<path d="M93.9381 11.2598L91.7267 18.0951H90.2874L89.3713 15.1269C89.1389 14.386 88.95 13.6494 88.8031 12.9186H88.7746C88.6382 13.6697 88.4493 14.4048 88.2064 15.1269L87.2334 18.0951H85.7776L83.6981 11.2598H85.3128L86.1119 14.5092C86.3053 15.2777 86.4643 16.01 86.5917 16.7031H86.6202C86.7371 16.1318 86.9305 15.4039 87.2034 14.5237L88.2064 11.2612H89.4868L90.4478 14.4541C90.6802 15.2328 90.8691 15.9824 91.0145 16.7045H91.058C91.1644 16.0013 91.3248 15.2516 91.5377 14.4541L92.3953 11.2612H93.9381V11.2598Z" fill="white"/>
<path d="M102.084 18.0951H100.512V14.1801C100.512 12.9737 100.039 12.3705 99.0881 12.3705C98.6218 12.3705 98.2455 12.5358 97.9531 12.8678C97.6638 13.1999 97.5169 13.5914 97.5169 14.0394V18.0936H95.9456V13.2129C95.9456 12.6126 95.9262 11.9616 95.8887 11.2569H97.2695L97.343 12.3255H97.3864C97.5693 11.9935 97.8422 11.7194 98.2005 11.5005C98.6263 11.2453 99.1031 11.1162 99.6248 11.1162C100.284 11.1162 100.833 11.3221 101.269 11.7354C101.812 12.2414 102.084 12.9969 102.084 14.0003V18.0951Z" fill="white"/>
<path d="M106.417 18.0947H104.847V8.12305H106.417V18.0947Z" fill="white"/>
<path d="M115.667 14.6204C115.667 15.6717 115.356 16.533 114.736 17.2087C114.085 17.9032 113.221 18.2498 112.146 18.2498C111.107 18.2498 110.281 17.9177 109.667 17.2507C109.052 16.5852 108.745 15.7456 108.745 14.7335C108.745 13.675 109.061 12.8065 109.697 12.1322C110.332 11.458 111.187 11.1201 112.262 11.1201C113.301 11.1201 114.133 11.4522 114.766 12.1177C115.365 12.7644 115.667 13.5996 115.667 14.6204ZM114.036 14.6697C114.036 14.039 113.895 13.4981 113.614 13.0472C113.286 12.502 112.815 12.2294 112.206 12.2294C111.574 12.2294 111.094 12.502 110.766 13.0472C110.484 13.4981 110.344 14.0477 110.344 14.6973C110.344 15.328 110.485 15.8689 110.766 16.3198C111.106 16.865 111.58 17.1376 112.191 17.1376C112.791 17.1376 113.26 16.8607 113.599 16.3053C113.892 15.8457 114.036 15.3005 114.036 14.6697Z" fill="white"/>
<path d="M123.271 18.0946H121.861L121.744 17.3073H121.7C121.217 17.9351 120.529 18.2498 119.636 18.2498C118.968 18.2498 118.429 18.0424 118.022 17.6306C117.654 17.2565 117.469 16.7911 117.469 16.2386C117.469 15.4034 117.829 14.7669 118.553 14.3261C119.276 13.8853 120.292 13.6692 121.601 13.6794V13.5518C121.601 12.6513 121.112 12.2018 120.133 12.2018C119.436 12.2018 118.822 12.3715 118.291 12.7079L117.971 11.7103C118.628 11.3173 119.439 11.1201 120.396 11.1201C122.243 11.1201 123.169 12.0626 123.169 13.9476V16.4648C123.169 17.1478 123.204 17.6915 123.271 18.0946ZM121.64 15.7456V14.6915C119.907 14.6625 119.04 15.1221 119.04 16.069C119.04 16.4257 119.139 16.6925 119.342 16.8708C119.544 17.0492 119.802 17.1376 120.109 17.1376C120.454 17.1376 120.777 17.0318 121.07 16.8215C121.366 16.6098 121.547 16.3416 121.615 16.0124C121.631 15.9385 121.64 15.8486 121.64 15.7456Z" fill="white"/>
<path d="M132.199 18.0947H130.805L130.731 16.997H130.688C130.243 17.8322 129.484 18.2498 128.418 18.2498C127.566 18.2498 126.857 17.9265 126.295 17.2798C125.733 16.6331 125.453 15.7935 125.453 14.7626C125.453 13.6562 125.757 12.7601 126.369 12.0757C126.961 11.4377 127.686 11.1187 128.55 11.1187C129.499 11.1187 130.163 11.4276 130.541 12.0467H130.571V8.12305H132.144V16.2532C132.144 16.9187 132.162 17.5321 132.199 18.0947ZM130.571 15.2121V14.0724C130.571 13.8752 130.556 13.7157 130.527 13.5939C130.439 13.2285 130.249 12.9211 129.959 12.6731C129.667 12.4252 129.315 12.3005 128.908 12.3005C128.322 12.3005 127.863 12.5252 127.526 12.9762C127.192 13.4271 127.022 14.0028 127.022 14.706C127.022 15.3817 127.183 15.9298 127.505 16.3518C127.845 16.8013 128.304 17.026 128.878 17.026C129.394 17.026 129.806 16.839 130.12 16.4634C130.423 16.1169 130.571 15.6993 130.571 15.2121Z" fill="white"/>
<path d="M145.637 14.6204C145.637 15.6717 145.327 16.533 144.706 17.2087C144.055 17.9032 143.195 18.2498 142.117 18.2498C141.081 18.2498 140.255 17.9177 139.637 17.2507C139.022 16.5852 138.715 15.7456 138.715 14.7335C138.715 13.675 139.031 12.8065 139.667 12.1322C140.303 11.458 141.157 11.1201 142.235 11.1201C143.271 11.1201 144.106 11.4522 144.736 12.1177C145.336 12.7644 145.637 13.5996 145.637 14.6204ZM144.009 14.6697C144.009 14.039 143.868 13.4981 143.588 13.0472C143.256 12.502 142.788 12.2294 142.177 12.2294C141.547 12.2294 141.067 12.502 140.736 13.0472C140.454 13.4981 140.315 14.0477 140.315 14.6973C140.315 15.328 140.456 15.8689 140.736 16.3198C141.076 16.865 141.55 17.1376 142.162 17.1376C142.761 17.1376 143.234 16.8607 143.573 16.3053C143.862 15.8457 144.009 15.3005 144.009 14.6697Z" fill="white"/>
<path d="M154.086 18.0951H152.516V14.1801C152.516 12.9737 152.042 12.3705 151.09 12.3705C150.624 12.3705 150.247 12.5358 149.957 12.8678C149.666 13.1999 149.52 13.5914 149.52 14.0394V18.0936H147.948V13.2129C147.948 12.6126 147.93 11.9616 147.892 11.2569H149.271L149.345 12.3255H149.388C149.573 11.9935 149.846 11.7194 150.202 11.5005C150.63 11.2453 151.105 11.1162 151.628 11.1162C152.286 11.1162 152.835 11.3221 153.271 11.7354C153.816 12.2414 154.086 12.9969 154.086 14.0003V18.0951Z" fill="white"/>
<path d="M164.66 12.3982H162.93V15.7187C162.93 16.5626 163.237 16.9845 163.846 16.9845C164.127 16.9845 164.361 16.9613 164.546 16.9135L164.586 18.0662C164.276 18.1793 163.868 18.2359 163.366 18.2359C162.745 18.2359 162.262 18.0532 161.913 17.6878C161.562 17.3224 161.388 16.7076 161.388 15.8448V12.3982H160.355V11.2599H161.388V10.0071L162.928 9.55762V11.2585H164.658V12.3982H164.66Z" fill="white"/>
<path d="M172.977 18.0947H171.405V14.2087C171.405 12.9834 170.931 12.3701 169.982 12.3701C169.253 12.3701 168.756 12.7253 168.483 13.4358C168.436 13.5852 168.409 13.7679 168.409 13.9825V18.0932H166.839V8.12305H168.409V12.2425H168.439C168.934 11.4928 169.643 11.1187 170.562 11.1187C171.213 11.1187 171.751 11.3246 172.178 11.7379C172.711 12.2526 172.977 13.0182 172.977 14.0303V18.0947Z" fill="white"/>
<path d="M181.558 14.354C181.558 14.6266 181.537 14.8557 181.499 15.0427H176.787C176.808 15.7184 177.033 16.2332 177.469 16.5899C177.868 16.9089 178.382 17.0684 179.012 17.0684C179.709 17.0684 180.345 16.9611 180.918 16.745L181.164 17.8006C180.493 18.0819 179.705 18.2226 178.792 18.2226C177.697 18.2226 176.835 17.9108 176.211 17.2873C175.585 16.6638 175.274 15.8272 175.274 14.7774C175.274 13.7464 175.564 12.888 176.147 12.2036C176.756 11.4728 177.579 11.1074 178.618 11.1074C179.634 11.1074 180.406 11.4728 180.928 12.2036C181.349 12.7836 181.558 13.5014 181.558 14.354ZM180.059 13.961C180.071 13.5101 179.967 13.1215 179.754 12.7938C179.481 12.3718 179.066 12.1601 178.504 12.1601C177.991 12.1601 177.573 12.366 177.253 12.7793C176.993 13.1084 176.838 13.5014 176.787 13.961H180.059Z" fill="white"/>
</svg>
