<svg width="140" height="40" viewBox="0 0 140 40" fill="none" xmlns="http://www.w3.org/2000/svg">
<path d="M134.815 40H5.18519C2.33463 40 0 37.7487 0 35V5C0 2.25125 2.33463 0 5.18519 0H134.815C137.665 0 140 2.25125 140 5V35C140 37.7487 137.665 40 134.815 40Z" fill="#151516"/>
<path d="M30.023 18.8297C29.9936 15.6067 32.6989 14.0387 32.8226 13.9657C31.2905 11.7627 28.9157 11.4617 28.0812 11.4377C26.0867 11.2307 24.152 12.6147 23.136 12.6147C22.0997 12.6147 20.5351 11.4577 18.8488 11.4917C16.6789 11.5247 14.6489 12.7637 13.5355 14.6877C11.2378 18.6107 12.9514 24.3757 15.1528 27.5467C16.254 29.0997 17.5408 30.8337 19.225 30.7727C20.8727 30.7057 21.4882 29.7367 23.4767 29.7367C25.4469 29.7367 26.0248 30.7727 27.7425 30.7337C29.5109 30.7057 30.6243 29.1737 31.687 27.6067C32.9595 25.8267 33.4706 24.0737 33.4909 23.9837C33.4493 23.9697 30.0565 22.6927 30.023 18.8297Z" fill="white"/>
<path d="M26.7782 9.35169C27.6645 8.25869 28.2708 6.7717 28.1025 5.2627C26.8198 5.3187 25.2157 6.1377 24.2919 7.2067C23.4746 8.14869 22.7446 9.69269 22.9332 11.1447C24.374 11.2507 25.8535 10.4277 26.7782 9.35169Z" fill="white"/>
<path d="M53.869 30.5502H51.5662L50.3048 26.6412H45.9203L44.7187 30.5502H42.4768L46.8207 17.2422H49.5038L53.869 30.5502ZM49.9246 25.0012L48.7838 21.5262C48.6632 21.1712 48.437 20.3352 48.1034 19.0192H48.0629C47.9301 19.5852 47.7161 20.4212 47.422 21.5262L46.3016 25.0012H49.9246Z" fill="white"/>
<path d="M65.0402 25.6338C65.0402 27.2658 64.593 28.5558 63.6987 29.5028C62.8977 30.3458 61.9029 30.7668 60.7155 30.7668C59.4339 30.7668 58.5132 30.3128 57.9524 29.4048H57.9119V34.4598H55.75V24.1128C55.75 23.0868 55.7226 22.0338 55.6699 20.9538H57.5712L57.6918 22.4748H57.7324C58.4533 21.3288 59.5474 20.7568 61.0157 20.7568C62.1635 20.7568 63.1217 21.2038 63.8883 22.0988C64.6569 22.9948 65.0402 24.1728 65.0402 25.6338ZM62.8378 25.7118C62.8378 24.7778 62.6249 24.0078 62.197 23.4018C61.7295 22.7698 61.1019 22.4538 60.315 22.4538C59.7817 22.4538 59.297 22.6298 58.864 22.9768C58.43 23.3268 58.1461 23.7838 58.0133 24.3498C57.9463 24.6138 57.9129 24.8298 57.9129 24.9998V26.5998C57.9129 27.2978 58.1299 27.8868 58.5639 28.3678C58.9978 28.8488 59.5616 29.0888 60.2552 29.0888C61.0694 29.0888 61.7032 28.7788 62.1564 28.1608C62.6107 27.5418 62.8378 26.7258 62.8378 25.7118Z" fill="white"/>
<path d="M76.2316 25.6338C76.2316 27.2658 75.7844 28.5558 74.8891 29.5028C74.089 30.3458 73.0943 30.7668 71.9069 30.7668C70.6252 30.7668 69.7045 30.3128 69.1448 29.4048H69.1042V34.4598H66.9424V24.1128C66.9424 23.0868 66.915 22.0338 66.8623 20.9538H68.7635L68.8842 22.4748H68.9248C69.6447 21.3288 70.7388 20.7568 72.2081 20.7568C73.3549 20.7568 74.3131 21.2038 75.0817 22.0988C75.8473 22.9948 76.2316 24.1728 76.2316 25.6338ZM74.0292 25.7118C74.0292 24.7778 73.8152 24.0078 73.3873 23.4018C72.9199 22.7698 72.2943 22.4538 71.5064 22.4538C70.972 22.4538 70.4883 22.6298 70.0544 22.9768C69.6204 23.3268 69.3375 23.7838 69.2046 24.3498C69.1387 24.6138 69.1042 24.8298 69.1042 24.9998V26.5998C69.1042 27.2978 69.3212 27.8868 69.7532 28.3678C70.1872 28.8478 70.751 29.0888 71.4466 29.0888C72.2608 29.0888 72.8945 28.7788 73.3478 28.1608C73.8021 27.5418 74.0292 26.7258 74.0292 25.7118Z" fill="white"/>
<path d="M88.7441 26.8179C88.7441 27.9499 88.3456 28.8709 87.5455 29.5819C86.6664 30.3589 85.4425 30.7469 83.8698 30.7469C82.4178 30.7469 81.2537 30.4709 80.3726 29.9179L80.8735 28.1409C81.8226 28.7069 82.8639 28.9909 83.9986 28.9909C84.8128 28.9909 85.4466 28.8089 85.9019 28.4469C86.3551 28.0849 86.5812 27.5989 86.5812 26.9929C86.5812 26.4529 86.3947 25.9979 86.0205 25.6289C85.6484 25.2599 85.0268 24.9169 84.1588 24.5999C81.7962 23.7309 80.6159 22.4579 80.6159 20.7839C80.6159 19.6899 81.0296 18.7929 81.8581 18.0949C82.6835 17.3959 83.7846 17.0469 85.1616 17.0469C86.3896 17.0469 87.4097 17.2579 88.2239 17.6789L87.6834 19.4169C86.9229 19.0089 86.0631 18.8049 85.1008 18.8049C84.3403 18.8049 83.7461 18.9899 83.3202 19.3579C82.9603 19.6869 82.7798 20.0879 82.7798 20.5629C82.7798 21.0889 82.9856 21.5239 83.3993 21.8659C83.7593 22.1819 84.4133 22.5239 85.3624 22.8929C86.5234 23.3539 87.3762 23.8929 87.9248 24.5109C88.4713 25.1269 88.7441 25.8979 88.7441 26.8179Z" fill="white"/>
<path d="M95.8918 22.5535H93.5089V27.2125C93.5089 28.3975 93.9287 28.9895 94.7704 28.9895C95.1567 28.9895 95.4771 28.9565 95.7306 28.8905L95.7904 30.5095C95.3646 30.6665 94.8038 30.7455 94.1092 30.7455C93.2555 30.7455 92.5882 30.4885 92.1066 29.9755C91.627 29.4615 91.3856 28.5995 91.3856 27.3885V22.5515H89.9661V20.9515H91.3856V19.1945L93.5089 18.5625V20.9515H95.8918V22.5535Z" fill="white"/>
<path d="M106.643 25.6728C106.643 27.1478 106.215 28.3588 105.361 29.3058C104.466 30.2808 103.278 30.7668 101.796 30.7668C100.368 30.7668 99.2318 30.2998 98.3841 29.3658C97.5364 28.4318 97.1125 27.2528 97.1125 25.8318C97.1125 24.3448 97.5486 23.1268 98.4236 22.1798C99.2967 21.2318 100.475 20.7578 101.956 20.7578C103.384 20.7578 104.533 21.2248 105.4 22.1598C106.229 23.0668 106.643 24.2378 106.643 25.6728ZM104.4 25.7418C104.4 24.8568 104.208 24.0978 103.82 23.4648C103.367 22.6988 102.719 22.3168 101.879 22.3168C101.01 22.3168 100.35 22.6998 99.897 23.4648C99.5086 24.0988 99.317 24.8698 99.317 25.7818C99.317 26.6668 99.5086 27.4258 99.897 28.0578C100.364 28.8238 101.017 29.2058 101.86 29.2058C102.685 29.2058 103.333 28.8158 103.801 28.0378C104.199 27.3928 104.4 26.6258 104.4 25.7418Z" fill="white"/>
<path d="M113.67 22.8288C113.456 22.7898 113.228 22.7698 112.989 22.7698C112.228 22.7698 111.64 23.0528 111.226 23.6198C110.867 24.1198 110.686 24.7518 110.686 25.5148V30.5498H108.525L108.545 23.9758C108.545 22.8698 108.518 21.8628 108.464 20.9548H110.347L110.426 22.7908H110.486C110.714 22.1598 111.074 21.6518 111.567 21.2708C112.049 20.9278 112.569 20.7568 113.13 20.7568C113.33 20.7568 113.51 20.7708 113.67 20.7958V22.8288Z" fill="white"/>
<path d="M123.339 25.2983C123.339 25.6803 123.313 26.0023 123.26 26.2653H116.774C116.799 27.2133 117.113 27.9383 117.715 28.4383C118.262 28.8853 118.968 29.1093 119.836 29.1093C120.797 29.1093 121.673 28.9583 122.461 28.6553L122.799 30.1353C121.879 30.5313 120.792 30.7283 119.537 30.7283C118.028 30.7283 116.844 30.2903 115.982 29.4153C115.122 28.5403 114.691 27.3653 114.691 25.8913C114.691 24.4443 115.092 23.2393 115.894 22.2783C116.734 21.2523 117.868 20.7393 119.296 20.7393C120.698 20.7393 121.76 21.2523 122.481 22.2783C123.052 23.0933 123.339 24.1013 123.339 25.2983ZM121.277 24.7453C121.291 24.1133 121.151 23.5673 120.857 23.1063C120.483 22.5133 119.908 22.2173 119.135 22.2173C118.428 22.2173 117.853 22.5063 117.414 23.0863C117.054 23.5473 116.84 24.1003 116.774 24.7443H121.277V24.7453Z" fill="white"/>
<path d="M49.2097 9.0546C49.2097 10.2316 48.8518 11.1176 48.1369 11.7126C47.4748 12.2616 46.5338 12.5366 45.3149 12.5366C44.7106 12.5366 44.1935 12.5106 43.7605 12.4586V6.0276C44.3253 5.9376 44.9337 5.8916 45.5908 5.8916C46.7518 5.8916 47.6269 6.1406 48.217 6.6386C48.8781 7.2016 49.2097 8.0066 49.2097 9.0546ZM48.0892 9.0836C48.0892 8.3206 47.8844 7.7356 47.4748 7.3276C47.0651 6.9206 46.4668 6.7166 45.679 6.7166C45.3444 6.7166 45.0594 6.7386 44.8232 6.7846V11.6736C44.954 11.6936 45.1933 11.7026 45.5411 11.7026C46.3543 11.7026 46.982 11.4796 47.4241 11.0336C47.8662 10.5876 48.0892 9.9376 48.0892 9.0836Z" fill="white"/>
<path d="M55.1508 10.0829C55.1508 10.8079 54.9409 11.4019 54.5212 11.8679C54.0811 12.3469 53.498 12.5859 52.77 12.5859C52.0683 12.5859 51.5096 12.3569 51.0928 11.8969C50.6771 11.4379 50.4692 10.8589 50.4692 10.1609C50.4692 9.43094 50.6832 8.83195 51.1131 8.36695C51.5431 7.90195 52.121 7.66895 52.8491 7.66895C53.5508 7.66895 54.1145 7.89795 54.5414 8.35694C54.947 8.80294 55.1508 9.37894 55.1508 10.0829ZM54.0486 10.1169C54.0486 9.68194 53.9533 9.30894 53.7637 8.99794C53.5406 8.62194 53.2232 8.43394 52.8106 8.43394C52.3837 8.43394 52.0592 8.62194 51.8361 8.99794C51.6455 9.30894 51.5512 9.68795 51.5512 10.1359C51.5512 10.5709 51.6465 10.9439 51.8361 11.2549C52.0663 11.6309 52.3867 11.8189 52.8004 11.8189C53.206 11.8189 53.5244 11.6279 53.7536 11.2449C53.9503 10.9279 54.0486 10.5519 54.0486 10.1169Z" fill="white"/>
<path d="M63.1165 7.76465L61.6208 12.4786H60.6474L60.0279 10.4316C59.8707 9.92065 59.7429 9.41265 59.6436 8.90865H59.6243C59.532 9.42665 59.4043 9.93365 59.24 10.4316L58.5819 12.4786H57.5973L56.1909 7.76465H57.283L57.8234 10.0056C57.9542 10.5356 58.0617 11.0406 58.1479 11.5186H58.1672C58.2463 11.1246 58.3771 10.6226 58.5616 10.0156L59.24 7.76565H60.1059L60.7559 9.96765C60.9131 10.5046 61.0408 11.0216 61.1392 11.5196H61.1686C61.2406 11.0346 61.3491 10.5176 61.4931 9.96765L62.0731 7.76565H63.1165V7.76465Z" fill="white"/>
<path d="M68.6256 12.479H67.5629V9.77902C67.5629 8.94702 67.2425 8.53102 66.5996 8.53102C66.2843 8.53102 66.0298 8.64502 65.8321 8.87402C65.6364 9.10302 65.537 9.37302 65.537 9.68202V12.478H64.4743V9.11202C64.4743 8.69802 64.4611 8.24902 64.4358 7.76302H65.3697L65.4194 8.50002H65.4488C65.5725 8.27102 65.757 8.08202 65.9994 7.93102C66.2873 7.75502 66.6098 7.66602 66.9626 7.66602C67.4088 7.66602 67.7799 7.80802 68.075 8.09302C68.4421 8.44202 68.6256 8.96302 68.6256 9.65502V12.479Z" fill="white"/>
<path d="M71.556 12.4786H70.4944V5.60156H71.556V12.4786Z" fill="white"/>
<path d="M77.8122 10.0829C77.8122 10.8079 77.6023 11.4019 77.1825 11.8679C76.7425 12.3469 76.1584 12.5859 75.4314 12.5859C74.7287 12.5859 74.17 12.3569 73.7542 11.8969C73.3385 11.4379 73.1306 10.8589 73.1306 10.1609C73.1306 9.43094 73.3446 8.83195 73.7745 8.36695C74.2044 7.90195 74.7824 7.66895 75.5094 7.66895C76.2121 7.66895 76.7749 7.89795 77.2028 8.35694C77.6084 8.80294 77.8122 9.37894 77.8122 10.0829ZM76.709 10.1169C76.709 9.68194 76.6137 9.30894 76.4241 8.99794C76.202 8.62194 75.8836 8.43394 75.4719 8.43394C75.044 8.43394 74.7195 8.62194 74.4975 8.99794C74.3068 9.30894 74.2125 9.68795 74.2125 10.1359C74.2125 10.5709 74.3079 10.9439 74.4975 11.2549C74.7277 11.6309 75.0481 11.8189 75.4618 11.8189C75.8674 11.8189 76.1848 11.6279 76.4139 11.2449C76.6116 10.9279 76.709 10.5519 76.709 10.1169Z" fill="white"/>
<path d="M82.9554 12.4789H82.0012L81.9221 11.9359H81.8927C81.5662 12.3689 81.1008 12.5859 80.4965 12.5859C80.0452 12.5859 79.6802 12.4429 79.4054 12.1589C79.156 11.9009 79.0312 11.5799 79.0312 11.1989C79.0312 10.6229 79.2746 10.1839 79.7644 9.87994C80.2531 9.57594 80.9406 9.42694 81.8258 9.43394V9.34595C81.8258 8.72495 81.4953 8.41495 80.8331 8.41495C80.3616 8.41495 79.9459 8.53195 79.5869 8.76395L79.3709 8.07594C79.8151 7.80494 80.3636 7.66895 81.0106 7.66895C82.2598 7.66895 82.8864 8.31895 82.8864 9.61894V11.3549C82.8864 11.8259 82.9098 12.2009 82.9554 12.4789ZM81.8522 10.8589V10.1319C80.68 10.1119 80.0939 10.4289 80.0939 11.0819C80.0939 11.3279 80.1608 11.5119 80.2977 11.6349C80.4346 11.7579 80.609 11.8189 80.8169 11.8189C81.0501 11.8189 81.2681 11.7459 81.4669 11.6009C81.6666 11.4549 81.7893 11.2699 81.8349 11.0429C81.8461 10.9919 81.8522 10.9299 81.8522 10.8589Z" fill="white"/>
<path d="M88.9936 12.4786H88.0506L88.0009 11.7216H87.9715C87.6704 12.2976 87.1573 12.5856 86.4363 12.5856C85.8604 12.5856 85.3808 12.3626 85.0005 11.9166C84.6203 11.4706 84.4307 10.8916 84.4307 10.1806C84.4307 9.41756 84.6365 8.79956 85.0502 8.32756C85.4507 7.88756 85.9415 7.66756 86.5256 7.66756C87.1674 7.66756 87.6166 7.88056 87.8721 8.30756H87.8924V5.60156H88.9561V11.2086C88.9561 11.6676 88.9683 12.0906 88.9936 12.4786ZM87.8924 10.4906V9.70456C87.8924 9.56856 87.8823 9.45856 87.863 9.37456C87.8032 9.12256 87.6744 8.91056 87.4787 8.73956C87.281 8.56856 87.0427 8.48256 86.7679 8.48256C86.3714 8.48256 86.0612 8.63756 85.833 8.94856C85.6069 9.25956 85.4923 9.65656 85.4923 10.1416C85.4923 10.6076 85.6008 10.9856 85.8188 11.2766C86.049 11.5866 86.3593 11.7416 86.7476 11.7416C87.0964 11.7416 87.3753 11.6126 87.5872 11.3536C87.792 11.1146 87.8924 10.8266 87.8924 10.4906Z" fill="white"/>
<path d="M98.082 10.0829C98.082 10.8079 97.8721 11.4019 97.4523 11.8679C97.0122 12.3469 96.4302 12.5859 95.7011 12.5859C95.0005 12.5859 94.4418 12.3569 94.024 11.8969C93.6083 11.4379 93.4004 10.8589 93.4004 10.1609C93.4004 9.43094 93.6143 8.83195 94.0443 8.36695C94.4742 7.90195 95.0522 7.66895 95.7812 7.66895C96.4819 7.66895 97.0467 7.89795 97.4726 8.35694C97.8782 8.80294 98.082 9.37894 98.082 10.0829ZM96.9808 10.1169C96.9808 9.68194 96.8855 9.30894 96.6959 8.99794C96.4718 8.62194 96.1554 8.43394 95.7417 8.43394C95.3158 8.43394 94.9913 8.62194 94.7673 8.99794C94.5766 9.30894 94.4823 9.68795 94.4823 10.1359C94.4823 10.5709 94.5776 10.9439 94.7673 11.2549C94.9974 11.6309 95.3179 11.8189 95.7316 11.8189C96.1372 11.8189 96.4566 11.6279 96.6857 11.2449C96.8814 10.9279 96.9808 10.5519 96.9808 10.1169Z" fill="white"/>
<path d="M103.796 12.479H102.734V9.77902C102.734 8.94702 102.414 8.53102 101.77 8.53102C101.455 8.53102 101.2 8.64502 101.003 8.87402C100.807 9.10302 100.708 9.37302 100.708 9.68202V12.478H99.6447V9.11202C99.6447 8.69802 99.6325 8.24902 99.6072 7.76302H100.54L100.59 8.50002H100.619C100.744 8.27102 100.928 8.08202 101.17 7.93102C101.459 7.75502 101.78 7.66602 102.134 7.66602C102.579 7.66602 102.95 7.80802 103.245 8.09302C103.613 8.44202 103.796 8.96302 103.796 9.65502V12.479Z" fill="white"/>
<path d="M110.948 8.54982H109.777V10.8398C109.777 11.4218 109.985 11.7128 110.397 11.7128C110.588 11.7128 110.746 11.6968 110.87 11.6638L110.898 12.4588C110.688 12.5368 110.412 12.5758 110.072 12.5758C109.653 12.5758 109.326 12.4498 109.09 12.1978C108.853 11.9458 108.735 11.5218 108.735 10.9268V8.54982H108.036V7.76482H108.735V6.90082L109.776 6.59082V7.76382H110.947V8.54982H110.948Z" fill="white"/>
<path d="M116.573 12.4786H115.509V9.79856C115.509 8.95356 115.189 8.53056 114.547 8.53056C114.054 8.53056 113.718 8.77556 113.533 9.26556C113.502 9.36856 113.484 9.49456 113.484 9.64256V12.4776H112.422V5.60156H113.484V8.44256H113.504C113.838 7.92556 114.318 7.66756 114.94 7.66756C115.38 7.66756 115.744 7.80956 116.033 8.09456C116.393 8.44956 116.573 8.97756 116.573 9.67556V12.4786Z" fill="white"/>
<path d="M122.376 9.89818C122.376 10.0862 122.362 10.2442 122.337 10.3732H119.15C119.164 10.8392 119.316 11.1942 119.611 11.4402C119.881 11.6602 120.229 11.7702 120.655 11.7702C121.126 11.7702 121.556 11.6962 121.943 11.5472L122.11 12.2752C121.656 12.4692 121.123 12.5662 120.506 12.5662C119.765 12.5662 119.182 12.3512 118.76 11.9212C118.337 11.4912 118.127 10.9142 118.127 10.1902C118.127 9.47918 118.322 8.88718 118.717 8.41518C119.129 7.91118 119.685 7.65918 120.388 7.65918C121.075 7.65918 121.598 7.91118 121.95 8.41518C122.235 8.81518 122.376 9.31018 122.376 9.89818ZM121.362 9.62718C121.37 9.31618 121.301 9.04818 121.157 8.82218C120.972 8.53118 120.691 8.38518 120.311 8.38518C119.964 8.38518 119.681 8.52718 119.465 8.81218C119.289 9.03918 119.184 9.31018 119.15 9.62718H121.362Z" fill="white"/>
</svg>
