<svg width="32" height="32" viewBox="0 0 32 32" fill="none" xmlns="http://www.w3.org/2000/svg">
<path d="M21.7777 4.44434H10.2221C7.04462 4.44434 4.44434 7.04349 4.44434 10.2221V21.7777C4.44434 24.9552 7.04462 27.5554 10.2221 27.5554H21.7777C24.9552 27.5554 27.5554 24.9552 27.5554 21.7777V10.2221C27.5554 7.04349 24.9552 4.44434 21.7777 4.44434ZM15.9999 20.8145C13.3404 20.8145 11.185 18.6582 11.185 15.9999C11.185 13.3404 13.3404 11.185 15.9999 11.185C18.6582 11.185 20.8148 13.3404 20.8148 15.9999C20.8148 18.6582 18.6582 20.8145 15.9999 20.8145ZM22.2592 11.185C21.4607 11.185 20.8148 10.5381 20.8148 9.74054C20.8148 8.94293 21.4607 8.29609 22.2592 8.29609C23.0578 8.29609 23.7037 8.94293 23.7037 9.74054C23.7037 10.5381 23.0578 11.185 22.2592 11.185Z" fill="#EBF0F4"/>
</svg>
