<svg width="33" height="28" viewBox="0 0 33 28" fill="none" xmlns="http://www.w3.org/2000/svg">
<path d="M32.8976 3.82392C31.6771 4.3593 30.3766 4.71417 29.0207 4.88648C30.4156 4.05366 31.4802 2.74494 31.9807 1.1675C30.6802 1.94289 29.2443 2.49058 27.714 2.79622C26.4792 1.48135 24.7192 0.666992 22.7992 0.666992C19.074 0.666992 16.0751 3.69058 16.0751 7.39725C16.0751 7.93058 16.1202 8.4434 16.231 8.93161C10.6371 8.65879 5.68737 5.97776 2.36225 1.89366C1.78173 2.90084 1.44122 4.05366 1.44122 5.29468C1.44122 7.62494 2.64122 9.69058 4.42994 10.8865C3.34891 10.866 2.2884 10.5521 1.38994 10.0578C1.38994 10.0783 1.38994 10.1049 1.38994 10.1316C1.38994 13.4014 3.72225 16.1172 6.78071 16.7429C6.23302 16.8926 5.63609 16.9644 5.01661 16.9644C4.58584 16.9644 4.15096 16.9398 3.74276 16.8496C4.61455 19.5142 7.0884 21.4731 10.0299 21.5367C7.74071 23.3275 4.83404 24.4065 1.68737 24.4065C1.13558 24.4065 0.606349 24.3819 0.0771179 24.3142C3.05763 26.2362 6.58994 27.3337 10.3992 27.3337C22.7807 27.3337 29.5499 17.0772 29.5499 8.18699C29.5499 7.88956 29.5397 7.60238 29.5253 7.31725C30.8607 6.36956 31.9828 5.18597 32.8976 3.82392Z" fill="#EBF0F4"/>
</svg>
