<svg width="208" height="58" viewBox="0 0 208 58" fill="none" xmlns="http://www.w3.org/2000/svg">
<path d="M199.949 58H8.28239C4.06764 58 0.615723 54.7357 0.615723 50.75V7.25C0.615723 3.26431 4.06764 -1.6589e-06 8.28239 -1.6589e-06H199.949C204.164 -1.6589e-06 207.616 3.26431 207.616 7.25V50.75C207.616 54.7357 204.164 58 199.949 58Z" fill="#151516"/>
<path d="M71.1683 14.8533C71.1683 16.064 70.7963 17.0337 70.0635 17.7569C69.221 18.6142 68.1237 19.0456 66.779 19.0456C65.4938 19.0456 64.3965 18.607 63.4963 17.7424C62.5943 16.8652 62.1442 15.7885 62.1442 14.4999C62.1442 13.2112 62.5943 12.1345 63.4963 11.2645C64.3965 10.3927 65.4938 9.9541 66.779 9.9541C67.4188 9.9541 68.0288 10.0828 68.611 10.322C69.1912 10.5631 69.6636 10.8894 70.0059 11.2917L69.2284 12.0566C68.6314 11.3697 67.8187 11.0307 66.779 11.0307C65.8416 11.0307 65.0288 11.3497 64.3388 11.9932C63.6562 12.6384 63.314 13.474 63.314 14.4999C63.314 15.5257 63.6562 16.3685 64.3388 17.0138C65.0288 17.65 65.8416 17.9762 66.779 17.9762C67.774 17.9762 68.611 17.65 69.2712 17.0065C69.7064 16.5806 69.9538 15.9934 70.0189 15.243H66.779V14.1954H71.1013C71.1534 14.4219 71.1683 14.6412 71.1683 14.8533Z" fill="white" stroke="white" stroke-width="0.16" stroke-miterlimit="10"/>
<path d="M78.0257 11.2209H73.9656V13.9759H77.6258V15.0235H73.9656V17.7785H78.0257V18.8461H72.8162V10.1533H78.0257V11.2209Z" fill="white" stroke="white" stroke-width="0.16" stroke-miterlimit="10"/>
<path d="M82.8649 18.8461H81.7155V11.2209H79.2251V10.1533H85.3571V11.2209H82.8649V18.8461Z" fill="white" stroke="white" stroke-width="0.16" stroke-miterlimit="10"/>
<path d="M89.795 18.8461V10.1533H90.9426V18.8461H89.795Z" fill="white" stroke="white" stroke-width="0.16" stroke-miterlimit="10"/>
<path d="M96.0293 18.8461H94.8892V11.2209H92.3895V10.1533H98.529V11.2209H96.0293V18.8461Z" fill="white" stroke="white" stroke-width="0.16" stroke-miterlimit="10"/>
<path d="M110.138 17.7279C109.259 18.607 108.169 19.0456 106.869 19.0456C105.561 19.0456 104.471 18.607 103.592 17.7279C102.714 16.8507 102.277 15.774 102.277 14.4999C102.277 13.2257 102.714 12.149 103.592 11.2718C104.471 10.3927 105.561 9.9541 106.869 9.9541C108.161 9.9541 109.251 10.3927 110.131 11.279C111.016 12.1635 111.453 13.2329 111.453 14.4999C111.453 15.774 111.016 16.8507 110.138 17.7279ZM104.442 16.9993C105.104 17.65 105.909 17.9762 106.869 17.9762C107.821 17.9762 108.634 17.65 109.288 16.9993C109.949 16.3486 110.283 15.513 110.283 14.4999C110.283 13.4867 109.949 12.6511 109.288 12.0004C108.634 11.3497 107.821 11.0235 106.869 11.0235C105.909 11.0235 105.104 11.3497 104.442 12.0004C103.781 12.6511 103.446 13.4867 103.446 14.4999C103.446 15.513 103.781 16.3486 104.442 16.9993Z" fill="white" stroke="white" stroke-width="0.16" stroke-miterlimit="10"/>
<path d="M113.066 18.8461V10.1533H114.461L118.798 16.9139H118.848L118.798 15.2428V10.1533H119.945V18.8461H118.748L114.206 11.7519H114.156L114.206 13.4303V18.8461H113.066Z" fill="white" stroke="white" stroke-width="0.16" stroke-miterlimit="10"/>
<path d="M101.994 31.5409C98.4992 31.5409 95.6443 34.1327 95.6443 37.7088C95.6443 41.2559 98.4992 43.8749 101.994 43.8749C105.496 43.8749 108.351 41.2559 108.351 37.7088C108.351 34.1327 105.496 31.5409 101.994 31.5409ZM101.994 41.4462C100.076 41.4462 98.4266 39.9037 98.4266 37.7088C98.4266 35.4849 100.076 33.9696 101.994 33.9696C103.911 33.9696 105.569 35.4849 105.569 37.7088C105.569 39.9037 103.911 41.4462 101.994 41.4462ZM88.1397 31.5409C84.6375 31.5409 81.79 34.1327 81.79 37.7088C81.79 41.2559 84.6375 43.8749 88.1397 43.8749C91.6399 43.8749 94.4893 41.2559 94.4893 37.7088C94.4893 34.1327 91.6399 31.5409 88.1397 31.5409ZM88.1397 41.4462C86.2203 41.4462 84.565 39.9037 84.565 37.7088C84.565 35.4849 86.2203 33.9696 88.1397 33.9696C90.0572 33.9696 91.7069 35.4849 91.7069 37.7088C91.7069 39.9037 90.0572 41.4462 88.1397 41.4462ZM71.6537 33.4313V36.0522H78.0759C77.888 37.5167 77.3858 38.5933 76.6159 39.3437C75.6785 40.2499 74.2185 41.2559 71.6537 41.2559C67.7015 41.2559 64.6066 38.1474 64.6066 34.2959C64.6066 30.4443 67.7015 27.3359 71.6537 27.3359C73.7907 27.3359 75.3456 28.1497 76.4931 29.2046L78.3883 27.3576C76.7833 25.8641 74.6481 24.7168 71.6537 24.7168C66.234 24.7168 61.6792 29.0142 61.6792 34.2959C61.6792 39.5775 66.234 43.8749 71.6537 43.8749C74.583 43.8749 76.7833 42.9397 78.5129 41.1852C80.2854 39.4579 80.8378 37.0291 80.8378 35.068C80.8378 34.459 80.7857 33.8989 80.6927 33.4313H71.6537ZM139.067 35.4631C138.544 34.0838 136.932 31.5409 133.647 31.5409C130.392 31.5409 127.682 34.0403 127.682 37.7088C127.682 41.1634 130.364 43.8749 133.96 43.8749C136.867 43.8749 138.544 42.1476 139.234 41.1417L137.077 39.7406C136.357 40.7665 135.377 41.4462 133.96 41.4462C132.552 41.4462 131.542 40.8172 130.894 39.5775L139.359 36.1645L139.067 35.4631ZM130.437 37.5167C130.364 35.1387 132.332 33.9207 133.742 33.9207C134.847 33.9207 135.784 34.459 136.097 35.2293L130.437 37.5167ZM123.557 43.4997H126.34V25.3747H123.557V43.4997ZM119.001 32.9147H118.908C118.283 32.1934 117.09 31.5409 115.58 31.5409C112.411 31.5409 109.513 34.2524 109.513 37.7287C109.513 41.1852 112.411 43.8749 115.58 43.8749C117.09 43.8749 118.283 43.217 118.908 42.4739H119.001V43.3584C119.001 45.7164 117.708 46.9834 115.623 46.9834C113.923 46.9834 112.869 45.7871 112.433 44.7812L110.014 45.7654C110.711 47.4002 112.558 49.4121 115.623 49.4121C118.885 49.4121 121.638 47.5416 121.638 42.9904V31.916H119.001V32.9147ZM115.818 41.4462C113.901 41.4462 112.296 39.882 112.296 37.7287C112.296 35.5556 113.901 33.9696 115.818 33.9696C117.708 33.9696 119.198 35.5556 119.198 37.7287C119.198 39.882 117.708 41.4462 115.818 41.4462ZM152.093 25.3747H145.439V43.4997H148.214V36.6322H152.093C155.175 36.6322 158.197 34.459 158.197 31.0025C158.197 27.5479 155.168 25.3747 152.093 25.3747ZM152.166 34.111H148.214V27.8959H152.166C154.238 27.8959 155.421 29.5725 155.421 31.0025C155.421 32.4054 154.238 34.111 152.166 34.111ZM169.32 31.5064C167.315 31.5064 165.23 32.3692 164.372 34.2814L166.835 35.2873C167.365 34.2814 168.339 33.9551 169.37 33.9551C170.809 33.9551 172.269 34.7979 172.292 36.286V36.4763C171.789 36.1935 170.714 35.7749 169.392 35.7749C166.74 35.7749 164.037 37.1977 164.037 39.853C164.037 42.2817 166.21 43.8459 168.652 43.8459C170.519 43.8459 171.55 43.0249 172.197 42.0697H172.292V43.4707H174.972V36.518C174.972 33.3044 172.509 31.5064 169.32 31.5064ZM168.985 41.4389C168.077 41.4389 166.812 41.0003 166.812 39.9037C166.812 38.5009 168.39 37.9625 169.755 37.9625C170.977 37.9625 171.55 38.2254 172.292 38.5715C172.074 40.2499 170.592 41.4389 168.985 41.4389ZM184.736 31.9034L181.546 39.7605H181.452L178.154 31.9034H175.161L180.116 42.8835L177.289 48.9934H180.189L187.823 31.9034H184.736ZM159.723 43.4997H162.505V25.3747H159.723V43.4997Z" fill="white"/>
<path d="M16.1419 10.9311C15.7048 11.3769 15.4519 12.0711 15.4519 12.9701V45.0369C15.4519 45.9359 15.7048 46.6301 16.1419 47.076L16.2498 47.1738L34.6886 29.212V28.7878L16.2498 10.8259L16.1419 10.9311Z" fill="url(#paint0_linear_1247_2731)"/>
<path d="M40.8281 35.2021L34.6886 29.2118V28.7877L40.8355 22.7974L40.9731 22.8753L48.2527 26.9118C50.3302 28.0573 50.3302 29.9423 48.2527 31.095L40.9731 35.1242L40.8281 35.2021Z" fill="url(#paint1_linear_1247_2731)"/>
<path d="M40.9733 35.1241L34.6888 28.9997L16.1421 47.0757C16.8321 47.7826 17.9573 47.8678 19.2369 47.1609L40.9733 35.1241Z" fill="url(#paint2_linear_1247_2731)"/>
<path d="M40.9733 22.8756L19.2369 10.8388C17.9573 10.1391 16.8321 10.2243 16.1421 10.9312L34.6888 29L40.9733 22.8756Z" fill="url(#paint3_linear_1247_2731)"/>
<defs>
<linearGradient id="paint0_linear_1247_2731" x1="33.0515" y1="45.3708" x2="8.72508" y2="20.4086" gradientUnits="userSpaceOnUse">
<stop stop-color="#00A0FF"/>
<stop offset="0.0066" stop-color="#00A1FF"/>
<stop offset="0.2601" stop-color="#00BEFF"/>
<stop offset="0.5122" stop-color="#00D2FF"/>
<stop offset="0.7604" stop-color="#00DFFF"/>
<stop offset="1" stop-color="#00E3FF"/>
</linearGradient>
<linearGradient id="paint1_linear_1247_2731" x1="50.9579" y1="28.9977" x2="14.9553" y2="28.9977" gradientUnits="userSpaceOnUse">
<stop stop-color="#FFE000"/>
<stop offset="0.4087" stop-color="#FFBD00"/>
<stop offset="0.7754" stop-color="#FFA500"/>
<stop offset="1" stop-color="#FF9C00"/>
</linearGradient>
<linearGradient id="paint2_linear_1247_2731" x1="37.556" y1="25.6703" x2="4.56741" y2="-8.18052" gradientUnits="userSpaceOnUse">
<stop stop-color="#FF3A44"/>
<stop offset="1" stop-color="#C31162"/>
</linearGradient>
<linearGradient id="paint3_linear_1247_2731" x1="11.4735" y1="57.7445" x2="26.2044" y2="42.6287" gradientUnits="userSpaceOnUse">
<stop stop-color="#32A071"/>
<stop offset="0.0685" stop-color="#2DA771"/>
<stop offset="0.4762" stop-color="#15CF74"/>
<stop offset="0.8009" stop-color="#06E775"/>
<stop offset="1" stop-color="#00F076"/>
</linearGradient>
</defs>
</svg>
