<svg width="48" height="48" viewBox="0 0 48 48" fill="none" xmlns="http://www.w3.org/2000/svg">
<rect width="48" height="48" rx="24" fill="#EBF0F4"/>
<path d="M32 35V32.6667C32 31.429 31.5184 30.242 30.6611 29.3668C29.8038 28.4917 28.641 28 27.4286 28H20.5714C19.359 28 18.1962 28.4917 17.3389 29.3668C16.4816 30.242 16 31.429 16 32.6667V35M28.5714 18.6667C28.5714 21.244 26.5247 23.3333 24 23.3333C21.4753 23.3333 19.4286 21.244 19.4286 18.6667C19.4286 16.0893 21.4753 14 24 14C26.5247 14 28.5714 16.0893 28.5714 18.6667Z" stroke="#384054" stroke-width="2" stroke-linecap="round" stroke-linejoin="round"/>
</svg>
