<svg width="16" height="17" viewBox="0 0 16 17" fill="none" xmlns="http://www.w3.org/2000/svg">
<g clip-path="url(#clip0_1230_3282)">
<path d="M15.5645 12.2424L13.3317 10.0095C12.5342 9.21209 11.1786 9.5311 10.8596 10.5678C10.6204 11.2855 9.82292 11.6842 9.10521 11.5247C7.51032 11.126 5.35722 9.0526 4.9585 7.37797C4.71926 6.66024 5.19773 5.86279 5.91543 5.62359C6.95211 5.30461 7.27109 3.94895 6.47364 3.15151L4.2408 0.918659C3.60284 0.360447 2.6459 0.360447 2.08769 0.918659L0.572545 2.43381C-0.942601 4.0287 0.732035 8.25516 4.48003 12.0032C8.22802 15.7511 12.4545 17.5056 14.0494 15.9106L15.5645 14.3955C16.1228 13.7575 16.1228 12.8006 15.5645 12.2424Z" fill="#717A93"/>
</g>
<defs>
<clipPath id="clip0_1230_3282">
<rect width="16" height="16" fill="white" transform="translate(0 0.5)"/>
</clipPath>
</defs>
</svg>
