<svg width="16" height="17" viewBox="0 0 16 17" fill="none" xmlns="http://www.w3.org/2000/svg">
<g clip-path="url(#clip0_1230_3290)">
<path d="M9.33716 10.303C8.93909 10.5684 8.47672 10.7087 8 10.7087C7.52331 10.7087 7.06094 10.5684 6.66287 10.303L0.106531 5.93201C0.0701562 5.90776 0.0347187 5.88248 0 5.85648V13.0189C0 13.8401 0.666406 14.4918 1.47291 14.4918H14.5271C15.3482 14.4918 16 13.8254 16 13.0189V5.85645C15.9652 5.88251 15.9297 5.90785 15.8932 5.93213L9.33716 10.303Z" fill="#717A93"/>
<path d="M0.626562 5.1518L7.18291 9.52286C7.43109 9.68833 7.71553 9.77105 7.99997 9.77105C8.28444 9.77105 8.56891 9.6883 8.81709 9.52286L15.3734 5.1518C15.7658 4.89039 16 4.45289 16 3.98071C16 3.1688 15.3395 2.5083 14.5276 2.5083H1.47241C0.660531 2.50833 0 3.16883 0 3.98149C0 4.45289 0.23425 4.89039 0.626562 5.1518Z" fill="#717A93"/>
</g>
<defs>
<clipPath id="clip0_1230_3290">
<rect width="16" height="16" fill="white" transform="translate(0 0.5)"/>
</clipPath>
</defs>
</svg>
