<svg width="170" height="40" viewBox="0 0 170 40" fill="none" xmlns="http://www.w3.org/2000/svg">
<path d="M0.374268 39.6335V10.6718H2.10848L2.19436 38.0446L82.7105 37.7924V39.8857L0.374268 39.6335Z" fill="#384054"/>
<path d="M36.7101 20.0162C36.7101 18.6938 36.4881 17.5261 36.0441 16.5122C35.6094 15.4975 34.9621 14.6467 34.1017 13.959C33.2415 13.2612 32.1687 12.7366 30.883 12.3827C29.6066 12.0212 28.1221 11.8405 26.4294 11.8405C24.7368 11.8405 23.2429 12.0212 21.948 12.3827C20.6623 12.7451 19.5848 13.2747 18.7154 13.9725C17.846 14.6601 17.1892 15.516 16.7453 16.5391C16.3013 17.553 16.0793 18.7123 16.0793 20.0162C16.0793 21.3377 16.3013 22.5055 16.7453 23.5193C17.1892 24.534 17.846 25.389 18.7154 26.0868C19.5848 26.7745 20.6623 27.2999 21.948 27.6622C23.2429 28.0153 24.7368 28.1919 26.4294 28.1919C28.1221 28.1919 29.6066 28.0153 30.883 27.6622C32.1687 27.2999 33.2415 26.7745 34.1017 26.0868C34.9621 25.389 35.6094 24.534 36.0441 23.5193C36.4881 22.5055 36.7101 21.3377 36.7101 20.0162ZM38.4999 20.0162C38.4999 21.6908 38.19 23.1393 37.5703 24.3617C36.9507 25.5748 36.0997 26.5803 35.0174 27.3764C33.9353 28.165 32.6589 28.7484 31.1882 29.1292C29.7176 29.5092 28.1313 29.6992 26.4294 29.6992C24.7182 29.6992 23.1228 29.5092 21.6428 29.1292C20.163 28.7484 18.8772 28.165 17.7858 27.3764C16.6944 26.5803 15.8388 25.5748 15.2191 24.3617C14.5994 23.1393 14.2896 21.6908 14.2896 20.0162C14.2896 18.9023 14.433 17.8926 14.7196 16.9872C15.0064 16.0725 15.4088 15.2579 15.9267 14.5424C16.4446 13.8186 17.069 13.194 17.7997 12.6685C18.5396 12.1431 19.3583 11.7085 20.2554 11.3646C21.1618 11.0116 22.133 10.7535 23.169 10.5904C24.2049 10.418 25.2918 10.3323 26.4294 10.3323C28.1313 10.3323 29.7176 10.5223 31.1882 10.9031C32.6589 11.2831 33.9353 11.8716 35.0174 12.6685C36.0997 13.4563 36.9507 14.4609 37.5703 15.6833C38.19 16.8964 38.4999 18.3407 38.4999 20.0162Z" fill="#384054"/>
<path d="M66.6692 20.0162C66.6692 18.6938 66.4471 17.5261 66.0033 16.5122C65.5686 15.4975 64.9211 14.6467 64.0609 13.959C63.2008 13.2612 62.1278 12.7366 60.842 12.3827C59.5657 12.0212 58.0812 11.8405 56.3884 11.8405C54.6958 11.8405 53.2021 12.0212 51.907 12.3827C50.6215 12.7451 49.5439 13.2747 48.6745 13.9725C47.8051 14.6601 47.1483 15.516 46.7043 16.5391C46.2603 17.553 46.0383 18.7123 46.0383 20.0162C46.0383 21.3377 46.2603 22.5055 46.7043 23.5193C47.1483 24.534 47.8051 25.389 48.6745 26.0868C49.5439 26.7745 50.6215 27.2999 51.907 27.6622C53.2021 28.0153 54.6958 28.1919 56.3884 28.1919C58.0812 28.1919 59.5657 28.0153 60.842 27.6622C62.1278 27.2999 63.2008 26.7745 64.0609 26.0868C64.9211 25.389 65.5686 24.534 66.0033 23.5193C66.4471 22.5055 66.6692 21.3377 66.6692 20.0162ZM68.459 20.0162C68.459 21.6908 68.1492 23.1393 67.5293 24.3617C66.9097 25.5748 66.0588 26.5803 64.9766 27.3764C63.8943 28.165 62.6179 28.7484 61.1472 29.1292C59.6766 29.5092 58.0903 29.6992 56.3884 29.6992C54.6774 29.6992 53.0818 29.5092 51.6019 29.1292C50.1219 28.7484 48.8364 28.165 47.7448 27.3764C46.6535 26.5803 45.7979 25.5748 45.1783 24.3617C44.5584 23.1393 44.2485 21.6908 44.2485 20.0162C44.2485 18.9023 44.392 17.8926 44.6787 16.9872C44.9654 16.0725 45.3678 15.2579 45.8859 14.5424C46.4037 13.8186 47.028 13.194 47.7589 12.6685C48.4988 12.1431 49.3173 11.7085 50.2144 11.3646C51.1208 11.0116 52.0921 10.7535 53.128 10.5904C54.164 10.418 55.2508 10.3323 56.3884 10.3323C58.0903 10.3323 59.6766 10.5223 61.1472 10.9031C62.6179 11.2831 63.8943 11.8716 64.9766 12.6685C66.0588 13.4563 66.9097 14.4609 67.5293 15.6833C68.1492 16.8964 68.459 18.3407 68.459 20.0162Z" fill="#384054"/>
<path d="M77.3018 19.4586L91.4814 10.6717H93.8956L79.9241 19.6217L94.7553 29.3325H91.8001L77.3018 19.8252V29.3325H75.5398V10.6717H77.3018V19.4586Z" fill="#384054"/>
<path d="M108.815 12.3153L103.182 22.8542H114.434L108.815 12.3153ZM117.902 29.3325L115.28 24.4162H102.336L99.7133 29.3325H97.8127L107.788 10.6717H109.828L119.804 29.3325H117.902Z" fill="#384054"/>
<path d="M141.438 16.0362C141.438 15.2392 141.295 14.5969 141.008 14.1077C140.721 13.61 140.254 13.2249 139.606 12.9534C138.96 12.6818 138.109 12.5011 137.054 12.4103C136.009 12.3103 134.723 12.2607 133.197 12.2607H127.287V19.7579H133.141C134.667 19.7579 135.958 19.7167 137.012 19.6352C138.067 19.5452 138.922 19.3678 139.579 19.1055C140.236 18.834 140.707 18.4582 140.994 17.9782C141.29 17.4897 141.438 16.8424 141.438 16.0362ZM127.287 21.3468V29.3325H125.552V10.6717H135.042C136.494 10.6717 137.738 10.7852 138.774 11.0114C139.81 11.2283 140.657 11.5637 141.313 12.016C141.979 12.4599 142.465 13.0173 142.77 13.6865C143.075 14.3565 143.228 15.14 143.228 16.0362C143.228 17.4309 142.854 18.549 142.104 19.3914C141.355 20.2237 140.147 20.7945 138.483 21.1022L144.989 29.3325H142.812L136.665 21.2922C136.406 21.3107 136.143 21.3241 135.875 21.3334C135.606 21.3418 135.329 21.3468 135.042 21.3468H127.287Z" fill="#384054"/>
<path d="M156.919 2.08664V29.3325H155.027V2.08664L83.2266 1.9185V0.369947L163.634 0.201809V2.08664H156.919Z" fill="#384054"/>
<path d="M84.1152 40H0.374259V39.6335L82.7105 39.8857V39.6335H83.7411V38.0446H82.7105V37.7924L2.19436 38.0446L2.10847 10.6718H0.374259V39.6335V40H0V10.3052H2.48264V37.6789H84.1152V40Z" fill="#384054"/>
<path d="M82.7105 39.8857L0.374268 39.6335H82.7105V39.8857ZM0.374268 39.6335V10.6718H2.10848L2.19436 38.0446L82.7105 37.7924V38.0446H2.10848V10.6718H0.374268V39.6335Z" fill="#384054"/>
<path d="M83.741 39.6333H82.7104V39.2676H83.3668V38.4109H82.7104V38.0444H83.741V39.6333Z" fill="white"/>
<path d="M82.7105 39.6333H0.374268H0.748392H0.374268V10.6716H2.10848V38.0444H82.7105V38.4109H1.73436V11.0381H0.748392V39.2676H82.7105V39.6333Z" fill="#384054"/>
<path d="M26.431 30.0654H26.4294C24.69 30.0654 23.0621 29.8721 21.5479 29.4828C20.0286 29.0927 18.6972 28.49 17.5638 27.6711L17.5628 27.6703H17.5621C16.4246 26.8405 15.5283 25.7872 14.8845 24.5253L14.8846 24.5261L14.8839 24.5245C14.2336 23.2416 13.9152 21.7342 13.9153 20.0158C13.9153 18.8708 14.0627 17.8242 14.3622 16.8784L14.362 16.8792C14.6591 15.9318 15.0786 15.0802 15.6214 14.3303L15.6201 14.3319C16.1611 13.5753 16.8154 12.9213 17.5782 12.3731L17.5788 12.3723L17.5801 12.3715C18.3468 11.8275 19.1941 11.3778 20.119 11.023L20.117 11.0238C21.0506 10.6607 22.0488 10.395 23.1097 10.2285L23.1064 10.2294C24.1646 10.0537 25.2724 9.96541 26.4294 9.96541C28.1596 9.96541 29.7786 10.1588 31.2837 10.548C32.7948 10.9389 34.1179 11.5476 35.2424 12.3757L35.2406 12.374C36.3703 13.1953 37.262 14.2496 37.9055 15.5207L37.9049 15.519C38.5558 16.7935 38.8743 18.2966 38.8742 20.0158C38.8743 21.7342 38.5557 23.2416 37.9055 24.5245L37.9049 24.5253C37.2614 25.7863 36.3705 26.8389 35.2423 27.6695L35.2406 27.6703C34.1164 28.4891 32.7941 29.0919 31.2837 29.4828C29.7791 29.8712 28.1607 30.0654 26.431 30.0654ZM14.7197 16.9868C14.4328 17.8923 14.2895 18.9019 14.2895 20.0158C14.2895 21.6905 14.5994 23.139 15.2191 24.3614C15.8388 25.5745 16.6944 26.5799 17.7858 27.3761C18.8772 28.1646 20.1629 28.7481 21.6428 29.1289C23.1228 29.5089 24.7182 29.6989 26.4294 29.6989C28.1313 29.6989 29.7176 29.5089 31.1882 29.1289C31.2226 29.1197 31.257 29.1104 31.2912 29.1012C32.7186 28.7212 33.9607 28.1461 35.0174 27.3761C35.0597 27.345 35.1016 27.3139 35.1431 27.2819C36.1658 26.5009 36.9749 25.5274 37.5703 24.3614C38.1707 23.1777 38.4803 21.7813 38.499 20.1714C38.4996 20.1201 38.4999 20.068 38.4999 20.0158C38.4999 18.3403 38.19 16.896 37.5703 15.6829C36.9507 14.4606 36.0997 13.4559 35.0174 12.6682C33.9353 11.8712 32.6589 11.2828 31.1882 10.9028C30.9098 10.8305 30.6275 10.7658 30.3409 10.7069C29.1129 10.4572 27.8092 10.3319 26.4294 10.3319C25.2917 10.3319 24.2049 10.4177 23.1689 10.59C22.133 10.7531 21.1619 11.0112 20.2553 11.3643C19.3582 11.7082 18.5396 12.1428 17.7997 12.6682C17.0689 13.1937 16.4446 13.8183 15.9266 14.5421C15.4248 15.2348 15.0317 16.0217 14.7468 16.9011C14.7377 16.9297 14.7286 16.9583 14.7197 16.9868Z" fill="#384054"/>
<path d="M26.4294 29.6987C28.1312 29.6987 29.7175 29.5087 31.1882 29.1287C29.7176 29.5087 28.1313 29.6987 26.4294 29.6987ZM31.2912 29.101C32.7186 28.721 33.9605 28.146 35.0174 27.3759C33.9607 28.146 32.7186 28.721 31.2912 29.101ZM35.1431 27.2818C36.1658 26.5008 36.9748 25.5272 37.5703 24.3612C38.1705 23.1775 38.4803 21.7811 38.499 20.1712C38.4803 21.7811 38.1707 23.1775 37.5703 24.3612C36.9749 25.5272 36.1658 26.5008 35.1431 27.2818ZM38.4999 20.0157C38.4999 18.3402 38.1899 16.8959 37.5703 15.6828C36.9505 14.4604 36.0997 13.4558 35.0174 12.6681C33.9352 11.8711 32.6589 11.2826 31.1882 10.9026C30.9099 10.8303 30.6274 10.7656 30.3409 10.7067C30.6275 10.7656 30.9098 10.8303 31.1882 10.9026C32.6589 11.2826 33.9353 11.8711 35.0174 12.6681C36.0997 13.4558 36.9507 14.4604 37.5703 15.6828C38.19 16.8959 38.4999 18.3402 38.4999 20.0157Z" fill="#384054"/>
<path d="M26.4294 28.1914C24.7368 28.1914 23.2429 28.0149 21.948 27.6618C21.8058 27.6214 21.6662 27.5794 21.529 27.5357C21.1171 27.4028 20.7282 27.2532 20.3623 27.0842C19.7487 26.8026 19.1998 26.4697 18.7154 26.0863C17.846 25.3885 17.1892 24.5336 16.7453 23.5189C16.3013 22.505 16.0793 21.3373 16.0793 20.0157C16.0793 18.7522 16.2876 17.6248 16.7042 16.6345C16.7177 16.6025 16.7314 16.5706 16.7453 16.5386C16.7557 16.5142 16.7661 16.4907 16.7768 16.4672C17.2201 15.4752 17.8664 14.6437 18.7154 13.972C18.8472 13.8661 18.9839 13.7644 19.1253 13.666C19.1326 13.661 19.1398 13.6559 19.1471 13.6509C19.9337 13.1103 20.8673 12.6874 21.9479 12.3831C23.2429 12.0208 24.7368 11.84 26.4294 11.84C28.1221 11.84 29.6064 12.0208 30.883 12.3831C32.1687 12.7362 33.2415 13.2608 34.1017 13.9586C34.9619 14.6462 35.6093 15.497 36.0441 16.5117C36.4881 17.5256 36.7101 18.6933 36.7101 20.0157C36.7101 21.3373 36.4881 22.505 36.0441 23.5189C35.6093 24.5336 34.9619 25.3885 34.1017 26.0863C33.8876 26.2578 33.6603 26.4184 33.4199 26.5697C33.4188 26.5706 33.4178 26.5706 33.4167 26.5714C33.4152 26.5731 33.4136 26.5739 33.412 26.5748C32.6881 27.0279 31.8452 27.3902 30.883 27.6618C30.7564 27.6962 30.6278 27.7299 30.4971 27.761C29.31 28.0477 27.9542 28.1914 26.4294 28.1914ZM22.0484 27.3087C23.3026 27.6508 24.7633 27.8249 26.4294 27.8249C26.43 27.8249 26.4305 27.8249 26.4311 27.8249C28.0964 27.8249 29.547 27.6508 30.7813 27.3087L30.7796 27.3095C32.0263 26.9581 33.0509 26.4537 33.865 25.8022L33.8632 25.8039C34.6782 25.1431 35.2861 24.3394 35.6991 23.3776L35.6997 23.376L35.7002 23.3751C36.1208 22.4142 36.3358 21.2978 36.3359 20.0157C36.3358 18.7328 36.1208 17.6164 35.7002 16.6555L35.6997 16.6546L35.6991 16.653C35.2862 15.6912 34.679 14.8934 33.865 14.2419L33.8638 14.241L33.8632 14.2402C33.0498 13.5811 32.0272 13.0775 30.782 12.7353H30.7805L30.7789 12.7345C29.545 12.3839 28.095 12.2057 26.4294 12.2057C26.4288 12.2057 26.4285 12.2057 26.4279 12.2057C24.7632 12.2057 23.3037 12.3848 22.0508 12.7353L22.0516 12.7345C20.8052 13.0859 19.7763 13.5945 18.9525 14.2553H18.9524L18.9506 14.257C18.1279 14.9085 17.5116 15.7105 17.0897 16.6815H17.0897L17.0891 16.6832C16.6683 17.6441 16.4536 18.7522 16.4535 20.0157C16.4536 21.2978 16.6686 22.4142 17.0891 23.3751C17.511 24.3368 18.1281 25.1406 18.9525 25.803L18.9506 25.8013C19.7747 26.4537 20.8044 26.9581 22.0514 27.3095L22.0484 27.3087Z" fill="#384054"/>
<path d="M26.4295 28.1914C24.7369 28.1914 23.243 28.0149 21.948 27.6618C21.8058 27.6214 21.6662 27.5794 21.5291 27.5357C21.6662 27.5794 21.8059 27.6214 21.9481 27.6618C23.243 28.0149 24.7369 28.1914 26.4295 28.1914C27.9543 28.1914 29.3101 28.0477 30.4972 27.761C29.3101 28.0477 27.9543 28.1914 26.4295 28.1914ZM20.3624 27.0842C19.7488 26.8026 19.1999 26.4697 18.7155 26.0863C17.8459 25.3885 17.1893 24.5336 16.7454 23.5189C16.3014 22.505 16.0793 21.3373 16.0793 20.0157C16.0793 18.7522 16.2877 17.6248 16.7043 16.6345C16.2877 17.6248 16.0794 18.7522 16.0794 20.0157C16.0794 21.3373 16.3014 22.505 16.7454 23.5189C17.1893 24.5336 17.8461 25.3885 18.7155 26.0863C19.1999 26.4697 19.7488 26.8026 20.3624 27.0842ZM33.4121 26.5748C33.4136 26.5739 33.4153 26.5731 33.4168 26.5714C33.4153 26.5731 33.4136 26.5739 33.4121 26.5748ZM33.42 26.5697C33.6604 26.4184 33.8877 26.2578 34.1018 26.0863C33.8877 26.2578 33.6605 26.4184 33.42 26.5697ZM36.0442 23.5189C36.4882 22.505 36.7102 21.3373 36.7102 20.0157C36.7102 21.3373 36.4882 22.505 36.0442 23.5189ZM16.7769 16.4672C17.2202 15.4752 17.8663 14.6437 18.7155 13.972C17.8665 14.6437 17.2202 15.4752 16.7769 16.4672ZM19.1254 13.666C19.1327 13.661 19.1399 13.6559 19.1471 13.6509C19.1399 13.6559 19.1327 13.661 19.1254 13.666Z" fill="#384054"/>
<path d="M26.4295 29.6987C24.7183 29.6987 23.1229 29.5087 21.6429 29.1287C20.163 28.7479 18.8773 28.1645 17.7859 27.3759C16.6945 26.5798 15.8389 25.5743 15.2191 24.3612C14.5995 23.1388 14.2896 21.6903 14.2896 20.0157C14.2896 18.9018 14.4329 17.8921 14.7197 16.9867C14.4331 17.8921 14.2896 18.9018 14.2896 20.0157C14.2896 21.6903 14.5995 23.1388 15.2192 24.3612C15.8389 25.5743 16.6945 26.5798 17.7859 27.3759C18.8773 28.1645 20.163 28.7479 21.6429 29.1287C23.1229 29.5087 24.7183 29.6987 26.4295 29.6987ZM14.7469 16.9009C15.0317 16.0216 15.4249 15.2347 15.9267 14.542C16.4447 13.8181 17.069 13.1935 17.7997 12.6681C18.5397 12.1426 19.3583 11.708 20.2554 11.3642C21.1619 11.0111 22.1331 10.753 23.169 10.5899C24.205 10.4175 25.2918 10.3318 26.4295 10.3318C27.8093 10.3318 29.113 10.4571 30.3409 10.7067C29.1132 10.4571 27.8092 10.3318 26.4295 10.3318C25.2919 10.3318 24.205 10.4175 23.1691 10.5899C22.1331 10.753 21.1619 11.0111 20.2555 11.3642C19.3584 11.708 18.5397 12.1426 17.7998 12.6681C17.069 13.1935 16.4447 13.8181 15.9268 14.542C15.425 15.2347 15.0317 16.0216 14.7469 16.9009Z" fill="white"/>
<path d="M26.4294 29.6987C24.7182 29.6987 23.1228 29.5087 21.6428 29.1287C20.163 28.7479 18.8772 28.1645 17.7858 27.3759C16.6944 26.5798 15.8388 25.5743 15.2191 24.3612C14.5994 23.1388 14.2896 21.6903 14.2896 20.0157C14.2896 18.9018 14.433 17.8921 14.7196 16.9867C14.7286 16.9581 14.7377 16.9295 14.7468 16.9009C15.0317 16.0216 15.4249 15.2347 15.9267 14.542C16.4446 13.8181 17.069 13.1935 17.7997 12.6681C18.5396 12.1426 19.3583 11.708 20.2554 11.3642C21.1618 11.0111 22.133 10.753 23.169 10.5899C24.2049 10.4175 25.2918 10.3318 26.4294 10.3318C27.8091 10.3318 29.1131 10.4571 30.3409 10.7067C30.6274 10.7656 30.9099 10.8303 31.1882 10.9026C32.6589 11.2826 33.9352 11.8711 35.0174 12.6681C36.0997 13.4558 36.9505 14.4604 37.5702 15.6828C38.1899 16.8959 38.4999 18.3402 38.4999 20.0157C38.4999 20.0678 38.4996 20.1199 38.499 20.1712C38.4803 21.7811 38.1705 23.1775 37.5702 24.3612C36.9747 25.5272 36.1658 26.5008 35.1431 27.2818C35.1016 27.3137 35.0597 27.3448 35.0174 27.3759C33.9605 28.146 32.7186 28.721 31.2912 29.101C31.257 29.1103 31.2226 29.1195 31.1882 29.1287C29.7175 29.5087 28.1312 29.6987 26.4294 29.6987ZM18.0079 27.0817C19.0573 27.8391 20.2973 28.4041 21.7378 28.774C23.1834 29.1456 24.7466 29.3322 26.4294 29.3322C28.1028 29.3322 29.6565 29.1456 31.0926 28.774C32.5238 28.4041 33.7542 27.8391 34.7941 27.0825L34.7925 27.0834C35.829 26.32 36.6398 25.3633 37.2356 24.1973L37.2351 24.1981C37.8241 23.0363 38.1257 21.6466 38.1257 20.0157C38.1257 18.3839 37.8241 16.9993 37.2356 15.8467L37.2351 15.8459C36.6392 14.6714 35.8292 13.7156 34.7941 12.9615H34.7935L34.7925 12.9606C33.7527 12.1956 32.523 11.6264 31.0926 11.2565C29.6565 10.885 28.1028 10.6983 26.4294 10.6983C25.3111 10.6983 24.2452 10.7824 23.2316 10.9514H23.23H23.2283C22.2173 11.1111 21.2731 11.3616 20.3937 11.7046H20.3927L20.3919 11.7055C19.5224 12.0384 18.7326 12.4587 18.0193 12.9648L18.0212 12.9631C17.3227 13.465 16.7283 14.0602 16.2332 14.7521L16.2329 14.753L16.2319 14.7538C15.7387 15.4348 15.3536 16.2132 15.0773 17.0943L15.077 17.0951C14.8032 17.9602 14.6637 18.932 14.6637 20.0157C14.6638 21.6466 14.9653 23.0363 15.5543 24.1981L15.5537 24.1973C16.1493 25.3625 16.9642 26.3192 18.0095 27.0825L18.0079 27.0817Z" fill="#384054"/>
<path d="M30.497 27.7612C30.6277 27.7301 30.7563 27.6965 30.8829 27.662C31.8451 27.3905 32.688 27.0282 33.4119 26.575C32.6881 27.0282 31.8452 27.3905 30.883 27.662C30.7564 27.6965 30.6277 27.7301 30.497 27.7612ZM21.5289 27.5359C21.117 27.4031 20.7281 27.2526 20.3622 27.0845C20.7282 27.2535 21.117 27.4031 21.5289 27.5359ZM33.4167 26.5717C33.4177 26.5708 33.4187 26.5708 33.4198 26.57C33.4187 26.5708 33.4177 26.5708 33.4167 26.5717ZM34.1017 26.0866C34.9618 25.3888 35.6092 24.5338 36.0441 23.5191C35.6093 24.5338 34.962 25.3888 34.1017 26.0866ZM36.71 20.016C36.71 18.6936 36.4881 17.5259 36.0441 16.512C35.6092 15.4973 34.9618 14.6465 34.1017 13.9588C33.2414 13.261 32.1686 12.7364 30.8829 12.3833C29.6063 12.021 28.122 11.8403 26.4294 11.8403C24.7367 11.8403 23.2428 12.021 21.9479 12.3833C20.8672 12.6877 19.9336 13.1105 19.147 13.6511C19.9336 13.1105 20.8672 12.6877 21.9479 12.3825C23.2428 12.021 24.7367 11.8403 26.4294 11.8403C28.122 11.8403 29.6065 12.021 30.883 12.3825C32.1686 12.7364 33.2415 13.261 34.1017 13.9588C34.962 14.6465 35.6093 15.4973 36.0441 16.512C36.4881 17.5259 36.71 18.6936 36.71 20.016ZM18.7153 13.9722C18.8472 13.8663 18.9838 13.7646 19.1252 13.6663C18.9838 13.7646 18.8472 13.8663 18.7153 13.9722Z" fill="white"/>
<path d="M26.4295 28.5571C24.7103 28.5571 23.1832 28.3789 21.8476 28.0149L21.8463 28.014L21.8445 28.0132C20.5202 27.6408 19.3951 27.0952 18.4802 26.3713L18.4795 26.3705L18.4783 26.3697C17.5638 25.6366 16.8674 24.7295 16.4013 23.6635C15.934 22.5967 15.705 21.3768 15.7051 20.0157C15.705 18.6715 15.9343 17.4609 16.4013 16.3941L16.4008 16.3957C16.8666 15.3205 17.5633 14.4126 18.4789 13.6879C19.3939 12.954 20.5196 12.4042 21.8445 12.0309H21.8428H21.8452C23.1817 11.6568 24.7097 11.4735 26.4295 11.4735C28.1492 11.4735 29.6681 11.6568 30.9871 12.0309L30.9841 12.03C32.3102 12.3941 33.4332 12.9405 34.3403 13.6761L34.3385 13.6744C35.245 14.3991 35.9326 15.3037 36.3892 16.3697L36.3881 16.3671C36.8555 17.4348 37.0843 18.6538 37.0843 20.0157C37.0843 21.3768 36.8555 22.5958 36.3881 23.6635L36.3892 23.661C35.9327 24.7269 35.2459 25.6349 34.3405 26.368L34.3396 26.3688L34.3385 26.3697C33.4322 27.0943 32.311 27.6408 30.9864 28.0132H30.9868L30.9848 28.014C29.6664 28.3789 28.1486 28.5571 26.4295 28.5571ZM21.529 27.5357C21.6661 27.5794 21.8057 27.6214 21.9479 27.6618C23.2429 28.0149 24.7368 28.1914 26.4295 28.1914C27.9542 28.1914 29.31 28.0477 30.4971 27.761C30.6278 27.7299 30.7565 27.6963 30.883 27.6618C31.8453 27.3903 32.6882 27.0279 33.412 26.5748C33.4136 26.574 33.4152 26.5731 33.4167 26.5714C33.4178 26.5706 33.4188 26.5706 33.4199 26.5697C33.6604 26.4184 33.8876 26.2578 34.1017 26.0863C34.9621 25.3886 35.6094 24.5336 36.0441 23.5189C36.4882 22.505 36.7101 21.3373 36.7101 20.0157C36.7101 18.6933 36.4882 17.5256 36.0441 16.5118C35.6094 15.497 34.9621 14.6463 34.1017 13.9586C33.2415 13.2608 32.1687 12.7362 30.883 12.3823C29.6066 12.0208 28.1221 11.84 26.4295 11.84C24.7368 11.84 23.2429 12.0208 21.948 12.3823C20.8673 12.6875 19.9337 13.1103 19.1471 13.6509C19.1399 13.6559 19.1326 13.661 19.1253 13.666C18.9839 13.7644 18.8473 13.8661 18.7154 13.972C17.8662 14.6437 17.2201 15.4752 16.7768 16.4672C16.7662 16.4907 16.7557 16.5143 16.7453 16.5387C16.7314 16.5706 16.7177 16.6025 16.7042 16.6345C16.2876 17.6248 16.0793 18.7522 16.0793 20.0157C16.0793 21.3373 16.3013 22.505 16.7453 23.5189C17.1892 24.5336 17.8459 25.3886 18.7154 26.0863C19.1998 26.4697 19.7488 26.8026 20.3623 27.0842C20.7282 27.2524 21.1171 27.4029 21.529 27.5357Z" fill="#384054"/>
<path d="M56.39 30.0654H56.3885C54.6491 30.0654 53.0212 29.8721 51.507 29.4828C49.9878 29.0927 48.6563 28.49 47.5228 27.6711L47.5218 27.6703H47.5212C46.3837 26.8405 45.4875 25.7872 44.8436 24.5253H44.8435L44.8432 24.5245C44.1927 23.2416 43.8743 21.7342 43.8745 20.0158C43.8745 18.8708 44.0217 17.8242 44.3214 16.8784L44.321 16.8792C44.6181 15.9318 45.0379 15.0793 45.5806 14.3303L45.5794 14.3319C46.1202 13.5753 46.7745 12.9213 47.5376 12.3731L47.538 12.3723L47.5393 12.3715C48.3059 11.8275 49.1533 11.3778 50.078 11.023L50.0762 11.0238C51.0098 10.6607 52.0078 10.395 53.0687 10.2285L53.0655 10.2294C54.1237 10.0537 55.2317 9.96541 56.3885 9.96541C58.1189 9.96541 59.7378 10.1588 61.2429 10.548C62.7538 10.9389 64.0769 11.5476 65.2016 12.3757L65.1999 12.374C66.3294 13.1953 67.2211 14.2496 67.8646 15.5207L67.864 15.519C68.5152 16.7935 68.8334 18.2966 68.8333 20.0158C68.8334 21.7342 68.515 23.2416 67.8646 24.5245L67.8641 24.5253C67.2207 25.7863 66.3296 26.8389 65.2017 27.6695H65.2013L65.1999 27.6703C64.0755 28.4891 62.7531 29.0919 61.2427 29.4828C59.7382 29.8712 58.1199 30.0654 56.39 30.0654ZM44.2486 20.0158C44.2486 21.6905 44.5585 23.139 45.1782 24.3614C45.798 25.5745 46.6535 26.5799 47.7448 27.3761C48.8363 28.1646 50.122 28.7481 51.6019 29.1289C53.0819 29.5089 54.6773 29.6989 56.3885 29.6989C58.0903 29.6989 59.6767 29.5089 61.1472 29.1289C61.1817 29.1197 61.216 29.1104 61.2503 29.1012C62.6777 28.7212 63.9198 28.1461 64.9767 27.3761C66.0589 26.5799 66.9098 25.5745 67.5294 24.3614C68.1493 23.139 68.4591 21.6905 68.4591 20.0158C68.4591 18.3403 68.1493 16.896 67.5294 15.6829C66.9098 14.4606 66.0589 13.4559 64.9767 12.6682C63.8944 11.8712 62.618 11.2828 61.1472 10.9028C61.0898 10.8876 61.0322 10.8734 60.9744 10.8591C59.5526 10.5077 58.0239 10.3319 56.3885 10.3319C55.2509 10.3319 54.164 10.4177 53.1281 10.59C52.0922 10.7531 51.1209 11.0112 50.2145 11.3643C50.1094 11.4047 50.0053 11.4459 49.9023 11.4887C49.1266 11.8116 48.4121 12.2042 47.7588 12.6682C47.0281 13.1937 46.4037 13.8183 45.886 14.5421C45.8778 14.553 45.8698 14.5648 45.8617 14.5757C45.3553 15.2828 44.9608 16.0865 44.6788 16.9868C44.3964 17.878 44.2532 18.87 44.2487 19.9629C44.2487 19.9805 44.2486 19.9982 44.2486 20.0158Z" fill="#384054"/>
<path d="M61.2503 29.1011C62.6777 28.7211 63.9196 28.146 64.9767 27.376C63.9198 28.146 62.6777 28.7211 61.2503 29.1011ZM64.9767 27.376C66.0588 26.5798 66.9098 25.5744 67.5293 24.3613C68.1491 23.1389 68.459 21.6904 68.459 20.0157C68.459 18.3403 68.1491 16.8959 67.5293 15.6828C66.9098 14.4605 66.0588 13.4559 64.9767 12.6681C63.8943 11.8712 62.618 11.2827 61.1472 10.9027C61.0898 10.8876 61.0322 10.8733 60.9744 10.859C61.0322 10.8733 61.0898 10.8876 61.1472 10.9027C62.618 11.2827 63.8944 11.8712 64.9767 12.6681C66.0589 13.4559 66.9098 14.4605 67.5294 15.6828C68.1493 16.8959 68.4591 18.3403 68.4591 20.0157C68.4591 21.6904 68.1493 23.1389 67.5294 24.3613C66.9098 25.5744 66.0589 26.5798 64.9767 27.376Z" fill="#384054"/>
<path d="M56.3884 28.1914C54.6958 28.1914 53.2021 28.0149 51.907 27.6618C51.4024 27.5197 50.9297 27.3524 50.4891 27.1599C49.8075 26.8623 49.2026 26.5041 48.6745 26.0863C47.8051 25.3885 47.1484 24.5336 46.7043 23.5189C46.2603 22.505 46.0383 21.3373 46.0383 20.0157C46.0383 18.732 46.2535 17.5886 46.6837 16.5865C46.6905 16.5706 46.6974 16.5546 46.7043 16.5386C46.7147 16.5142 46.7253 16.4907 46.736 16.4672C47.1792 15.4752 47.8255 14.6437 48.6745 13.972C49.1704 13.5744 49.7339 13.2314 50.3652 12.9422C50.8407 12.7253 51.3547 12.5386 51.907 12.3831C53.1615 12.0317 54.6025 11.8509 56.2301 11.84C56.2564 11.84 56.2828 11.84 56.3092 11.84C56.3356 11.84 56.362 11.84 56.3884 11.84C58.0811 11.84 59.5656 12.0208 60.842 12.3831C62.1277 12.7362 63.2007 13.2608 64.0607 13.9586C64.9211 14.6462 65.5685 15.497 66.0031 16.5117C66.4471 17.5256 66.6692 18.6933 66.6692 20.0157C66.6692 20.5361 66.6347 21.033 66.5658 21.5063C66.4598 22.2335 66.2722 22.9043 66.0031 23.5189C65.5685 24.5336 64.9211 25.3885 64.0607 26.0863C63.2007 26.774 62.1277 27.2994 60.842 27.6618C59.5967 28.0065 58.1531 28.1822 56.5114 28.1906C56.4705 28.1914 56.4296 28.1914 56.3884 28.1914ZM52.0074 27.3087C53.2618 27.6508 54.7223 27.8249 56.3884 27.8249C56.389 27.8249 56.3895 27.8249 56.3901 27.8249C58.0552 27.8249 59.5056 27.6508 60.7396 27.3095C61.986 26.9581 63.0103 26.4537 63.824 25.8022L63.8221 25.8039C64.6372 25.1431 65.2453 24.3394 65.6581 23.3776L65.6587 23.376L65.6593 23.3751C66.0799 22.4142 66.295 21.2978 66.2951 20.0157C66.295 18.7337 66.0799 17.6164 65.6593 16.6555L65.6589 16.6546L65.6581 16.653C65.2454 15.6912 64.6381 14.8934 63.824 14.2419L63.8233 14.241L63.8221 14.2402C63.0091 13.5811 61.9862 13.0775 60.7409 12.7353L60.739 12.7345H60.7379C59.5042 12.3839 58.0539 12.2057 56.3884 12.2057C56.3878 12.2057 56.3875 12.2057 56.3869 12.2057C54.7222 12.2057 53.2629 12.3848 52.0099 12.7353L52.0106 12.7345C50.7644 13.0859 49.7353 13.5945 48.9116 14.2553L48.9098 14.257C48.0871 14.9085 47.4708 15.7105 47.0487 16.6815L47.0483 16.6832C46.6275 17.6441 46.4126 18.7522 46.4125 20.0157C46.4126 21.2978 46.6277 22.4142 47.0483 23.3751C47.4702 24.3368 48.0871 25.1406 48.9116 25.803L48.9098 25.8013C49.7337 26.4537 50.7637 26.9581 52.0106 27.3095L52.0074 27.3087Z" fill="#384054"/>
<path d="M56.3885 28.1914C54.6959 28.1914 53.2021 28.0149 51.9071 27.6618C53.2022 28.0149 54.6959 28.1914 56.3885 28.1914ZM56.5115 28.1906C58.1532 28.1822 59.5968 28.0065 60.8421 27.6618C59.5967 28.0065 58.1531 28.1822 56.5115 28.1906ZM50.4892 27.1599C49.8074 26.8623 49.2026 26.5041 48.6745 26.0863C47.8051 25.3885 47.1484 24.5336 46.7044 23.5189C46.2604 22.505 46.0383 21.3373 46.0383 20.0157C46.0383 18.732 46.2536 17.5886 46.6837 16.5865C46.2536 17.5886 46.0384 18.732 46.0384 20.0157C46.0384 21.3373 46.2604 22.505 46.7044 23.5189C47.1484 24.5336 47.8052 25.3885 48.6746 26.0863C49.2027 26.5041 49.8076 26.8623 50.4892 27.1599ZM66.5659 21.5063C66.6348 21.033 66.6693 20.5361 66.6693 20.0157C66.6693 20.5361 66.6349 21.033 66.5659 21.5063ZM46.736 16.4672C47.1793 15.4752 47.8255 14.6437 48.6745 13.972C49.1704 13.5744 49.7339 13.2314 50.3653 12.9422C49.734 13.2314 49.1705 13.5744 48.6746 13.972C47.8255 14.6437 47.1793 15.4752 46.736 16.4672ZM56.2302 11.84C56.2565 11.84 56.2829 11.84 56.3093 11.84C56.2829 11.84 56.2565 11.84 56.2302 11.84Z" fill="#384054"/>
<path d="M56.3884 29.6987C54.6772 29.6987 53.0818 29.5087 51.6019 29.1287C50.1219 28.7479 48.8362 28.1645 47.7447 27.3759C46.6534 26.5798 45.7979 25.5743 45.1781 24.3612C44.5584 23.1388 44.2485 21.6903 44.2485 20.0157C44.2485 21.6903 44.5584 23.1388 45.1783 24.3612C45.7979 25.5743 46.6535 26.5798 47.7448 27.3759C48.8364 28.1645 50.1219 28.7479 51.6019 29.1287C53.0818 29.5087 54.6774 29.6987 56.3884 29.6987C58.0903 29.6987 59.6766 29.5087 61.1472 29.1287C61.1816 29.1195 61.2159 29.1103 61.2502 29.101C61.2159 29.1103 61.1816 29.1195 61.1472 29.1287C59.6766 29.5087 58.0903 29.6987 56.3884 29.6987ZM44.2486 19.9627C44.2531 18.8698 44.3963 17.8778 44.6787 16.9867C44.3964 17.8778 44.2531 18.8698 44.2486 19.9627ZM44.6787 16.9867C44.9608 16.0863 45.3552 15.2826 45.8617 14.5756C45.3552 15.2826 44.9609 16.0863 44.6787 16.9867ZM45.8859 14.542C46.4036 13.8181 47.028 13.1935 47.7587 12.6681C48.412 12.204 49.1266 11.8114 49.9022 11.4886C49.1266 11.8114 48.412 12.204 47.7589 12.6681C47.028 13.1935 46.4037 13.8181 45.8859 14.542ZM60.9743 10.8589C59.5525 10.5075 58.0238 10.3318 56.3884 10.3318C55.2508 10.3318 54.164 10.4175 53.128 10.5899C54.1639 10.4175 55.2508 10.3318 56.3884 10.3318C58.0238 10.3318 59.5525 10.5075 60.9743 10.8589Z" fill="white"/>
<path d="M56.3884 29.6987C54.6774 29.6987 53.0818 29.5087 51.6019 29.1287C50.1219 28.7479 48.8364 28.1645 47.7448 27.3759C46.6535 26.5798 45.7979 25.5743 45.1783 24.3612C44.5584 23.1388 44.2485 21.6903 44.2485 20.0157C44.2485 19.998 44.2486 19.9804 44.2486 19.9627C44.2531 18.8698 44.3964 17.8778 44.6787 16.9867C44.9609 16.0863 45.3552 15.2826 45.8617 14.5756C45.8697 14.5647 45.8777 14.5529 45.8859 14.542C46.4037 13.8181 47.028 13.1935 47.7589 12.6681C48.412 12.204 49.1266 11.8114 49.9023 11.4886C50.0052 11.4457 50.1093 11.4045 50.2144 11.3642C51.1208 11.0111 52.0921 10.753 53.128 10.5899C54.164 10.4175 55.2508 10.3318 56.3884 10.3318C58.0238 10.3318 59.5525 10.5075 60.9743 10.8589C61.0321 10.8732 61.0897 10.8875 61.1472 10.9026C62.6179 11.2826 63.8942 11.8711 64.9766 12.6681C66.0587 13.4558 66.9097 14.4604 67.5292 15.6828C68.1491 16.8959 68.4589 18.3402 68.4589 20.0157C68.4589 21.6903 68.1491 23.1388 67.5292 24.3612C66.9097 25.5743 66.0587 26.5798 64.9766 27.3759C63.9195 28.146 62.6776 28.721 61.2502 29.101C61.2159 29.1103 61.1816 29.1195 61.1472 29.1287C59.6766 29.5087 58.0903 29.6987 56.3884 29.6987ZM47.9668 27.0817C49.0164 27.8391 50.2563 28.4041 51.6969 28.774C53.1425 29.1456 54.7056 29.3322 56.3884 29.3322C58.0618 29.3322 59.6155 29.1456 61.0517 28.774C62.4828 28.4041 63.7131 27.8391 64.7534 27.0825L64.7517 27.0834C65.7877 26.32 66.5985 25.3633 67.1943 24.1981C67.7835 23.0363 68.0846 21.6466 68.0848 20.0157C68.0846 18.3839 67.7834 16.9993 67.1946 15.8467L67.1941 15.8459C66.5984 14.6714 65.7881 13.7156 64.7534 12.9615H64.7524L64.7517 12.9606C63.7118 12.1956 62.4821 11.6264 61.0516 11.2565C59.6156 10.885 58.0619 10.6983 56.3884 10.6983C55.2701 10.6983 54.2042 10.7824 53.1906 10.9514H53.1896H53.1873C52.1764 11.1111 51.232 11.3616 50.3527 11.7046H50.3518L50.3509 11.7055C49.4814 12.0384 48.6917 12.4587 47.9784 12.9648L47.9803 12.9631C47.2816 13.465 46.6872 14.0602 46.1925 14.7521L46.192 14.753L46.1911 14.7538C45.6979 15.4348 45.3126 16.2132 45.0364 17.0943L45.0371 17.0926L45.0362 17.0951C44.7622 17.9602 44.6228 18.932 44.6228 20.0157C44.6229 21.6466 44.9242 23.0363 45.5133 24.1981C46.1087 25.3625 46.9235 26.3192 47.9685 27.0825L47.9668 27.0817Z" fill="#384054"/>
<path d="M56.3885 28.1914C56.4296 28.1914 56.4706 28.1914 56.5115 28.1906C56.4706 28.1914 56.4296 28.1914 56.3885 28.1914ZM60.8421 27.6618C62.1278 27.2994 63.2008 26.774 64.0608 26.0863C64.9212 25.3885 65.5685 24.5336 66.0032 23.5189C66.2723 22.9043 66.4598 22.2335 66.5659 21.5063C66.4598 22.2335 66.2723 22.9043 66.0034 23.5189C65.5687 24.5336 64.9212 25.3885 64.061 26.0863C63.2009 26.774 62.1278 27.2994 60.8421 27.6618ZM51.9071 27.6618C51.4023 27.5197 50.9297 27.3524 50.4892 27.1599C50.9297 27.3524 51.4024 27.5197 51.9071 27.6618ZM66.6693 20.0157C66.6693 18.6933 66.4472 17.5256 66.0032 16.5117C65.5685 15.497 64.9212 14.6462 64.0608 13.9586C63.2008 13.2608 62.1278 12.7362 60.8421 12.3831C59.5657 12.0208 58.0812 11.84 56.3885 11.84C56.362 11.84 56.3357 11.84 56.3093 11.84C56.3357 11.84 56.362 11.84 56.3885 11.84C58.0812 11.84 59.5658 12.0208 60.8421 12.3823C62.1278 12.7362 63.2009 13.2608 64.061 13.9586C64.9212 14.6462 65.5687 15.497 66.0034 16.5117C66.4472 17.5256 66.6693 18.6933 66.6693 20.0157ZM50.3652 12.9422C50.8408 12.7253 51.3548 12.5386 51.9071 12.3823C53.1616 12.0317 54.6026 11.8509 56.2301 11.84C54.6026 11.8509 53.1616 12.0317 51.9071 12.3831C51.3548 12.5386 50.8408 12.7253 50.3652 12.9422Z" fill="white"/>
<path d="M56.3886 28.5571C54.6696 28.5571 53.1426 28.3789 51.8068 28.0149L51.8049 28.014L51.8037 28.0132C50.4796 27.6408 49.3542 27.0952 48.4394 26.3713L48.438 26.3697H48.4374C47.5231 25.6366 46.8267 24.7295 46.3606 23.6635C45.8933 22.5967 45.6643 21.3768 45.6643 20.0157C45.6641 18.6715 45.8935 17.4609 46.3606 16.3941L46.3601 16.3957C46.8259 15.3205 47.5225 14.4126 48.438 13.6879C49.3531 12.954 50.479 12.4042 51.8037 12.0309H51.8044C53.141 11.6568 54.6689 11.4735 56.3886 11.4735C58.1085 11.4735 59.6274 11.6568 60.9465 12.0309L60.9433 12.03C62.2694 12.3941 63.3926 12.9405 64.2996 13.6761L64.2978 13.6744C65.2042 14.3991 65.892 15.3028 66.3485 16.3697L66.3472 16.3671C66.8146 17.4348 67.0437 18.6538 67.0436 20.0157C67.0437 21.3768 66.8146 22.5967 66.3472 23.6635L66.3485 23.661C65.8921 24.7269 65.205 25.6349 64.2996 26.368L64.2978 26.3697C63.3914 27.0943 62.2703 27.6408 60.9458 28.0132H60.9459L60.944 28.014C59.6258 28.3789 58.1077 28.5571 56.3886 28.5571ZM51.9072 27.6618C53.2022 28.0149 54.6959 28.1914 56.3886 28.1914C56.4297 28.1914 56.4707 28.1914 56.5116 28.1906C58.1532 28.1822 59.5968 28.0065 60.8422 27.6618C62.1279 27.2995 63.201 26.774 64.0611 26.0863C64.9213 25.3886 65.5688 24.5336 66.0035 23.5189C66.2724 22.9044 66.4599 22.2335 66.566 21.5063C66.635 21.033 66.6694 20.5361 66.6694 20.0157C66.6694 18.6933 66.4473 17.5256 66.0035 16.5118C65.5688 15.497 64.9213 14.6463 64.0611 13.9586C63.201 13.2608 62.1279 12.7362 60.8422 12.3823C59.5659 12.0208 58.0813 11.84 56.3886 11.84C56.3621 11.84 56.3358 11.84 56.3094 11.84C56.283 11.84 56.2566 11.84 56.2302 11.84C54.6027 11.851 53.1617 12.0317 51.9072 12.3823C51.3549 12.5387 50.8409 12.7253 50.3653 12.9422C49.734 13.2314 49.1705 13.5744 48.6746 13.972C47.8255 14.6437 47.1794 15.4752 46.7361 16.4672C46.7255 16.4907 46.7149 16.5143 46.7045 16.5387C46.6976 16.5546 46.6907 16.5706 46.6838 16.5866C46.2536 17.5887 46.0384 18.732 46.0384 20.0157C46.0384 21.3373 46.2605 22.505 46.7045 23.5189C47.1485 24.5336 47.8052 25.3886 48.6746 26.0863C49.2027 26.5042 49.8075 26.8623 50.4893 27.1599C50.9298 27.3524 51.4024 27.5197 51.9072 27.6618Z" fill="#384054"/>
<path d="M95.9876 29.6982H91.6866L77.6759 20.512V29.6982H75.1655V10.3052H77.6759V18.7937L91.3723 10.3052H95.1502L80.6021 19.6251L95.9876 29.6982ZM77.3017 19.8252L91.8 29.3325H94.7552L89.8436 26.1169L79.924 19.6217L93.8955 10.6718H91.4814L77.3017 19.4587V10.6718H75.5397V29.3325H77.3017V19.8252Z" fill="#384054"/>
<path d="M94.7553 29.3325H91.8001L77.3018 19.8252L91.8001 29.3325H94.7553ZM77.3018 29.3325H75.5398V10.6717H77.3018H75.5398V29.3325H77.3018ZM89.8437 26.1169L79.924 19.6217L93.8956 10.6717L79.9241 19.6217L89.8437 26.1169Z" fill="#384054"/>
<path d="M94.7553 29.3325H91.8001L77.3018 19.8252V29.3325H75.5398V10.6717H77.3018V19.4586L91.4814 10.6717H93.8956L79.924 19.6217L89.8437 26.1169L94.7553 29.3325ZM77.7 19.6461L91.9143 28.966H93.5228L79.246 19.6184L92.64 11.0383H91.5896L77.7 19.6461ZM75.9139 11.0383V28.966H76.9277V19.1392V11.0383H75.9139Z" fill="#384054"/>
<path d="M120.421 29.6982H117.902V29.3325H119.804L109.828 10.6718H107.788L97.8127 29.3325H99.7133L102.336 24.4162H115.28L117.003 27.6461L117.902 29.3325V29.6982H117.676L115.054 24.7827H102.563L99.94 29.6982H97.1943L107.562 10.3052H110.054L120.421 29.6982Z" fill="#384054"/>
<path d="M119.804 29.3325H117.902H117.903H119.804ZM117.902 29.3325L117.003 27.6461L117.902 29.3325H117.903H117.902ZM99.7133 29.3325H97.8127H99.7133Z" fill="#384054"/>
<path d="M114.434 22.854H103.182L108.815 12.3151L114.434 22.854ZM108.814 13.1054L103.8 22.4875H113.817L108.814 13.1054Z" fill="#384054"/>
<path d="M114.434 22.854L108.815 12.3151L114.434 22.854ZM103.182 22.854L108.815 12.3151L103.182 22.854Z" fill="#384054"/>
<path d="M119.804 29.3325L109.828 10.6717L119.804 29.3325ZM99.7133 29.3325L102.336 24.4162H115.28L117.003 27.6461L115.28 24.4162H102.336L99.7133 29.3325ZM97.8127 29.3325L107.788 10.6717L97.8127 29.3325Z" fill="white"/>
<path d="M119.804 29.3325H117.903L118.234 29.1627L117.903 29.3325H117.902L117.003 27.6461L115.28 24.4162H102.336L99.7133 29.3325H97.8127L107.788 10.6717H109.828L119.804 29.3325ZM118.129 28.966H119.185L109.601 11.0383H108.015L98.4311 28.966H99.4866L102.109 24.0496H115.507L118.129 28.966Z" fill="#384054"/>
<path d="M115.052 23.2207H102.564L108.484 12.1455L108.815 11.5242L115.052 23.2207ZM103.182 22.8541H114.434L108.815 12.3153L108.484 12.4843L108.815 12.3153L103.182 22.8541Z" fill="#384054"/>
<path d="M145.752 29.6982H142.624L136.487 21.6713C136.29 21.6831 136.09 21.6924 135.887 21.6991H135.888C135.615 21.7083 135.333 21.7125 135.042 21.7125H127.66V29.6982H125.178V10.3052H135.042C136.515 10.3061 137.783 10.4196 138.856 10.6541L138.852 10.6533C139.922 10.8777 140.815 11.2266 141.524 11.7142C142.24 12.1901 142.778 12.8038 143.112 13.5377C143.442 14.2632 143.602 15.0997 143.602 16.0362C143.602 16.7651 143.504 17.4326 143.303 18.0345C143.101 18.6365 142.794 19.1728 142.386 19.6318H142.386L142.385 19.6327C141.972 20.0917 141.44 20.4708 140.799 20.7735C140.311 21.0047 139.758 21.1913 139.143 21.3376L145.752 29.6982ZM140.181 25.8908L142.812 29.3325H144.99L138.483 21.1022C140.148 20.7945 141.355 20.2237 142.104 19.3914C142.854 18.549 143.228 17.4309 143.228 16.0362C143.228 15.14 143.075 14.3565 142.77 13.6865C142.465 13.0173 141.979 12.4599 141.313 12.016C140.657 11.5637 139.81 11.2283 138.774 11.0114C137.739 10.7853 136.494 10.6718 135.042 10.6718H125.552V29.3325H127.287V21.3468H135.042C135.329 21.3468 135.606 21.3418 135.875 21.3334C135.908 21.3317 135.942 21.3309 135.974 21.3292C136.209 21.3208 136.439 21.3082 136.665 21.2922L140.181 25.8908Z" fill="#384054"/>
<path d="M144.989 29.3325H142.812L140.181 25.8907L142.812 29.3325H144.989ZM127.287 29.3325H125.552V10.6717H135.042C136.494 10.6717 137.738 10.7852 138.774 11.0114C139.81 11.2283 140.657 11.5637 141.313 12.016C141.979 12.4599 142.465 13.0173 142.77 13.6865C143.075 14.3565 143.228 15.14 143.228 16.0362C143.228 15.14 143.075 14.3565 142.77 13.6865C142.465 13.0173 141.979 12.4599 141.313 12.0169C140.657 11.5637 139.81 11.2283 138.774 11.0114C137.738 10.7852 136.494 10.6717 135.042 10.6717H125.552V29.3325H127.287ZM135.974 21.3292C136.209 21.3208 136.439 21.3081 136.665 21.2922C136.439 21.3081 136.209 21.3208 135.974 21.3292Z" fill="#384054"/>
<path d="M133.141 19.7578H127.287V12.2605H133.197C134.723 12.2605 136.009 12.3102 137.054 12.4102C138.109 12.501 138.96 12.6817 139.606 12.9533C140.254 13.2248 140.721 13.6099 141.008 14.1075C141.295 14.5968 141.438 15.2391 141.438 16.0361C141.438 16.8423 141.29 17.4896 140.994 17.9781C140.707 18.4581 140.236 18.8339 139.579 19.1054C138.922 19.3677 138.067 19.5451 137.012 19.6351C135.957 19.7166 134.667 19.7578 133.141 19.7578ZM127.66 12.6271V19.3913H133.141C134.66 19.3913 135.943 19.3509 136.983 19.2702H136.979C138.007 19.1828 138.828 19.0096 139.433 18.7683C139.734 18.6439 139.985 18.4985 140.189 18.3362C140.393 18.1731 140.551 17.994 140.671 17.7931L140.672 17.7914C140.797 17.5855 140.896 17.3383 140.962 17.0458C141.029 16.754 141.064 16.4177 141.064 16.0361C141.064 15.6594 141.029 15.3249 140.965 15.0348C140.9 14.7439 140.804 14.4968 140.683 14.29L140.683 14.2883L140.682 14.2874C140.561 14.0773 140.403 13.8923 140.202 13.7259C140 13.5603 139.754 13.414 139.46 13.2904C138.866 13.0407 138.049 12.8625 137.021 12.7751H137.02L137.018 12.7742C135.99 12.6767 134.715 12.6271 133.197 12.6271H127.66Z" fill="#384054"/>
<path d="M137.012 19.6353C138.067 19.5453 138.922 19.3679 139.579 19.1056C140.236 18.8341 140.707 18.4583 140.994 17.9782C141.29 17.4898 141.438 16.8425 141.438 16.0363C141.438 16.8425 141.291 17.4898 140.994 17.9782C140.707 18.4583 140.236 18.8341 139.579 19.1056C138.922 19.3679 138.067 19.5453 137.012 19.6353Z" fill="#384054"/>
<path d="M144.99 29.3325L138.483 21.1022L144.99 29.3325ZM127.287 29.3325V21.3468H135.042C135.329 21.3468 135.606 21.3418 135.875 21.3334C135.908 21.3317 135.942 21.3308 135.974 21.3292C135.942 21.3308 135.908 21.3317 135.875 21.3334C135.606 21.3418 135.329 21.3468 135.042 21.3468H127.287V29.3325ZM127.287 21.3468V21.7125V21.3468ZM140.181 25.8907L136.665 21.2922L140.181 25.8907Z" fill="white"/>
<path d="M144.989 29.3325H142.812L140.181 25.8907L136.665 21.2922C136.439 21.3081 136.209 21.3208 135.974 21.3292C135.942 21.3308 135.908 21.3317 135.875 21.3334C135.606 21.3418 135.329 21.3468 135.042 21.3468H127.287V29.3325H125.552V10.6717H135.042C136.494 10.6717 137.738 10.7852 138.774 11.0114C139.81 11.2283 140.657 11.5637 141.313 12.0169C141.979 12.4599 142.465 13.0173 142.77 13.6865C143.075 14.3565 143.228 15.14 143.228 16.0362C143.228 17.4309 142.854 18.549 142.104 19.3914C141.355 20.2237 140.147 20.7945 138.483 21.1022L144.989 29.3325ZM136.843 20.913L142.999 28.966H144.227L137.813 20.8533L138.413 20.7424C139.221 20.5927 139.908 20.3817 140.474 20.1135C141.041 19.8453 141.486 19.5225 141.823 19.1484L141.821 19.1501C142.162 18.7667 142.418 18.3229 142.592 17.8067C142.764 17.2905 142.854 16.7012 142.854 16.0362C142.854 15.1804 142.708 14.4498 142.428 13.8361C142.151 13.23 141.718 12.7298 141.102 12.3195L141.1 12.3178L141.097 12.3161C140.494 11.8992 139.696 11.5789 138.696 11.3695L138.693 11.3687H138.693C137.693 11.1501 136.474 11.0383 135.042 11.0383H125.926V28.966H126.912V21.3468V20.9803H135.042C135.325 20.9803 135.598 20.9761 135.861 20.9668H135.862C136.126 20.9584 136.384 20.945 136.638 20.9273L136.843 20.913Z" fill="#384054"/>
<path d="M133.141 19.7578C134.667 19.7578 135.957 19.7166 137.012 19.6351C135.958 19.7166 134.667 19.7578 133.141 19.7578ZM127.287 19.7578V12.2605H133.197C134.723 12.2605 136.009 12.3102 137.054 12.4102C138.109 12.501 138.96 12.6817 139.606 12.9533C140.254 13.2248 140.721 13.6099 141.008 14.1075C141.295 14.5968 141.438 15.2391 141.438 16.0361C141.438 15.2391 141.295 14.5968 141.008 14.1075C140.721 13.6099 140.254 13.2248 139.606 12.9533C138.96 12.6817 138.109 12.501 137.054 12.4102C136.009 12.3102 134.723 12.2605 133.197 12.2605H127.287V19.7578Z" fill="white"/>
<path d="M133.141 20.1235H126.912V11.8949H133.197C134.732 11.8949 136.028 11.9445 137.09 12.0454H137.087C138.167 12.1387 139.052 12.3228 139.754 12.617C140.106 12.765 140.418 12.9466 140.683 13.1651C140.949 13.3837 141.169 13.6401 141.334 13.9277L141.333 13.9251C141.497 14.2076 141.618 14.5262 141.696 14.8785C141.775 15.2307 141.812 15.6166 141.812 16.0361C141.812 16.4606 141.773 16.8507 141.692 17.2063C141.611 17.5611 141.487 17.8823 141.316 18.1647L141.317 18.163C141.15 18.443 140.929 18.691 140.661 18.9045C140.394 19.1172 140.08 19.2963 139.725 19.4434L139.722 19.4443L139.721 19.4451C139.013 19.7267 138.124 19.9066 137.044 19.9999L137.043 20.0008H137.042C135.973 20.0832 134.674 20.1235 133.141 20.1235ZM127.287 19.7578H133.141C134.667 19.7578 135.958 19.7166 137.012 19.6351C138.066 19.5451 138.922 19.3678 139.579 19.1055C140.236 18.8339 140.707 18.4581 140.994 17.9781C141.291 17.4896 141.438 16.8423 141.438 16.0361C141.438 15.2391 141.295 14.5969 141.008 14.1076C140.721 13.6099 140.254 13.2248 139.606 12.9533C138.96 12.6818 138.109 12.501 137.054 12.4102C136.009 12.3102 134.723 12.2606 133.197 12.2606H127.287V19.7578Z" fill="#384054"/>
<path d="M157.208 29.6982H154.739V2.28507H79.417V0.00427437H164.008V2.28507H157.208V29.6982ZM83.2266 1.91853L155.027 2.08667V29.3325H156.919V2.08667H163.634V0.201836L83.2266 0.369974H79.7912V1.91853H83.2266Z" fill="#384054"/>
<path d="M156.919 29.3325H155.027V2.08664L83.2266 1.9185H155.113V29.3325H156.834V1.9185V2.28504V1.9185H163.634V0.369947H83.2266L163.634 0.201809V2.08664H156.919V29.3325Z" fill="#384054"/>
<path d="M83.2266 1.91846H79.7913V0.369899H83.2266V0.736453H80.1655V1.55192H83.2266V1.91846Z" fill="white"/>
<path d="M156.834 29.3325H155.113V1.91851H83.2266V1.55197H155.488V28.966H156.459V1.91851V1.55197H163.26V0.736504H83.2266V0.369949H163.634V1.91851H156.834V29.3325Z" fill="#384054"/>
<path d="M16.1697 37.6796H84.1414V39.9966H16.1697V37.6796Z" fill="url(#paint0_linear_357_8130)"/>
<path d="M146.176 -0.000190735H78.2642V2.28564H146.176V-0.000190735Z" fill="url(#paint1_linear_357_8130)"/>
<path d="M157.268 0.00324631H170V2.2832H157.268V0.00324631Z" fill="url(#paint2_linear_357_8130)"/>
<defs>
<linearGradient id="paint0_linear_357_8130" x1="16.1697" y1="38.8381" x2="84.1414" y2="38.8381" gradientUnits="userSpaceOnUse">
<stop stop-color="#384054"/>
<stop offset="1" stop-color="white"/>
</linearGradient>
<linearGradient id="paint1_linear_357_8130" x1="146.176" y1="1.14315" x2="78.264" y2="1.14316" gradientUnits="userSpaceOnUse">
<stop stop-color="#384054"/>
<stop offset="1" stop-color="white"/>
</linearGradient>
<linearGradient id="paint2_linear_357_8130" x1="157.268" y1="1.14322" x2="170" y2="1.14323" gradientUnits="userSpaceOnUse">
<stop stop-color="#384054"/>
<stop offset="1" stop-color="white"/>
</linearGradient>
</defs>
</svg>
