<svg width="250" height="60" viewBox="0 0 250 60" fill="none" xmlns="http://www.w3.org/2000/svg">
<path d="M0.549377 59.4503V16.0077H3.09577L3.22187 57.067L121.446 56.6886V59.8286L0.549377 59.4503Z" fill="#384054"/>
<path d="M53.9022 30.0238C53.9022 28.0402 53.5764 26.2886 52.9244 24.7678C52.2861 23.2457 51.3356 21.9695 50.0723 20.938C48.8093 19.8914 47.234 19.1045 45.3462 18.5736C43.472 18.0313 41.2923 17.7602 38.8069 17.7602C36.3215 17.7602 34.128 18.0313 32.2267 18.5736C30.3388 19.1171 28.7567 19.9115 27.4802 20.9582C26.2036 21.9897 25.2392 23.2735 24.5874 24.8081C23.9354 26.3289 23.6096 28.0679 23.6096 30.0238C23.6096 32.0061 23.9354 33.7577 24.5874 35.2785C25.2392 36.8006 26.2036 38.083 27.4802 39.1297C28.7567 40.1612 30.3388 40.9493 32.2267 41.4928C34.128 42.0225 36.3215 42.2873 38.8069 42.2873C41.2923 42.2873 43.472 42.0225 45.3462 41.4928C47.234 40.9493 48.8093 40.1612 50.0723 39.1297C51.3356 38.083 52.2861 36.8006 52.9244 35.2785C53.5764 33.7577 53.9022 32.0061 53.9022 30.0238ZM56.5303 30.0238C56.5303 32.5357 56.0752 34.7085 55.1654 36.542C54.2556 38.3617 53.006 39.8699 51.4168 41.0641C49.8279 42.2469 47.9538 43.1221 45.7943 43.6933C43.635 44.2633 41.3058 44.5483 38.8069 44.5483C36.2943 44.5483 33.9517 44.2633 31.7785 43.6933C29.6056 43.1221 27.7177 42.2469 26.1152 41.0641C24.5127 39.8699 23.2563 38.3617 22.3465 36.542C21.4365 34.7085 20.9816 32.5357 20.9816 30.0238C20.9816 28.3529 21.1922 26.8384 21.6131 25.4803C22.0342 24.1083 22.6249 22.8863 23.3855 21.8132C24.1459 20.7274 25.0626 19.7905 26.1357 19.0023C27.222 18.2142 28.4242 17.5622 29.7415 17.0465C31.0723 16.5168 32.4983 16.1297 34.0195 15.8851C35.5406 15.6266 37.1365 15.4979 38.8069 15.4979C41.3058 15.4979 43.635 15.7829 45.7943 16.3542C47.9538 16.9242 49.8279 17.8069 51.4168 19.0023C53.006 20.1839 54.2556 21.6909 55.1654 23.5244C56.0752 25.3441 56.5303 27.5105 56.5303 30.0238Z" fill="#384054"/>
<path d="M97.8923 30.0238C97.8923 28.0402 97.5662 26.2886 96.9145 24.7678C96.2763 23.2457 95.3254 21.9695 94.0624 20.938C92.7995 19.8914 91.2239 19.1045 89.336 18.5736C87.462 18.0313 85.2822 17.7602 82.7967 17.7602C80.3113 17.7602 78.1181 18.0313 76.2165 18.5736C74.329 19.1171 72.7468 19.9115 71.4701 20.9582C70.1936 21.9897 69.2292 23.2735 68.5773 24.8081C67.9253 26.3289 67.5994 28.0679 67.5994 30.0238C67.5994 32.0061 67.9253 33.7577 68.5773 35.2785C69.2292 36.8006 70.1936 38.083 71.4701 39.1297C72.7468 40.1612 74.329 40.9493 76.2165 41.4928C78.1181 42.0225 80.3113 42.2873 82.7967 42.2873C85.2822 42.2873 87.462 42.0225 89.336 41.4928C91.2239 40.9493 92.7995 40.1612 94.0624 39.1297C95.3254 38.083 96.2763 36.8006 96.9145 35.2785C97.5662 33.7577 97.8923 32.0061 97.8923 30.0238ZM100.52 30.0238C100.52 32.5357 100.065 34.7085 99.1552 36.542C98.2454 38.3617 96.9961 39.8699 95.407 41.0641C93.8177 42.2469 91.9436 43.1221 89.7841 43.6933C87.6248 44.2633 85.2956 44.5483 82.7967 44.5483C80.2843 44.5483 77.9415 44.2633 75.7686 43.6933C73.5954 43.1221 71.7078 42.2469 70.105 41.0641C68.5026 39.8699 67.2464 38.3617 66.3366 36.542C65.4264 34.7085 64.9714 32.5357 64.9714 30.0238C64.9714 28.3529 65.182 26.8384 65.603 25.4803C66.024 24.1083 66.6148 22.8863 67.3755 21.8132C68.1359 20.7274 69.0526 19.7905 70.1257 19.0023C71.2121 18.2142 72.414 17.5622 73.7313 17.0465C75.0622 16.5168 76.4883 16.1297 78.0093 15.8851C79.5305 15.6266 81.1263 15.4979 82.7967 15.4979C85.2956 15.4979 87.6248 15.7829 89.7841 16.3542C91.9436 16.9242 93.8177 17.8069 95.407 19.0023C96.9961 20.1839 98.2454 21.6909 99.1552 23.5244C100.065 25.3441 100.52 27.5105 100.52 30.0238Z" fill="#384054"/>
<path d="M113.504 29.1877L134.325 16.0074H137.87L117.355 29.4323L139.132 43.9985H134.793L113.504 29.7375V43.9985H110.917V16.0074H113.504V29.1877Z" fill="#384054"/>
<path d="M159.776 18.4727L151.505 34.281H168.027L159.776 18.4727ZM173.119 43.9985L169.269 36.624H150.263L146.412 43.9985H143.621L158.268 16.0074H161.263L175.911 43.9985H173.119Z" fill="#384054"/>
<path d="M207.678 24.054C207.678 22.8586 207.467 21.8952 207.046 21.1612C206.625 20.4147 205.939 19.8371 204.988 19.4298C204.038 19.0225 202.789 18.7514 201.24 18.6152C199.706 18.4651 197.818 18.3907 195.577 18.3907H186.898V29.6366H195.495C197.736 29.6366 199.631 29.5748 201.178 29.4525C202.727 29.3176 203.983 29.0515 204.948 28.6581C205.912 28.2508 206.605 27.6871 207.026 26.967C207.46 26.2343 207.678 25.2634 207.678 24.054ZM186.898 32.02V43.9985H184.351V16.0074H198.286C200.418 16.0074 202.245 16.1776 203.766 16.5168C205.287 16.8422 206.53 17.3453 207.494 18.0238C208.472 18.6896 209.185 19.5257 209.634 20.5294C210.081 21.5345 210.306 22.7098 210.306 24.054C210.306 26.1461 209.756 27.8233 208.655 29.0868C207.555 30.3352 205.782 31.1915 203.339 31.653L212.892 43.9985H209.694L200.669 31.938C200.289 31.9658 199.902 31.9859 199.509 31.9998C199.114 32.0124 198.707 32.02 198.286 32.02H186.898Z" fill="#384054"/>
<path d="M230.409 3.12972V43.9985H227.631V3.12972L122.204 2.87751V0.554676L240.268 0.302471V3.12972H230.409Z" fill="#384054"/>
<path d="M123.509 60H0.549534V59.4502L121.446 59.8285V59.4502H122.959V57.0668H121.446V56.6885L3.22203 57.0668L3.09593 16.0076H0.549534V59.4502V60H0V15.4578H3.64532V56.5183H123.509V60Z" fill="#384054"/>
<path d="M121.446 59.8286L0.549545 59.4503H121.446V59.8286ZM0.549545 59.4503V16.0077H3.09594L3.22204 57.067L121.446 56.6886V57.067H3.09594V16.0077H0.549545V59.4503Z" fill="#384054"/>
<path d="M122.959 59.4502H121.446V58.9016H122.41V57.6166H121.446V57.0668H122.959V59.4502Z" fill="white"/>
<path d="M121.446 59.4502H0.549545H1.09888H0.549545V16.0076H3.09594V57.0668H121.446V57.6166H2.54661V16.5574H1.09888V58.9016H121.446V59.4502Z" fill="#384054"/>
<path d="M38.8092 45.0981H38.807C36.2529 45.0981 33.8626 44.8081 31.6392 44.2242C29.4083 43.6391 27.4535 42.735 25.7893 41.5067L25.7878 41.5055H25.7868C24.1166 40.2608 22.8005 38.6807 21.8551 36.7879L21.8554 36.7892L21.8544 36.7867C20.8994 34.8623 20.4319 32.6013 20.4321 30.0238C20.4321 28.3062 20.6485 26.7363 21.0883 25.3176L21.0879 25.3188C21.5242 23.8977 22.1403 22.6202 22.9372 21.4954L22.9353 21.4979C23.7297 20.363 24.6903 19.3819 25.8105 18.5597L25.8114 18.5585L25.8131 18.5572C26.939 17.7413 28.1831 17.0667 29.5411 16.5345L29.5382 16.5358C30.9091 15.991 32.3747 15.5925 33.9324 15.3428L33.9276 15.3441C35.4815 15.0805 37.1081 14.9481 38.807 14.9481C41.3474 14.9481 43.7246 15.2382 45.9346 15.822C48.1533 16.4084 50.0961 17.3214 51.7473 18.5635L51.7446 18.561C53.4034 19.793 54.7127 21.3743 55.6576 23.281L55.6567 23.2785C56.6125 25.1902 57.0801 27.4449 57.0799 30.0238C57.0801 32.6013 56.6122 34.8623 55.6576 36.7867L55.6567 36.7879C54.7118 38.6795 53.4037 40.2583 51.747 41.5042L51.7446 41.5055C50.0939 42.7337 48.1523 43.6379 45.9346 44.2242C43.7254 44.8068 41.3489 45.0981 38.8092 45.0981ZM21.6132 25.4803C21.192 26.8384 20.9815 28.3529 20.9815 30.0238C20.9815 32.5357 21.4366 34.7085 22.3464 36.542C23.2564 38.3617 24.5128 39.8699 26.1153 41.0641C27.7178 42.2469 29.6056 43.1221 31.7786 43.6933C33.9517 44.2633 36.2943 44.5483 38.807 44.5483C41.3058 44.5483 43.6351 44.2633 45.7943 43.6933C45.8449 43.6795 45.8953 43.6656 45.9457 43.6517C48.0415 43.0818 49.8653 42.2192 51.4169 41.0641C51.4789 41.0174 51.5405 40.9708 51.6015 40.9229C53.1031 39.7514 54.2912 38.2911 55.1654 36.542C56.0469 34.7665 56.5015 32.6719 56.529 30.257C56.5299 30.1801 56.5304 30.1019 56.5304 30.0238C56.5304 27.5105 56.0753 25.3441 55.1654 23.5244C54.2556 21.6908 53.0061 20.1839 51.4169 19.0023C49.828 17.8069 47.9538 16.9241 45.7943 16.3542C45.3856 16.2457 44.971 16.1486 44.5502 16.0604C42.7472 15.6858 40.8329 15.4979 38.807 15.4979C37.1363 15.4979 35.5406 15.6266 34.0194 15.8851C32.4984 16.1297 31.0724 16.5168 29.7413 17.0465C28.4241 17.5622 27.2221 18.2142 26.1356 19.0023C25.0626 19.7905 24.1459 20.7274 23.3854 21.8132C22.6486 22.8523 22.0713 24.0326 21.653 25.3516C21.6396 25.3945 21.6263 25.4374 21.6132 25.4803Z" fill="#384054"/>
<path d="M38.8069 44.5483C41.3057 44.5483 43.6349 44.2633 45.7943 43.6933C43.635 44.2633 41.3058 44.5483 38.8069 44.5483ZM45.9456 43.6518C48.0415 43.0818 49.865 42.2192 51.4169 41.0641C49.8653 42.2192 48.0415 43.0818 45.9456 43.6518ZM51.6015 40.9229C53.1031 39.7514 54.2909 38.2911 55.1653 36.542C56.0466 34.7665 56.5015 32.6719 56.529 30.257C56.5015 32.6719 56.0469 34.7665 55.1654 36.542C54.2911 38.2911 53.1031 39.7514 51.6015 40.9229ZM56.5303 30.0238C56.5303 27.5105 56.0751 25.3441 55.1653 23.5244C54.2553 21.6909 53.006 20.1839 51.4169 19.0023C49.8278 17.8069 47.9538 16.9242 45.7943 16.3542C45.3857 16.2457 44.9708 16.1486 44.5502 16.0604C44.971 16.1486 45.3856 16.2457 45.7943 16.3542C47.9538 16.9242 49.828 17.8069 51.4169 19.0023C53.006 20.1839 54.2556 21.6909 55.1654 23.5244C56.0752 25.3441 56.5303 27.5105 56.5303 30.0238Z" fill="#384054"/>
<path d="M38.807 42.2871C36.3216 42.2871 34.128 42.0223 32.2268 41.4927C32.0179 41.4321 31.8129 41.3691 31.6115 41.3035C31.0067 41.1043 30.4357 40.8798 29.8984 40.6263C28.9975 40.2039 28.1915 39.7045 27.4802 39.1295C26.2037 38.0828 25.2393 36.8004 24.5874 35.2783C23.9355 33.7575 23.6096 32.0059 23.6096 30.0236C23.6096 28.1282 23.9154 26.4372 24.5271 24.9517C24.5469 24.9038 24.567 24.8559 24.5874 24.8079C24.6027 24.7714 24.6181 24.7361 24.6337 24.7008C25.2846 23.2127 26.2336 21.9656 27.4802 20.958C27.6738 20.7991 27.8744 20.6465 28.0821 20.499C28.0928 20.4914 28.1034 20.4839 28.114 20.4763C29.269 19.6655 30.6399 19.0311 32.2266 18.5746C34.128 18.0311 36.3216 17.76 38.807 17.76C41.2923 17.76 43.4718 18.0311 45.3462 18.5746C47.2341 19.1043 48.8092 19.8912 50.0724 20.9378C51.3354 21.9694 52.286 23.2455 52.9245 24.7676C53.5764 26.2884 53.9023 28.04 53.9023 30.0236C53.9023 32.0059 53.5764 33.7575 52.9245 35.2783C52.286 36.8004 51.3354 38.0828 50.0724 39.1295C49.758 39.3867 49.4242 39.6276 49.0713 39.8546C49.0696 39.8558 49.0681 39.8558 49.0666 39.8571C49.0643 39.8596 49.0619 39.8609 49.0597 39.8622C47.9967 40.5419 46.759 41.0853 45.3462 41.4927C45.1603 41.5444 44.9715 41.5948 44.7796 41.6415C43.0366 42.0715 41.0458 42.2871 38.807 42.2871ZM32.3742 40.963C34.2158 41.4763 36.3605 41.7373 38.807 41.7373C38.8078 41.7373 38.8085 41.7373 38.8093 41.7373C41.2546 41.7373 43.3845 41.4763 45.1969 40.963L45.1943 40.9643C47.025 40.4372 48.5294 39.6806 49.7248 38.7033L49.7221 38.7058C50.9188 37.7146 51.8113 36.5091 52.4179 35.0664L52.4188 35.0639L52.4194 35.0626C53.0371 33.6213 53.3527 31.9466 53.3528 30.0236C53.3527 28.0992 53.0371 26.4246 52.4194 24.9832L52.4187 24.982L52.4179 24.9794C51.8116 23.5368 50.9199 22.3401 49.7248 21.3628L49.723 21.3615L49.7221 21.3603C48.5279 20.3716 47.0264 19.6163 45.1979 19.103H45.1957L45.1933 19.1018C43.3816 18.5759 41.2525 18.3086 38.807 18.3086C38.8061 18.3086 38.8056 18.3086 38.8047 18.3086C36.3604 18.3086 34.2173 18.5772 32.3777 19.103L32.3788 19.1018C30.5487 19.6289 29.038 20.3918 27.8284 21.383H27.8281L27.8256 21.3855C26.6176 22.3628 25.7126 23.5658 25.0931 25.0223H25.0932L25.0923 25.0248C24.4744 26.4662 24.1592 28.1282 24.1591 30.0236C24.1592 31.9466 24.4748 33.6213 25.0923 35.0626C25.7118 36.5053 26.6178 37.7108 27.8284 38.7045L27.8256 38.702C29.0356 39.6806 30.5476 40.4372 32.3786 40.9643L32.3742 40.963Z" fill="#384054"/>
<path d="M38.8069 42.2871C36.3215 42.2871 34.128 42.0223 32.2266 41.4927C32.0177 41.4321 31.8127 41.3691 31.6114 41.3035C31.8128 41.3691 32.0179 41.4321 32.2267 41.4927C34.128 42.0223 36.3215 42.2871 38.8069 42.2871C41.0457 42.2871 43.0365 42.0715 44.7795 41.6415C43.0365 42.0715 41.0457 42.2871 38.8069 42.2871ZM29.8983 40.6263C28.9974 40.2039 28.1914 39.7045 27.4802 39.1295C26.2034 38.0828 25.2392 36.8004 24.5874 35.2783C23.9354 33.7575 23.6094 32.0059 23.6094 30.0236C23.6094 28.1282 23.9154 26.4372 24.5271 24.9517C23.9154 26.4372 23.6096 28.1282 23.6096 30.0236C23.6096 32.0059 23.9354 33.7575 24.5874 35.2783C25.2392 36.8004 26.2036 38.0828 27.4802 39.1295C28.1914 39.7045 28.9974 40.2039 29.8983 40.6263ZM49.0596 39.8622C49.0619 39.8609 49.0643 39.8596 49.0665 39.8571C49.0643 39.8596 49.0619 39.8609 49.0596 39.8622ZM49.0712 39.8546C49.4242 39.6276 49.758 39.3867 50.0723 39.1295C49.758 39.3867 49.4243 39.6276 49.0712 39.8546ZM52.9244 35.2783C53.5764 33.7575 53.9022 32.0059 53.9022 30.0236C53.9022 32.0059 53.5764 33.7575 52.9244 35.2783ZM24.6336 24.7008C25.2846 23.2127 26.2333 21.9656 27.4802 20.958C26.2335 21.9656 25.2846 23.2127 24.6336 24.7008ZM28.0821 20.499C28.0928 20.4914 28.1034 20.4839 28.114 20.4763C28.1034 20.4839 28.0928 20.4914 28.0821 20.499Z" fill="#384054"/>
<path d="M38.807 44.5483C36.2944 44.5483 33.9517 44.2633 31.7786 43.6933C29.6056 43.1221 27.7178 42.2469 26.1153 41.0641C24.5128 39.8699 23.2564 38.3617 22.3464 36.542C21.4366 34.7085 20.9815 32.5357 20.9815 30.0238C20.9815 28.3529 21.192 26.8384 21.6132 25.4803C21.1922 26.8384 20.9816 28.3529 20.9816 30.0238C20.9816 32.5357 21.4366 34.7085 22.3466 36.542C23.2564 38.3617 24.5128 39.8699 26.1153 41.0641C27.7178 42.2469 29.6057 43.1221 31.7786 43.6933C33.9517 44.2633 36.2944 44.5483 38.807 44.5483ZM21.653 25.3516C22.0713 24.0326 22.6486 22.8523 23.3854 21.8132C24.1459 20.7274 25.0626 19.7905 26.1356 19.0023C27.2221 18.2142 28.4241 17.5622 29.7413 17.0465C31.0724 16.5168 32.4984 16.1297 34.0194 15.8851C35.5406 15.6266 37.1363 15.4979 38.807 15.4979C40.8329 15.4979 42.7472 15.6858 44.5502 16.0604C42.7474 15.6858 40.8328 15.4979 38.807 15.4979C37.1366 15.4979 35.5406 15.6266 34.0196 15.8851C32.4984 16.1297 31.0724 16.5168 29.7415 17.0465C28.4242 17.5622 27.2221 18.2142 26.1357 19.0023C25.0627 19.7905 24.1459 20.7274 23.3855 21.8132C22.6487 22.8523 22.0713 24.0326 21.653 25.3516Z" fill="white"/>
<path d="M38.8069 44.5483C36.2943 44.5483 33.9517 44.2633 31.7786 43.6933C29.6057 43.1221 27.7178 42.2469 26.1153 41.0641C24.5127 39.8699 23.2564 38.3617 22.3465 36.542C21.4366 34.7085 20.9816 32.5357 20.9816 30.0238C20.9816 28.3529 21.1922 26.8384 21.6131 25.4803C21.6262 25.4374 21.6396 25.3945 21.653 25.3516C22.0713 24.0326 22.6487 22.8523 23.3855 21.8132C24.1459 20.7274 25.0627 19.7905 26.1357 19.0023C27.2221 18.2142 28.4242 17.5622 29.7415 17.0465C31.0724 16.5168 32.4984 16.1297 34.0195 15.8851C35.5406 15.6266 37.1366 15.4979 38.8069 15.4979C40.8328 15.4979 42.7474 15.6858 44.5502 16.0604C44.9708 16.1486 45.3857 16.2457 45.7943 16.3542C47.9538 16.9242 49.8278 17.8069 51.4169 19.0023C53.006 20.1839 54.2553 21.6909 55.1653 23.5244C56.0751 25.3441 56.5304 27.5105 56.5304 30.0238C56.5304 30.1019 56.5299 30.1801 56.529 30.257C56.5015 32.6719 56.0466 34.7665 55.1653 36.542C54.2909 38.2911 53.1031 39.7514 51.6015 40.9229C51.5404 40.9708 51.4789 41.0174 51.4169 41.0641C49.865 42.2192 48.0415 43.0818 45.9456 43.6518C45.8953 43.6656 45.8449 43.6795 45.7943 43.6933C43.6349 44.2633 41.3057 44.5483 38.8069 44.5483ZM26.4414 40.6227C27.9822 41.7589 29.8029 42.6063 31.918 43.1612C34.0407 43.7186 36.3359 43.9985 38.8069 43.9985C41.264 43.9985 43.5454 43.7186 45.6539 43.1612C47.7555 42.6063 49.562 41.7589 51.089 40.624L51.0866 40.6253C52.6085 39.4803 53.7991 38.0452 54.6739 36.2961L54.6732 36.2974C55.538 34.5546 55.9808 32.4702 55.9809 30.0238C55.9808 27.5761 55.538 25.4992 54.6739 23.7703L54.6732 23.769C53.7982 22.0074 52.6088 20.5736 51.089 19.4424H51.0881L51.0866 19.4412C49.5599 18.2936 47.7543 17.4399 45.6539 16.8851C43.5454 16.3277 41.264 16.0478 38.8069 16.0478C37.1648 16.0478 35.5997 16.1738 34.1115 16.4273H34.1091H34.1067C32.6221 16.6669 31.2357 17.0427 29.9445 17.5572H29.943L29.9419 17.5585C28.6652 18.0578 27.5054 18.6883 26.4581 19.4475L26.4609 19.445C25.4352 20.1978 24.5624 21.0906 23.8356 22.1284L23.8351 22.1297L23.8337 22.131C23.1095 23.1524 22.544 24.3201 22.1383 25.6417L22.1378 25.6429C21.7358 26.9405 21.531 28.3983 21.531 30.0238C21.5312 32.4702 21.9738 34.5546 22.8387 36.2974L22.8378 36.2961C23.7124 38.0439 24.9088 39.479 26.4438 40.624L26.4414 40.6227Z" fill="#384054"/>
<path d="M44.7795 41.6416C44.9715 41.5949 45.1602 41.5445 45.3461 41.4928C46.759 41.0855 47.9967 40.542 49.0596 39.8623C47.9968 40.542 46.7591 41.0855 45.3462 41.4928C45.1604 41.5445 44.9715 41.5949 44.7795 41.6416ZM31.6115 41.3036C31.0067 41.1044 30.4355 40.8787 29.8983 40.6265C30.4357 40.8799 31.0067 41.1044 31.6115 41.3036ZM49.0665 39.8572C49.0681 39.856 49.0696 39.856 49.0712 39.8547C49.0696 39.856 49.0681 39.856 49.0665 39.8572ZM50.0723 39.1296C51.3354 38.083 52.286 36.8005 52.9244 35.2784C52.2861 36.8005 51.3356 38.083 50.0723 39.1296ZM53.9022 30.0237C53.9022 28.0401 53.5764 26.2885 52.9244 24.7677C52.286 23.2457 51.3354 21.9695 50.0723 20.938C48.8092 19.8913 47.234 19.1044 45.3461 18.5748C43.4717 18.0313 41.2923 17.7602 38.8069 17.7602C36.3215 17.7602 34.128 18.0313 32.2266 18.5748C30.6398 19.0313 29.269 19.6656 28.114 20.4764C29.269 19.6656 30.6398 19.0313 32.2267 18.5735C34.128 18.0313 36.3215 17.7602 38.8069 17.7602C41.2923 17.7602 43.472 18.0313 45.3462 18.5735C47.234 19.1044 48.8093 19.8913 50.0723 20.938C51.3356 21.9695 52.2861 23.2457 52.9244 24.7677C53.5764 26.2885 53.9022 28.0401 53.9022 30.0237ZM27.4802 20.9581C27.6738 20.7992 27.8744 20.6467 28.0821 20.4991C27.8744 20.6467 27.6738 20.7992 27.4802 20.9581Z" fill="white"/>
<path d="M38.8069 42.8359C36.2827 42.8359 34.0403 42.5686 32.0793 42.0226L32.0773 42.0213L32.0747 42.0201C30.1301 41.4614 28.4781 40.643 27.1348 39.5573L27.1338 39.556L27.132 39.5547C25.7893 38.4551 24.7667 37.0945 24.0823 35.4955C23.3962 33.8952 23.0599 32.0655 23.06 30.0238C23.0599 28.0075 23.3966 26.1916 24.0823 24.5913L24.0816 24.5938C24.7655 22.981 25.7885 21.6191 27.1329 20.5321C28.4764 19.4312 30.1293 18.6065 32.0747 18.0466H32.0722H32.0758C34.0382 17.4854 36.2818 17.2105 38.8069 17.2105C41.3321 17.2105 43.5622 17.4854 45.4991 18.0466L45.4946 18.0453C47.4418 18.5913 49.0907 19.411 50.4226 20.5144L50.42 20.5119C51.751 21.5989 52.7606 22.9558 53.4311 24.5548L53.4294 24.551C54.1157 26.1525 54.4516 27.981 54.4516 30.0238C54.4516 32.0655 54.1157 33.894 53.4294 35.4955L53.4311 35.4917C52.7607 37.0907 51.7523 38.4526 50.4229 39.5522L50.4216 39.5535L50.42 39.5547C49.0892 40.6418 47.4429 41.4614 45.4981 42.0201H45.4986L45.4957 42.0213C43.5598 42.5686 41.3311 42.8359 38.8069 42.8359ZM31.6114 41.3038C31.8127 41.3694 32.0177 41.4324 32.2266 41.4929C34.128 42.0226 36.3215 42.2874 38.8069 42.2874C41.0457 42.2874 43.0365 42.0718 44.7795 41.6417C44.9714 41.5951 45.1603 41.5446 45.3462 41.4929C46.7591 41.0856 47.9968 40.5421 49.0596 39.8624C49.0619 39.8612 49.0643 39.8599 49.0665 39.8574C49.068 39.8561 49.0696 39.8561 49.0712 39.8549C49.4243 39.6279 49.7579 39.387 50.0723 39.1298C51.3356 38.0831 52.2861 36.8007 52.9244 35.2786C53.5764 33.7578 53.9022 32.0062 53.9022 30.0238C53.9022 28.0402 53.5764 26.2887 52.9244 24.7679C52.2861 23.2458 51.3356 21.9696 50.0723 20.9381C48.8093 19.8915 47.234 19.1046 45.3462 18.5737C43.472 18.0314 41.2923 17.7603 38.8069 17.7603C36.3215 17.7603 34.128 18.0314 32.2267 18.5737C30.6398 19.0314 29.2689 19.6657 28.114 20.4766C28.1034 20.4841 28.0928 20.4917 28.0821 20.4993C27.8744 20.6468 27.6737 20.7994 27.4802 20.9583C26.2333 21.9658 25.2846 23.213 24.6336 24.701C24.618 24.7363 24.6026 24.7717 24.5874 24.8082C24.5669 24.8561 24.5469 24.9041 24.5271 24.952C23.9154 26.4375 23.6094 28.1285 23.6094 30.0238C23.6094 32.0062 23.9354 33.7578 24.5874 35.2786C25.2392 36.8007 26.2034 38.0831 27.4802 39.1298C28.1914 39.7048 28.9974 40.2042 29.8983 40.6266C30.4355 40.8788 31.0066 41.1045 31.6114 41.3038Z" fill="#384054"/>
<path d="M82.7991 45.0981H82.7968C80.2429 45.0981 77.8526 44.8081 75.6293 44.2242C73.3985 43.6391 71.4435 42.735 69.7791 41.5067L69.7777 41.5055H69.7767C68.1066 40.2608 66.7906 38.6807 65.8452 36.7879H65.845L65.8445 36.7867C64.8894 34.8623 64.422 32.6013 64.4222 30.0238C64.4222 28.3062 64.6383 26.7363 65.0783 25.3176L65.0778 25.3188C65.514 23.8977 66.1304 22.619 66.9274 21.4954L66.9255 21.4979C67.7196 20.363 68.6803 19.3819 69.8008 18.5597L69.8014 18.5585L69.8033 18.5572C70.929 17.7413 72.1731 17.0667 73.531 16.5345L73.5283 16.5358C74.8991 15.991 76.3646 15.5925 77.9223 15.3428L77.9177 15.3441C79.4714 15.0805 81.0982 14.9481 82.7968 14.9481C85.3376 14.9481 87.7147 15.2382 89.9247 15.822C92.1432 16.4084 94.086 17.3214 95.7373 18.5635L95.7349 18.561C97.3933 19.793 98.7026 21.3743 99.6475 23.281L99.6466 23.2785C100.603 25.1902 101.07 27.4449 101.07 30.0238C101.07 32.6013 100.603 34.8623 99.6475 36.7867L99.6468 36.7879C98.702 38.6795 97.3937 40.2583 95.7374 41.5042H95.7369L95.7349 41.5055C94.0838 42.7337 92.1422 43.6379 89.9245 44.2242C87.7153 44.8068 85.3391 45.0981 82.7991 45.0981ZM64.9715 30.0238C64.9715 32.5357 65.4265 34.7085 66.3365 36.542C67.2465 38.3617 68.5027 39.8699 70.1051 41.0641C71.7077 42.2469 73.5956 43.1221 75.7686 43.6933C77.9416 44.2633 80.2842 44.5483 82.7968 44.5483C85.2957 44.5483 87.625 44.2633 89.7842 43.6933C89.8348 43.6795 89.8852 43.6656 89.9355 43.6517C92.0314 43.0818 93.8552 42.2192 95.4072 41.0641C96.9962 39.8699 98.2455 38.3617 99.1553 36.542C100.066 34.7085 100.52 32.5357 100.52 30.0238C100.52 27.5105 100.066 25.3441 99.1553 23.5244C98.2455 21.6908 96.9962 20.1839 95.4072 19.0023C93.8179 17.8069 91.9437 16.9241 89.7842 16.3542C89.6999 16.3315 89.6152 16.31 89.5304 16.2886C87.4427 15.7615 85.1981 15.4979 82.7968 15.4979C81.1265 15.4979 79.5305 15.6266 78.0095 15.8851C76.4884 16.1297 75.0623 16.5168 73.7314 17.0465C73.5771 17.107 73.4242 17.1688 73.273 17.2331C72.1341 17.7174 71.0849 18.3062 70.1256 19.0023C69.0527 19.7905 68.1358 20.7274 67.3757 21.8132C67.3637 21.8296 67.352 21.8472 67.3401 21.8636C66.5965 22.9241 66.0173 24.1297 65.6032 25.4803C65.1885 26.817 64.9782 28.305 64.9716 29.9443C64.9716 29.9708 64.9715 29.9973 64.9715 30.0238Z" fill="#384054"/>
<path d="M89.9355 43.6519C92.0313 43.0819 93.8549 42.2193 95.4071 41.0642C93.8552 42.2193 92.0313 43.0819 89.9355 43.6519ZM95.4071 41.0642C96.9959 39.87 98.2455 38.3618 99.1552 36.5421C100.065 34.7086 100.52 32.5358 100.52 30.0239C100.52 27.5106 100.065 25.3442 99.1552 23.5245C98.2455 21.691 96.9959 20.184 95.4071 19.0024C93.8177 17.807 91.9437 16.9243 89.7842 16.3543C89.6998 16.3316 89.6152 16.3101 89.5303 16.2887C89.6152 16.3101 89.6998 16.3316 89.7842 16.3543C91.9437 16.9243 93.8178 17.807 95.4071 19.0024C96.9961 20.184 98.2455 21.691 99.1553 23.5245C100.066 25.3442 100.52 27.5106 100.52 30.0239C100.52 32.5358 100.066 34.7086 99.1553 36.5421C98.2455 38.3618 96.9961 39.87 95.4071 41.0642Z" fill="#384054"/>
<path d="M82.7968 42.2871C80.3115 42.2871 78.1183 42.0223 76.2166 41.4927C75.4756 41.2795 74.7816 41.0286 74.1347 40.7398C73.1339 40.2934 72.2456 39.7562 71.4702 39.1295C70.1937 38.0828 69.2294 36.8004 68.5774 35.2783C67.9255 33.7575 67.5995 32.0059 67.5995 30.0236C67.5995 28.098 67.9154 26.383 68.547 24.8798C68.5571 24.8559 68.5672 24.8319 68.5774 24.8079C68.5927 24.7714 68.6082 24.7361 68.6238 24.7008C69.2746 23.2127 70.2236 21.9656 71.4702 20.958C72.1983 20.3615 73.0258 19.847 73.9527 19.4132C74.6509 19.0879 75.4057 18.8079 76.2166 18.5746C78.0586 18.0475 80.1745 17.7764 82.5643 17.76C82.603 17.76 82.6417 17.76 82.6806 17.76C82.7193 17.76 82.758 17.76 82.7968 17.76C85.2822 17.76 87.462 18.0311 89.3362 18.5746C91.2239 19.1043 92.7995 19.8912 94.0623 20.9378C95.3256 21.9694 96.2761 23.2455 96.9143 24.7676C97.5663 26.2884 97.8924 28.04 97.8924 30.0236C97.8924 30.8041 97.8417 31.5494 97.7406 32.2594C97.5848 33.3502 97.3094 34.3565 96.9143 35.2783C96.2761 36.8004 95.3256 38.0828 94.0623 39.1295C92.7995 40.161 91.2239 40.9492 89.3362 41.4927C87.5077 42.0097 85.388 42.2732 82.9774 42.2859C82.9174 42.2871 82.8572 42.2871 82.7968 42.2871ZM76.364 40.963C78.2059 41.4763 80.3504 41.7373 82.7968 41.7373C82.7977 41.7373 82.7983 41.7373 82.7992 41.7373C85.2442 41.7373 87.3739 41.4763 89.1857 40.9643C91.0159 40.4372 92.5199 39.6806 93.7147 38.7033L93.7119 38.7058C94.9088 37.7146 95.8016 36.5091 96.4078 35.0664L96.4087 35.0639L96.4095 35.0626C97.0271 33.6213 97.343 31.9466 97.3431 30.0236C97.343 28.1005 97.0271 26.4246 96.4095 24.9832L96.4089 24.982L96.4078 24.9794C95.8017 23.5368 94.91 22.3401 93.7147 21.3628L93.7137 21.3615L93.7119 21.3603C92.5181 20.3716 91.0162 19.6163 89.1877 19.103L89.1848 19.1018H89.1832C87.3718 18.5759 85.2423 18.3086 82.7968 18.3086C82.7959 18.3086 82.7954 18.3086 82.7945 18.3086C80.3503 18.3086 78.2075 18.5772 76.3677 19.103L76.3687 19.1018C74.5389 19.6289 73.0279 20.3918 71.8184 21.383L71.8158 21.3855C70.6077 22.3628 69.7028 23.5658 69.0831 25.0223L69.0825 25.0248C68.4646 26.4662 68.149 28.1282 68.1489 30.0236C68.149 31.9466 68.4648 33.6213 69.0825 35.0626C69.7019 36.5053 70.6078 37.7108 71.8184 38.7045L71.8158 38.702C73.0255 39.6806 74.5378 40.4372 76.3687 40.9643L76.364 40.963Z" fill="#384054"/>
<path d="M82.7968 42.2871C80.3114 42.2871 78.1181 42.0223 76.2166 41.4927C78.1182 42.0223 80.3114 42.2871 82.7968 42.2871ZM82.9774 42.2859C85.388 42.2732 87.5076 42.0097 89.3361 41.4927C87.5075 42.0097 85.3878 42.2732 82.9774 42.2859ZM74.1346 40.7398C73.1336 40.2934 72.2455 39.7562 71.4701 39.1295C70.1935 38.0828 69.2293 36.8004 68.5774 35.2783C67.9254 33.7575 67.5993 32.0059 67.5993 30.0236C67.5993 28.098 67.9154 26.383 68.547 24.8798C67.9154 26.383 67.5995 28.098 67.5995 30.0236C67.5995 32.0059 67.9254 33.7575 68.5774 35.2783C69.2293 36.8004 70.1937 38.0828 71.4702 39.1295C72.2456 39.7562 73.1339 40.2934 74.1346 40.7398ZM97.7405 32.2594C97.8417 31.5494 97.8924 30.8041 97.8924 30.0236C97.8924 30.8041 97.8418 31.5494 97.7405 32.2594ZM68.6238 24.7008C69.2746 23.2127 70.2234 21.9656 71.4701 20.958C72.1982 20.3615 73.0257 19.847 73.9527 19.4132C73.0258 19.847 72.1983 20.3615 71.4702 20.958C70.2235 21.9656 69.2746 23.2127 68.6238 24.7008ZM82.5643 17.76C82.603 17.76 82.6417 17.76 82.6805 17.76C82.6417 17.76 82.603 17.76 82.5643 17.76Z" fill="#384054"/>
<path d="M82.7969 44.5483C80.2842 44.5483 77.9416 44.2633 75.7686 43.6933C73.5956 43.1221 71.7077 42.2469 70.1051 41.0641C68.5027 39.8699 67.2466 38.3617 66.3365 36.542C65.4265 34.7085 64.9715 32.5357 64.9715 30.0238C64.9715 32.5357 65.4265 34.7085 66.3367 36.542C67.2466 38.3617 68.5028 39.8699 70.1052 41.0641C71.708 42.2469 73.5956 43.1221 75.7687 43.6933C77.9416 44.2633 80.2845 44.5483 82.7969 44.5483C85.2957 44.5483 87.625 44.2633 89.7842 43.6933C89.8348 43.6795 89.8852 43.6656 89.9356 43.6518C89.8852 43.6656 89.8348 43.6795 89.7842 43.6933C87.625 44.2633 85.2957 44.5483 82.7969 44.5483ZM64.9717 29.9443C64.9782 28.305 65.1885 26.817 65.6032 25.4803C65.1887 26.817 64.9782 28.305 64.9717 29.9443ZM65.6032 25.4803C66.0173 24.1297 66.5965 22.9242 67.3401 21.8636C66.5965 22.9242 66.0176 24.1297 65.6032 25.4803ZM67.3757 21.8132C68.1358 20.7274 69.0527 19.7905 70.1256 19.0023C71.0849 18.3062 72.1341 17.7174 73.273 17.2331C72.1341 17.7174 71.0849 18.3062 70.1259 19.0023C69.0527 19.7905 68.1361 20.7274 67.3757 21.8132ZM89.5304 16.2886C87.4427 15.7615 85.1981 15.4979 82.7969 15.4979C81.1265 15.4979 79.5306 15.6266 78.0095 15.8851C79.5305 15.6266 81.1265 15.4979 82.7969 15.4979C85.1981 15.4979 87.4427 15.7615 89.5304 16.2886Z" fill="white"/>
<path d="M82.7969 44.5483C80.2845 44.5483 77.9416 44.2633 75.7687 43.6933C73.5956 43.1221 71.708 42.2469 70.1052 41.0641C68.5028 39.8699 67.2466 38.3617 66.3367 36.542C65.4265 34.7085 64.9715 32.5357 64.9715 30.0238C64.9715 29.9973 64.9717 29.9708 64.9717 29.9443C64.9782 28.305 65.1887 26.817 65.6032 25.4803C66.0176 24.1297 66.5965 22.9242 67.3401 21.8636C67.352 21.8472 67.3637 21.8296 67.3757 21.8132C68.1361 20.7274 69.0527 19.7905 70.1259 19.0023C71.0849 18.3062 72.1341 17.7174 73.273 17.2331C73.4242 17.1688 73.5771 17.107 73.7314 17.0465C75.0623 16.5168 76.4884 16.1297 78.0095 15.8851C79.5306 15.6266 81.1265 15.4979 82.7969 15.4979C85.1981 15.4979 87.4427 15.7615 89.5304 16.2886C89.6153 16.31 89.6999 16.3315 89.7842 16.3542C91.9438 16.9242 93.8178 17.8069 95.4072 19.0023C96.996 20.1839 98.2455 21.6909 99.1552 23.5244C100.065 25.3441 100.52 27.5105 100.52 30.0238C100.52 32.5357 100.065 34.7085 99.1552 36.542C98.2455 38.3617 96.996 39.8699 95.4072 41.0641C93.855 42.2192 92.0314 43.0818 89.9356 43.6518C89.8852 43.6656 89.8348 43.6795 89.7842 43.6933C87.625 44.2633 85.2957 44.5483 82.7969 44.5483ZM70.4312 40.6227C71.9723 41.7589 73.793 42.6063 75.9082 43.1612C78.0308 43.7186 80.326 43.9985 82.7969 43.9985C85.254 43.9985 87.5353 43.7186 89.6441 43.1612C91.7454 42.6063 93.5519 41.7589 95.0793 40.624L95.0769 40.6253C96.5981 39.4803 97.7886 38.0452 98.6634 36.2974C99.5285 34.5546 99.9707 32.4702 99.971 30.0238C99.9707 27.5761 99.5284 25.4992 98.6639 23.7703L98.6632 23.769C97.7884 22.0074 96.5987 20.5736 95.0793 19.4424H95.0779L95.0769 19.4412C93.5499 18.2936 91.7444 17.4399 89.6439 16.8851C87.5354 16.3277 85.2541 16.0478 82.7969 16.0478C81.1547 16.0478 79.5897 16.1738 78.1014 16.4273H78.0999H78.0966C76.6122 16.6669 75.2256 17.0427 73.9344 17.5572H73.9332L73.9318 17.5585C72.6551 18.0578 71.4955 18.6883 70.4482 19.4475L70.451 19.445C69.4251 20.1978 68.5524 21.0906 67.8259 22.1284L67.8251 22.1297L67.8239 22.131C67.0996 23.1524 66.5339 24.3201 66.1284 25.6417L66.1294 25.6392L66.128 25.6429C65.7258 26.9405 65.5211 28.3983 65.5211 30.0238C65.5212 32.4702 65.9636 34.5546 66.8286 36.2974C67.7029 38.0439 68.8993 39.479 70.4337 40.624L70.4312 40.6227Z" fill="#384054"/>
<path d="M82.7968 42.2871C82.8572 42.2871 82.9174 42.2871 82.9774 42.2859C82.9174 42.2871 82.8572 42.2871 82.7968 42.2871ZM89.3362 41.4927C91.2239 40.9492 92.7995 40.161 94.0623 39.1295C95.3256 38.0828 96.2761 36.8004 96.9143 35.2783C97.3094 34.3565 97.5848 33.3502 97.7406 32.2594C97.5848 33.3502 97.3095 34.3565 96.9146 35.2783C96.2764 36.8004 95.3256 38.0828 94.0625 39.1295C92.7996 40.161 91.224 40.9492 89.3362 41.4927ZM76.2166 41.4927C75.4755 41.2795 74.7816 41.0286 74.1347 40.7398C74.7816 41.0286 75.4756 41.2795 76.2166 41.4927ZM97.8924 30.0236C97.8924 28.04 97.5663 26.2884 96.9143 24.7676C96.2761 23.2455 95.3256 21.9694 94.0623 20.9378C92.7995 19.8912 91.2239 19.1043 89.3362 18.5746C87.462 18.0311 85.2822 17.76 82.7968 17.76C82.758 17.76 82.7193 17.76 82.6806 17.76C82.7193 17.76 82.758 17.76 82.7968 17.76C85.2823 17.76 87.4621 18.0311 89.3362 18.5734C91.224 19.1043 92.7996 19.8912 94.0625 20.9378C95.3256 21.9694 96.2764 23.2455 96.9146 24.7676C97.5663 26.2884 97.8924 28.04 97.8924 30.0236ZM73.9527 19.4132C74.6509 19.0879 75.4057 18.8079 76.2166 18.5734C78.0587 18.0475 80.1745 17.7764 82.5643 17.76C80.1745 17.7764 78.0586 18.0475 76.2166 18.5746C75.4057 18.8079 74.6509 19.0879 73.9527 19.4132Z" fill="white"/>
<path d="M82.7968 42.8359C80.2727 42.8359 78.0306 42.5686 76.0692 42.0226L76.0664 42.0213L76.0647 42.0201C74.1204 41.4614 72.4681 40.643 71.1248 39.5573L71.1228 39.5547H71.1219C69.7794 38.4551 68.7569 37.0945 68.0724 35.4955C67.3862 33.8952 67.05 32.0655 67.05 30.0238C67.0498 28.0075 67.3866 26.1916 68.0724 24.5913L68.0717 24.5938C68.7556 22.981 69.7785 21.6191 71.1228 20.5321C72.4664 19.4312 74.1197 18.6065 76.0647 18.0466H76.0657C78.0282 17.4854 80.2717 17.2105 82.7968 17.2105C85.3222 17.2105 87.5524 17.4854 89.4892 18.0466L89.4846 18.0453C91.4317 18.5913 93.0809 19.411 94.4128 20.5144L94.41 20.5119C95.7411 21.5989 96.7509 22.9545 97.4211 24.5548L97.4194 24.551C98.1056 26.1525 98.4419 27.981 98.4418 30.0238C98.4419 32.0655 98.1056 33.8952 97.4194 35.4955L97.4211 35.4917C96.751 37.0907 95.7422 38.4526 94.4128 39.5522L94.41 39.5547C93.0793 40.6418 91.4331 41.4614 89.4882 42.0201H89.4885L89.4856 42.0213C87.5502 42.5686 85.321 42.8359 82.7968 42.8359ZM76.2166 41.4929C78.1181 42.0226 80.3114 42.2874 82.7968 42.2874C82.8572 42.2874 82.9174 42.2874 82.9774 42.2861C85.3879 42.2735 87.5075 42.01 89.3362 41.4929C91.224 40.9494 92.7996 40.1613 94.0625 39.1298C95.3256 38.0831 96.2764 36.8007 96.9146 35.2786C97.3095 34.3568 97.5848 33.3505 97.7406 32.2597C97.8418 31.5497 97.8924 30.8044 97.8924 30.0238C97.8924 28.0402 97.5663 26.2887 96.9146 24.7679C96.2764 23.2458 95.3256 21.9696 94.0625 20.9381C92.7996 19.8915 91.224 19.1046 89.3362 18.5737C87.4621 18.0314 85.2823 17.7603 82.7968 17.7603C82.758 17.7603 82.7193 17.7603 82.6805 17.7603C82.6417 17.7603 82.603 17.7603 82.5643 17.7603C80.1745 17.7767 78.0587 18.0478 76.2166 18.5737C75.4057 18.8082 74.6509 19.0882 73.9527 19.4135C73.0257 19.8473 72.1982 20.3618 71.4701 20.9583C70.2234 21.9658 69.2746 23.213 68.6238 24.701C68.6082 24.7363 68.5927 24.7717 68.5774 24.8082C68.5672 24.8322 68.5571 24.8561 68.547 24.8801C67.9154 26.3832 67.5994 28.0983 67.5994 30.0238C67.5994 32.0062 67.9255 33.7578 68.5774 35.2786C69.2294 36.8007 70.1936 38.0831 71.4701 39.1298C72.2455 39.7565 73.1336 40.2937 74.1347 40.7401C74.7816 41.0289 75.4755 41.2798 76.2166 41.4929Z" fill="#384054"/>
<path d="M140.941 44.5474H134.626L114.054 30.768V44.5474H110.368V15.4579H114.054V28.1905L134.164 15.4579H139.712L118.35 29.4377L140.941 44.5474ZM113.504 29.7378L134.792 43.9988H139.132L131.92 39.1754L117.355 29.4326L137.869 16.0077H134.325L113.504 29.188V16.0077H110.917V43.9988H113.504V29.7378Z" fill="#384054"/>
<path d="M139.132 43.999H134.792L113.504 29.738L134.792 43.999H139.132ZM113.504 43.999H110.917V16.0079H113.504H110.917V43.999H113.504ZM131.92 39.1756L117.355 29.4328L137.869 16.0079L117.355 29.4328L131.92 39.1756Z" fill="#384054"/>
<path d="M139.132 43.999H134.792L113.504 29.738V43.999H110.917V16.0079H113.504V29.1882L134.325 16.0079H137.869L117.355 29.4328L131.92 39.1756L139.132 43.999ZM114.089 29.4694L134.96 43.4492H137.322L116.359 29.4278L136.026 16.5577H134.483L114.089 29.4694ZM111.466 16.5577V43.4492H112.955V28.709V16.5577H111.466Z" fill="#384054"/>
<path d="M176.818 44.5474H173.119V43.9988H175.911L161.263 16.0077H158.268L143.621 43.9988H146.412L150.263 36.6243H169.269L171.799 41.4692L173.119 43.9988V44.5474H172.786L168.936 37.1741H150.596L146.745 44.5474H142.713L157.936 15.4579H161.596L176.818 44.5474Z" fill="#384054"/>
<path d="M175.911 43.999H173.119H173.12H175.911ZM173.119 43.999L171.799 41.4694L173.119 43.999H173.12H173.119ZM146.412 43.999H143.621H146.412Z" fill="#384054"/>
<path d="M168.027 34.2812H151.505L159.776 18.473L168.027 34.2812ZM159.775 19.6583L152.413 33.7314H167.12L159.775 19.6583Z" fill="#384054"/>
<path d="M168.027 34.2812L159.776 18.473L168.027 34.2812ZM151.505 34.2812L159.776 18.473L151.505 34.2812Z" fill="#384054"/>
<path d="M175.911 43.999L161.263 16.0079L175.911 43.999ZM146.412 43.999L150.263 36.6245H169.269L171.799 41.4694L169.269 36.6245H150.263L146.412 43.999ZM143.621 43.999L158.268 16.0079L143.621 43.999Z" fill="white"/>
<path d="M175.911 43.999H173.12L173.606 43.7443L173.12 43.999H173.119L171.799 41.4694L169.269 36.6245H150.263L146.412 43.999H143.621L158.268 16.0079H161.263L175.911 43.999ZM173.452 43.4492H175.003L160.93 16.5577H158.601L144.529 43.4492H146.079L149.93 36.0747H169.602L173.452 43.4492Z" fill="#384054"/>
<path d="M168.934 34.8311H150.597L159.289 18.2182L159.776 17.2863L168.934 34.8311ZM151.505 34.2812H168.027L159.776 18.4729L159.289 18.7264L159.776 18.4729L151.505 34.2812Z" fill="#384054"/>
<path d="M214.012 44.5474H209.419L200.408 32.507C200.118 32.5247 199.824 32.5385 199.526 32.5486H199.528C199.127 32.5625 198.713 32.5688 198.286 32.5688H187.447V44.5474H183.803V15.4579H198.286C200.448 15.4591 202.311 15.6294 203.886 15.9812L203.881 15.9799C205.452 16.3166 206.762 16.8399 207.804 17.5713C208.855 18.2851 209.645 19.2056 210.135 20.3065C210.62 21.3948 210.854 22.6495 210.854 24.0543C210.854 25.1476 210.71 26.1489 210.415 27.0518C210.119 27.9547 209.669 28.7592 209.07 29.4478H209.069L209.067 29.449C208.462 30.1375 207.68 30.7062 206.739 31.1602C206.022 31.507 205.211 31.787 204.307 32.0064L214.012 44.5474ZM205.832 38.8361L209.694 43.9988H212.892L203.338 31.6533C205.782 31.1918 207.555 30.3355 208.655 29.0871C209.756 27.8235 210.306 26.1464 210.306 24.0543C210.306 22.71 210.081 21.5348 209.634 20.5297C209.185 19.5259 208.472 18.6899 207.494 18.0241C206.53 17.3456 205.287 16.8425 203.766 16.5171C202.245 16.1779 200.418 16.0077 198.286 16.0077H184.351V43.9988H186.898V32.0203H198.286C198.707 32.0203 199.114 32.0127 199.509 32.0001C199.558 31.9976 199.607 31.9963 199.655 31.9938C199.999 31.9812 200.337 31.9623 200.669 31.9383L205.832 38.8361Z" fill="#384054"/>
<path d="M212.892 43.999H209.694L205.832 38.8364L209.694 43.999H212.892ZM186.898 43.999H184.351V16.0079H198.286C200.418 16.0079 202.245 16.1781 203.766 16.5173C205.287 16.8427 206.53 17.3458 207.494 18.0243C208.472 18.6901 209.185 19.5261 209.634 20.5299C210.081 21.535 210.306 22.7103 210.306 24.0545C210.306 22.7103 210.081 21.535 209.634 20.5299C209.185 19.5261 208.472 18.6901 207.494 18.0255C206.53 17.3458 205.287 16.8427 203.766 16.5173C202.245 16.1781 200.418 16.0079 198.286 16.0079H184.351V43.999H186.898ZM199.655 31.994C199.999 31.9814 200.337 31.9625 200.669 31.9385C200.337 31.9625 199.999 31.9814 199.655 31.994Z" fill="#384054"/>
<path d="M195.495 29.6367H186.898V18.3908H195.577C197.818 18.3908 199.705 18.4652 201.24 18.6153C202.789 18.7515 204.038 19.0226 204.988 19.4299C205.939 19.8372 206.625 20.4148 207.046 21.1613C207.467 21.8952 207.678 22.8587 207.678 24.0541C207.678 25.2634 207.46 26.2344 207.026 26.9671C206.605 27.6871 205.912 28.2508 204.948 28.6582C203.983 29.0516 202.727 29.3177 201.178 29.4526C199.63 29.5749 197.736 29.6367 195.495 29.6367ZM187.447 18.9406V29.0869H195.495C197.726 29.0869 199.608 29.0264 201.135 28.9053H201.13C202.64 28.7742 203.845 28.5144 204.733 28.1525C205.176 27.9658 205.544 27.7477 205.843 27.5043C206.143 27.2597 206.375 26.9911 206.552 26.6897L206.553 26.6872C206.736 26.3782 206.881 26.0075 206.978 25.5686C207.076 25.1311 207.128 24.6266 207.128 24.0541C207.128 23.4892 207.077 22.9873 206.983 22.5522C206.887 22.1159 206.747 21.7452 206.569 21.435L206.568 21.4324L206.567 21.4312C206.389 21.1159 206.158 20.8385 205.862 20.5888C205.565 20.3404 205.205 20.121 204.772 19.9356C203.901 19.5611 202.702 19.2937 201.192 19.1626H201.19L201.187 19.1613C199.678 19.015 197.805 18.9406 195.577 18.9406H187.447Z" fill="#384054"/>
<path d="M201.178 29.4526C202.727 29.3177 203.983 29.0516 204.948 28.6582C205.912 28.2509 206.605 27.6872 207.026 26.9671C207.46 26.2345 207.678 25.2635 207.678 24.0541C207.678 25.2635 207.461 26.2345 207.026 26.9671C206.605 27.6872 205.912 28.2509 204.948 28.6582C203.983 29.0516 202.727 29.3177 201.178 29.4526Z" fill="#384054"/>
<path d="M212.892 43.999L203.338 31.6535L212.892 43.999ZM186.898 43.999V32.0205H198.286C198.707 32.0205 199.114 32.0129 199.509 32.0003C199.558 31.9978 199.607 31.9965 199.655 31.994C199.607 31.9965 199.558 31.9978 199.509 32.0003C199.114 32.0129 198.707 32.0205 198.286 32.0205H186.898V43.999ZM186.898 32.0205V32.569V32.0205ZM205.832 38.8364L200.669 31.9385L205.832 38.8364Z" fill="white"/>
<path d="M212.892 43.999H209.694L205.832 38.8364L200.669 31.9385C200.337 31.9625 199.999 31.9814 199.655 31.994C199.607 31.9965 199.558 31.9978 199.509 32.0003C199.114 32.0129 198.707 32.0205 198.286 32.0205H186.898V43.999H184.351V16.0079H198.286C200.418 16.0079 202.245 16.1781 203.766 16.5173C205.287 16.8427 206.53 17.3458 207.494 18.0255C208.472 18.6901 209.185 19.5261 209.634 20.5299C210.081 21.535 210.306 22.7103 210.306 24.0545C210.306 26.1466 209.756 27.8238 208.655 29.0873C207.555 30.3357 205.782 31.192 203.338 31.6535L212.892 43.999ZM200.93 31.3698L209.969 43.4492H211.772L202.355 31.2802L203.236 31.1138C204.422 30.8893 205.431 30.5728 206.262 30.1705C207.094 29.7683 207.748 29.284 208.243 28.7229L208.24 28.7254C208.741 28.1504 209.117 27.4845 209.371 26.7103C209.625 25.936 209.756 25.052 209.756 24.0545C209.756 22.7708 209.541 21.675 209.132 20.7544C208.724 19.8452 208.089 19.0949 207.185 18.4795L207.181 18.477L207.177 18.4744C206.292 17.849 205.119 17.3685 203.651 17.0545L203.647 17.0533H203.646C202.178 16.7254 200.389 16.5577 198.286 16.5577H184.901V43.4492H186.349V32.0205V31.4707H198.286C198.702 31.4707 199.103 31.4643 199.489 31.4505H199.49C199.877 31.4379 200.257 31.4177 200.63 31.3912L200.93 31.3698Z" fill="#384054"/>
<path d="M195.495 29.6367C197.736 29.6367 199.63 29.5749 201.178 29.4526C199.631 29.5749 197.736 29.6367 195.495 29.6367ZM186.898 29.6367V18.3908H195.577C197.818 18.3908 199.705 18.4652 201.24 18.6153C202.789 18.7515 204.038 19.0226 204.988 19.4299C205.939 19.8372 206.625 20.4148 207.046 21.1613C207.467 21.8952 207.678 22.8587 207.678 24.0541C207.678 22.8587 207.467 21.8952 207.046 21.1613C206.625 20.4148 205.939 19.8372 204.988 19.4299C204.038 19.0226 202.789 18.7515 201.24 18.6153C199.705 18.4652 197.818 18.3908 195.577 18.3908H186.898V29.6367Z" fill="white"/>
<path d="M195.495 30.1855H186.349V17.8425H195.577C197.83 17.8425 199.733 17.917 201.293 18.0683H201.288C202.874 18.2083 204.175 18.4844 205.205 18.9258C205.722 19.1477 206.18 19.4201 206.569 19.748C206.959 20.0758 207.282 20.4605 207.525 20.8917L207.523 20.8879C207.765 21.3117 207.941 21.7896 208.056 22.318C208.172 22.8463 208.226 23.4251 208.226 24.0544C208.226 24.6912 208.17 25.2763 208.051 25.8098C207.931 26.3419 207.75 26.8236 207.499 27.2473L207.5 27.2448C207.254 27.6647 206.93 28.0367 206.537 28.357C206.144 28.6761 205.684 28.9447 205.162 29.1654L205.158 29.1666L205.156 29.1679C204.117 29.5903 202.811 29.8602 201.226 30.0002L201.224 30.0014H201.223C199.653 30.125 197.746 30.1855 195.495 30.1855ZM186.898 29.637H195.495C197.736 29.637 199.631 29.5752 201.178 29.4529C202.727 29.318 203.983 29.0519 204.948 28.6584C205.912 28.2511 206.605 27.6874 207.026 26.9674C207.461 26.2347 207.678 25.2637 207.678 24.0544C207.678 22.8589 207.467 21.8955 207.046 21.1616C206.625 20.4151 205.939 19.8375 204.988 19.4302C204.038 19.0229 202.789 18.7518 201.24 18.6156C199.706 18.4655 197.818 18.3911 195.577 18.3911H186.898V29.637Z" fill="#384054"/>
<path d="M230.833 44.5474H227.207V3.4276H116.61V0.00641251H240.818V3.4276H230.833V44.5474ZM122.204 2.8778L227.631 3.13V43.9988H230.409V3.13H240.268V0.302753L122.204 0.554962H117.16V2.8778H122.204Z" fill="#384054"/>
<path d="M230.409 43.999H227.631V3.13021L122.204 2.878H227.757V43.999H230.283V2.878V3.42781V2.878H240.268V0.555164H122.204L240.268 0.302959V3.13021H230.409V43.999Z" fill="#384054"/>
<path d="M122.204 2.87793H117.16V0.555093H122.204V1.10492H117.709V2.32812H122.204V2.87793Z" fill="white"/>
<path d="M230.283 43.999H227.757V2.87801H122.204V2.3282H228.307V43.4492H229.733V2.87801V2.3282H239.719V1.105H122.204V0.555168H240.268V2.87801H230.283V43.999Z" fill="#384054"/>
<path d="M23.7422 56.5197H123.547V59.9951H23.7422V56.5197Z" fill="url(#paint0_linear_1230_2824)"/>
<path d="M214.635 -4.19617e-05H114.918V3.42871H214.635V-4.19617e-05Z" fill="url(#paint1_linear_1230_2824)"/>
<path d="M230.921 0.00486946H249.616V3.4248H230.921V0.00486946Z" fill="url(#paint2_linear_1230_2824)"/>
<defs>
<linearGradient id="paint0_linear_1230_2824" x1="23.7422" y1="58.2574" x2="123.547" y2="58.2574" gradientUnits="userSpaceOnUse">
<stop stop-color="#384054"/>
<stop offset="1" stop-color="white"/>
</linearGradient>
<linearGradient id="paint1_linear_1230_2824" x1="214.635" y1="1.71497" x2="114.917" y2="1.71498" gradientUnits="userSpaceOnUse">
<stop stop-color="#384054"/>
<stop offset="1" stop-color="white"/>
</linearGradient>
<linearGradient id="paint2_linear_1230_2824" x1="230.921" y1="1.71484" x2="249.615" y2="1.71484" gradientUnits="userSpaceOnUse">
<stop stop-color="#384054"/>
<stop offset="1" stop-color="white"/>
</linearGradient>
</defs>
</svg>
